<?xml version="1.0" standalone="no"?>
<!DOCTYPE svg PUBLIC "-//W3C//DTD SVG 1.1//EN" "http://www.w3.org/Graphics/SVG/1.1/DTD/svg11.dtd" >
<svg xmlns="http://www.w3.org/2000/svg" xmlns:xlink="http://www.w3.org/1999/xlink" version="1.1">
<metadata>
Created by FontForge 20170731 at Thu Dec 15 09:53:07 2022
 By Aleksey,,,
(c) 1988, 1990, 1994, 2002 Adobe Systems Incorporated. All rights reserved.
</metadata>
<defs>
<font id="FrutigerLTStd-LightItalic" horiz-adv-x="1138" >
  <font-face 
    font-family="Frutiger LT Std 45 Light"
    font-weight="300"
    font-style="italic"
    font-stretch="normal"
    units-per-em="2048"
    panose-1="2 11 4 2 2 2 4 9 2 4"
    ascent="1536"
    descent="-512"
    x-height="1044"
    cap-height="1430"
    bbox="-293 -512 2111 1878"
    underline-thickness="102"
    underline-position="-307"
    slope="-12"
    unicode-range="U+0020-FB02"
  />
<missing-glyph horiz-adv-x="1222" 
d="M199 0v1434h1024v-1434h-1024zM711 809l348 522h-697zM772 717l348 -522v1044zM362 102h697l-348 523zM301 1239v-1044l348 522z" />
    <glyph glyph-name="f_i" unicode="fi" 
d="M150 0l200 934h-225l27 110h223l22 105q10 46 18.5 80t24.5 80t33 78.5t43.5 67.5t58 56.5t74.5 35.5t94 14q84 0 144 -23l-31 -108q-50 20 -104 20q-32 0 -59 -10t-46.5 -25t-37 -42.5t-28.5 -51t-22 -63t-17.5 -65.5t-15.5 -71l-16 -78h260l-27 -110h-258l-200 -934
h-135zM741 0l222 1044h135l-221 -1044h-136zM1202 1495l-37 -172h-155l37 172h155z" />
    <glyph glyph-name="f_l" unicode="fl" 
d="M150 0l200 934h-225l27 110h223l22 105q10 46 18.5 80t24.5 80t33 78.5t43.5 67.5t58 56.5t74.5 35.5t94 14q84 0 144 -23l-31 -108q-50 20 -104 20q-32 0 -59 -10t-46.5 -25t-37 -42.5t-28.5 -51t-22 -63t-17.5 -65.5t-15.5 -71l-16 -78h260l-27 -110h-258l-200 -934
h-135zM741 0l328 1536h135l-327 -1536h-136z" />
    <glyph glyph-name=".notdef" horiz-adv-x="1222" 
d="M199 0v1434h1024v-1434h-1024zM711 809l348 522h-697zM772 717l348 -522v1044zM362 102h697l-348 523zM301 1239v-1044l348 522z" />
    <glyph glyph-name=".null" horiz-adv-x="0" 
 />
    <glyph glyph-name="nonmarkingreturn" horiz-adv-x="682" 
 />
    <glyph glyph-name="space" unicode=" " horiz-adv-x="569" 
 />
    <glyph glyph-name="exclam" unicode="!" horiz-adv-x="796" 
d="M307 346l205 1084h172l-256 -1084h-121zM209 0l35 172h168l-35 -172h-168z" />
    <glyph glyph-name="quotedbl" unicode="&#x22;" horiz-adv-x="909" 
d="M367 983v447h129v-447h-129zM643 983v447h129v-447h-129z" />
    <glyph glyph-name="numbersign" unicode="#" 
d="M260 0l64 449h-230l17 110h227l45 311h-236l17 111h233l64 449h125l-64 -449h266l64 449h125l-64 -449h213l-16 -111h-211l-43 -311h213l-16 -110h-213l-64 -449h-125l64 449h-266l-64 -449h-125zM731 559l43 311h-266l-43 -311h266z" />
    <glyph glyph-name="dollar" unicode="$" 
d="M592 862l102 461q-109 -21 -180.5 -85t-71.5 -173q0 -60 38.5 -107.5t111.5 -95.5zM645 664l-125 -558q84 11 151 44t111.5 98.5t44.5 154.5q0 81 -47 140.5t-135 120.5zM758 1610h98l-35 -156q164 -6 295 -63l-43 -129q-129 66 -278 69l-117 -524q53 -34 84 -55
t76 -59.5t69.5 -74t43 -87.5t18.5 -109q0 -99 -40 -181t-107.5 -136.5t-152 -86.5t-177.5 -38l-37 -164h-99l37 159q-185 9 -311 78l43 135q59 -41 138.5 -64.5t156.5 -25.5l139 623q-61 39 -97.5 66.5t-78.5 69.5t-62 91t-20 107q0 93 33.5 167t92.5 121t134 74t162 33z
" />
    <glyph glyph-name="percent" unicode="%" horiz-adv-x="1933" 
d="M1434 96q65 0 116 34.5t80 89t43.5 114t14.5 117.5q0 75 -46.5 129.5t-125.5 54.5q-68 0 -120 -34.5t-81 -90t-43.5 -116t-14.5 -122.5q0 -78 47.5 -127t129.5 -49zM1421 -14q-135 0 -214 87t-79 224q0 80 28.5 160t78 144t123.5 104t158 40q135 0 218 -80t83 -214
q0 -121 -45.5 -225.5t-137.5 -172t-213 -67.5zM487 795q65 0 116 34.5t80 89t43.5 113.5t14.5 117q0 75 -46.5 129.5t-125.5 54.5q-68 0 -120 -34.5t-81 -89.5t-43 -115.5t-14 -122.5q0 -78 47 -127t129 -49zM475 684q-135 0 -214 87t-79 224q0 108 47.5 210t138 170.5
t201.5 68.5q135 0 218 -80.5t83 -214.5q0 -121 -45 -225t-137 -172t-213 -68zM489 -45l912 1520h115l-912 -1520h-115z" />
    <glyph glyph-name="ampersand" unicode="&#x26;" horiz-adv-x="1366" 
d="M1059 0l-105 162q-190 -187 -454 -187q-198 0 -321.5 101t-123.5 272q0 95 38 174.5t105 135.5t146 94.5t172 62.5q-49 68 -71.5 103.5t-43 93.5t-20.5 118q0 83 34 147.5t90 102t122.5 56t138.5 18.5q151 0 249.5 -77t98.5 -224q0 -259 -416 -393l287 -410
q79 84 124 187t83 245h123q-64 -305 -266 -532l163 -250h-153zM897 260l-319 469q-63 -19 -114.5 -40.5t-102.5 -54.5t-86 -72t-56.5 -94t-21.5 -120q0 -62 26 -113t69.5 -83t97 -49t110.5 -17q211 0 397 174zM985 1153q0 94 -62 142t-167 48q-97 0 -171.5 -56.5
t-74.5 -153.5q0 -106 131 -287q54 19 92.5 35t90 44.5t83.5 58.5t55 74.5t23 94.5z" />
    <glyph glyph-name="quotesingle" unicode="'" horiz-adv-x="569" 
d="M340 983v447h129v-447h-129z" />
    <glyph glyph-name="parenleft" unicode="(" horiz-adv-x="569" 
d="M676 1548h121q-95 -112 -165 -204.5t-142.5 -209.5t-118 -225.5t-74.5 -238t-29 -260.5q0 -337 140 -697h-93q-176 412 -176 738q0 89 15.5 177.5t40 163t66 157t80 146.5t96.5 144t102 136t108 137q20 24 29 36z" />
    <glyph glyph-name="parenright" unicode=")" horiz-adv-x="569" 
d="M-25 -287h-120q120 141 204.5 259t163.5 263t119.5 299.5t40.5 317.5q0 339 -139 696h92q176 -412 176 -737q0 -123 -32 -248t-71 -215.5t-121.5 -216t-131.5 -189.5t-154 -195q-18 -23 -27 -34z" />
    <glyph glyph-name="asterisk" unicode="*" 
d="M367 776l202 250l-303 86l39 119l295 -115l-12 314h117l-13 -314l303 115l35 -119l-307 -86l182 -250l-94 -71l-166 264l-184 -264z" />
    <glyph glyph-name="plus" unicode="+" horiz-adv-x="1228" 
d="M125 449v141h448v448h142v-448h448v-141h-448v-449h-142v449h-448z" />
    <glyph glyph-name="comma" unicode="," horiz-adv-x="569" 
d="M-76 -274l209 446h168l-252 -446h-125z" />
    <glyph glyph-name="hyphen" unicode="-" horiz-adv-x="681" 
d="M80 481l22 142h523l-23 -142h-522z" />
    <glyph glyph-name="period" unicode="." horiz-adv-x="569" 
d="M98 0l35 172h168l-35 -172h-168z" />
    <glyph glyph-name="slash" unicode="/" horiz-adv-x="569" 
d="M-12 -25l555 1479h141l-559 -1479h-137z" />
    <glyph glyph-name="zero" unicode="0" 
d="M111 461q0 65 11 146.5t35 176.5t59 187t86.5 178t113.5 151.5t144.5 104.5t174.5 39q83 0 149.5 -25t110.5 -68t73 -104t41.5 -130t12.5 -148q0 -65 -11 -146.5t-35 -176.5t-59 -187t-86.5 -178t-113.5 -151.5t-144.5 -104.5t-174.5 -39q-83 0 -149.5 25t-110.5 68
t-73 104t-41.5 130t-12.5 148zM252 463q0 -65 9.5 -121.5t33.5 -112t73 -88t119 -32.5q98 0 183 69.5t140 172.5t95.5 224t58 222.5t17.5 169.5q0 51 -5.5 96.5t-22 94.5t-43 83.5t-72 57t-105.5 22.5q-94 0 -176.5 -69.5t-136.5 -172.5t-93.5 -224t-57 -222.5t-17.5 -169.5
z" />
    <glyph glyph-name="one" unicode="1" 
d="M432 0l266 1270l-272 -195l-66 96l402 259h106l-301 -1430h-135z" />
    <glyph glyph-name="two" unicode="2" 
d="M4 0l31 111l381 331q173 152 231 208q271 265 271 446q0 102 -70.5 163.5t-179.5 61.5q-103 0 -197 -34t-164 -89l12 150q73 42 166 69t183 27q183 0 287 -90.5t104 -245.5q0 -65 -22.5 -132t-51.5 -117.5t-82.5 -115t-86.5 -99t-93 -93.5l-492 -428h672l-29 -123h-870z
" />
    <glyph glyph-name="three" unicode="3" 
d="M326 692l30 123h138q111 0 207 29t159.5 91t63.5 146q0 63 -25.5 111t-69 75.5t-93 40.5t-103.5 13q-109 0 -182.5 -19t-161.5 -63l10 137q145 68 334 68q85 0 160 -20t137.5 -60t98.5 -109.5t36 -160.5q0 -140 -109 -235.5t-262 -113.5v-4q115 -24 175.5 -106t60.5 -193
q0 -112 -52 -201.5t-136.5 -143.5t-185.5 -82.5t-206 -28.5q-189 0 -352 63l33 123q51 -21 82.5 -31.5t96 -21t140.5 -10.5q191 0 314.5 90t123.5 256q0 75 -49 130t-122.5 81t-159.5 26h-131z" />
    <glyph glyph-name="four" unicode="4" 
d="M623 0l69 330h-690l31 135l852 965h182l-211 -977h211l-25 -123h-213l-71 -330h-135zM178 453h543l184 835h-4z" />
    <glyph glyph-name="five" unicode="5" 
d="M238 707l165 723h752l-25 -123h-624l-105 -453q105 25 183 25q186 0 300.5 -99.5t114.5 -273.5q0 -120 -48 -220t-128 -164.5t-181 -100t-210 -35.5q-198 0 -352 59l26 135q142 -71 293 -71q200 0 329.5 108t129.5 281q0 122 -94 190t-236 68q-138 0 -290 -49z" />
    <glyph glyph-name="six" unicode="6" 
d="M1139 1374l-37 -125q-129 72 -287 72q-88 0 -168 -34t-141 -91t-109 -132t-76.5 -156.5t-39.5 -164.5h4q85 83 166.5 121.5t201.5 38.5q175 0 287.5 -113.5t112.5 -283.5q0 -141 -63 -260t-176 -189.5t-251 -70.5q-101 0 -178.5 29.5t-126 78t-80 118.5t-43.5 144.5
t-12 161.5q0 135 27 266t84 251t138 210.5t197.5 144.5t253.5 54q173 0 316 -70zM571 109q95 0 174.5 57.5t122.5 144t43 178.5q0 126 -81 208.5t-238 82.5q-133 0 -230.5 -104.5t-97.5 -245.5q0 -144 86.5 -237t220.5 -84z" />
    <glyph glyph-name="seven" unicode="7" 
d="M1174 1430l-21 -111l-846 -1319h-162l848 1307h-710l24 123h867z" />
    <glyph glyph-name="eight" unicode="8" 
d="M537 96q88 0 167.5 35t131 104t51.5 156q0 41 -10 77t-31 64t-41.5 49.5t-53.5 42t-54 32.5t-56.5 29t-48.5 24q-26 -3 -67.5 -17t-96 -42.5t-101 -64.5t-78.5 -90t-32 -114q0 -88 46.5 -154.5t118 -98.5t155.5 -32zM707 1333q-120 0 -204.5 -72t-84.5 -194
q0 -142 196 -268q39 13 67.5 23.5t70.5 28.5t72 35t63 41.5t54 50t34.5 59t13.5 69.5q0 77 -44 130t-105.5 75t-132.5 22zM719 1444q84 0 155.5 -19t130 -57.5t92 -105.5t33.5 -156q0 -72 -36.5 -134.5t-97 -105.5t-127.5 -72t-138 -44v-5q297 -108 297 -352
q0 -100 -39 -179t-106.5 -128t-155.5 -74.5t-190 -25.5q-133 0 -234.5 40.5t-164 129.5t-62.5 217q0 101 59.5 183.5t148 131.5t197.5 74v4q-89 55 -147 133t-58 168t38 163t101.5 119t141.5 70.5t162 24.5z" />
    <glyph glyph-name="nine" unicode="9" 
d="M86 55l37 125q127 -71 287 -71q109 0 205.5 51.5t163 135.5t109.5 185t56 205h-4q-85 -83 -167 -121.5t-202 -38.5q-175 0 -287 113.5t-112 284.5q0 141 63 260t176 189.5t251 70.5q101 0 178.5 -29.5t126 -78.5t80 -119t43.5 -144.5t12 -161.5q0 -135 -27 -266
t-84 -250.5t-138 -210t-198 -144.5t-254 -54q-174 0 -315 69zM653 1321q-95 0 -174.5 -57.5t-122.5 -144.5t-43 -179q0 -126 81.5 -208.5t238.5 -82.5q133 0 230.5 104.5t97.5 245.5q0 144 -87 237.5t-221 84.5z" />
    <glyph glyph-name="colon" unicode=":" horiz-adv-x="569" 
d="M281 872l34 172h168l-34 -172h-168zM98 0l35 172h168l-35 -172h-168z" />
    <glyph glyph-name="semicolon" unicode=";" horiz-adv-x="569" 
d="M-76 -274l209 446h168l-252 -446h-125zM281 872l34 172h168l-34 -172h-168z" />
    <glyph glyph-name="less" unicode="&#x3c;" horiz-adv-x="1228" 
d="M1163 1053v-135l-880 -400l880 -399v-135l-1038 471v127z" />
    <glyph glyph-name="equal" unicode="=" horiz-adv-x="1228" 
d="M125 653v142h1038v-142h-1038zM125 242v141h1038v-141h-1038z" />
    <glyph glyph-name="greater" unicode="&#x3e;" horiz-adv-x="1228" 
d="M127 -16v135l883 399l-883 400v135l1038 -471v-127z" />
    <glyph glyph-name="question" unicode="?" horiz-adv-x="1024" 
d="M295 1278l22 131q160 45 252 45q79 0 147.5 -19.5t123.5 -58.5t86.5 -103.5t31.5 -148.5q0 -59 -18.5 -111.5t-56 -99t-71.5 -79t-87 -76.5q-11 -9 -46 -38t-53 -44.5t-50 -44.5t-51 -51.5t-41 -51.5t-35 -58t-19 -58l-14 -66h-119l16 80q10 48 33 95t49.5 83.5t68 78
t73 68.5t77.5 64q41 33 62 51t53 51.5t47.5 60.5t28 65.5t12.5 80.5q0 54 -25.5 96t-67 65t-87.5 34.5t-94 11.5q-56 0 -126.5 -15t-121.5 -38zM213 0l35 172h168l-35 -172h-168z" />
    <glyph glyph-name="at" unicode="@" horiz-adv-x="1638" 
d="M545 594q3 -93 42.5 -145t104.5 -52q71 0 136 43.5t107.5 109t67.5 140t25 139.5q0 98 -49 141.5t-115 43.5q-50 0 -105.5 -31.5t-103 -85.5t-79 -134.5t-31.5 -168.5zM1262 1102l-175 -557q-20 -58 -20 -101q0 -47 45 -47q117 0 209 131.5t92 307.5q0 153 -84.5 267.5
t-217 171t-290.5 56.5q-170 0 -308 -79t-217 -220t-79 -315q0 -176 79 -318t217 -221.5t308 -79.5t311.5 61.5t229.5 166.5h125q-96 -165 -271.5 -258t-394.5 -93q-143 0 -265 41.5t-208 112.5t-147 166t-90 201.5t-29 218.5q0 113 29 219.5t90 201t147 165.5t208 112
t265 41q108 0 213 -25t198 -77t163.5 -124t111.5 -173.5t41 -218.5q0 -124 -48 -234t-119.5 -179.5t-150 -109t-145.5 -39.5q-137 0 -161 125h-4q-33 -38 -58 -60.5t-77 -43.5t-117 -21q-120 0 -198.5 90t-78.5 218q0 135 57.5 261t168.5 210t247 84q74 0 133 -39t93 -119
l43 123h129z" />
    <glyph glyph-name="A" unicode="A" horiz-adv-x="1366" 
d="M1010 506l-150 782l-483 -782h633zM-86 0l887 1430h168l278 -1430h-143l-72 383h-731l-235 -383h-152z" />
    <glyph glyph-name="B" unicode="B" 
d="M66 0l307 1430h258q77 0 137.5 -6t125 -26t107 -53.5t70 -92t27.5 -138.5q0 -149 -101.5 -250.5t-246.5 -115.5v-5q121 -17 184 -92t63 -200q0 -203 -161 -327t-410 -124h-360zM354 682l-123 -559h181q127 0 225 34t158.5 109.5t60.5 184.5q0 115 -71.5 173t-186.5 58
h-244zM487 1307l-108 -502h182q58 1 112 11t106.5 33t91 56.5t62 86t23.5 116.5q0 53 -17 90.5t-43.5 58.5t-71.5 32.5t-86.5 14.5t-104.5 3h-146z" />
    <glyph glyph-name="C" unicode="C" horiz-adv-x="1251" 
d="M1386 1380l-49 -118q-130 69 -344 69q-204 0 -364.5 -96t-248 -262.5t-87.5 -372.5q0 -138 66.5 -253t186 -182t267.5 -67q51 0 90 2t72.5 8t49 10t49 14t44.5 13l-16 -125q-4 -1 -34.5 -10t-46.5 -13t-48.5 -10.5t-69.5 -9t-80 -2.5q-185 0 -336.5 75t-243 219.5
t-91.5 332.5q0 185 63.5 343.5t175.5 270t269.5 175t340.5 63.5q118 0 208 -17t177 -57z" />
    <glyph glyph-name="D" unicode="D" horiz-adv-x="1366" 
d="M498 1307l-254 -1184h252q324 0 507 193.5t183 539.5q0 230 -135 340.5t-375 110.5h-178zM76 0l303 1430h254q119 0 219.5 -17.5t190 -59.5t151 -107t97.5 -164t36 -226q0 -256 -95 -448t-281 -300t-443 -108h-432z" />
    <glyph glyph-name="E" unicode="E" horiz-adv-x="1024" 
d="M76 0l295 1430h704l-22 -123h-568l-104 -510h534l-22 -123h-537l-114 -551h587l-20 -123h-733z" />
    <glyph glyph-name="F" unicode="F" horiz-adv-x="909" 
d="M57 0l303 1430h684l-26 -123h-547l-104 -510h524l-25 -123h-522l-145 -674h-142z" />
    <glyph glyph-name="G" unicode="G" horiz-adv-x="1478" 
d="M1436 1382l-39 -133q-163 82 -383 82q-204 0 -366 -88t-253.5 -249.5t-91.5 -368.5q0 -146 64 -266.5t179.5 -190.5t260.5 -70q155 0 278 60l101 493h-342l28 123h486l-150 -727q-9 -2 -50.5 -16.5t-79 -25t-109.5 -20.5t-152 -10q-297 0 -476 182.5t-179 483.5
q0 176 65.5 328.5t177.5 258t265.5 166t326.5 60.5q235 0 439 -72z" />
    <glyph glyph-name="H" unicode="H" horiz-adv-x="1366" 
d="M76 0l303 1430h139l-133 -633h731l135 633h140l-308 -1430h-139l146 674h-732l-143 -674h-139z" />
    <glyph glyph-name="I" unicode="I" horiz-adv-x="454" 
d="M57 0l303 1430h142l-303 -1430h-142z" />
    <glyph glyph-name="J" unicode="J" horiz-adv-x="681" 
d="M-72 0l31 129q74 -31 135 -31q42 0 78 14t60.5 32.5t47 54.5t35 61.5t26.5 73.5t19 71t15 72q1 6 2 10.5t2 8.5l196 934h142l-209 -959q-16 -71 -24.5 -108t-27.5 -99t-37.5 -95.5t-49.5 -76.5t-66.5 -64.5t-87 -37t-113.5 -15.5q-120 0 -174 25z" />
    <glyph glyph-name="K" unicode="K" horiz-adv-x="1251" 
d="M96 0l305 1430h140l-133 -623h4l753 623h205l-842 -678l607 -752h-177l-571 715l-147 -715h-144z" />
    <glyph glyph-name="L" unicode="L" horiz-adv-x="909" 
d="M57 0l305 1430h146l-281 -1307h584l-23 -123h-731z" />
    <glyph glyph-name="M" unicode="M" horiz-adv-x="1820" 
d="M76 0l303 1430h196l263 -1258l794 1258h219l-303 -1430h-139l277 1276h-5l-815 -1276h-116l-269 1276h-4l-270 -1276h-131z" />
    <glyph glyph-name="N" unicode="N" horiz-adv-x="1366" 
d="M57 0l310 1430h168l477 -1258h4l266 1258h129l-303 -1430h-168l-477 1257h-4l-271 -1257h-131z" />
    <glyph glyph-name="O" unicode="O" horiz-adv-x="1478" 
d="M137 559q0 136 33 267t98.5 244t155.5 199t212 135.5t261 49.5q259 0 400 -158.5t141 -425.5q0 -136 -33 -267t-98.5 -244t-155.5 -199t-212 -135.5t-261 -49.5q-259 0 -400 158.5t-141 425.5zM279 571q0 -136 43 -241t135.5 -168.5t224.5 -63.5q111 0 210.5 45
t171.5 121t125.5 174t80 206t26.5 214q0 136 -43 241t-135.5 168.5t-224.5 63.5q-111 0 -210.5 -45t-171.5 -121t-125.5 -174t-80 -206t-26.5 -214z" />
    <glyph glyph-name="P" unicode="P" horiz-adv-x="1024" 
d="M500 1307l-121 -566h160q68 0 128.5 10.5t116 35.5t95.5 62t64 94t24 128t-25.5 119.5t-72.5 73t-99 34t-121 9.5h-149zM76 0l307 1430h244q86 0 153 -8t130.5 -31.5t105.5 -62.5t67 -104t25 -153q0 -111 -47 -199.5t-126 -142.5t-177 -82.5t-205 -28.5h-201l-135 -618
h-141z" />
    <glyph glyph-name="Q" unicode="Q" horiz-adv-x="1478" 
d="M1157 -270h-176l-211 254q-5 -1 -20.5 -3.5t-24.5 -3.5q-14 -2 -47 -2q-259 0 -400 158.5t-141 425.5q0 136 33 267t98.5 244t155.5 199t212 135.5t261 49.5q259 0 400 -158.5t141 -425.5q0 -189 -62 -362.5t-185.5 -306.5t-287.5 -189zM279 571q0 -136 43 -241
t135.5 -168.5t224.5 -63.5q111 0 210.5 45t171.5 121t125.5 174t80 206t26.5 214q0 136 -43 241t-135.5 168.5t-224.5 63.5q-111 0 -210.5 -45t-171.5 -121t-125.5 -174t-80 -206t-26.5 -214z" />
    <glyph glyph-name="R" unicode="R" 
d="M76 0l311 1430h324q393 10 393 -320q0 -170 -114.5 -272.5t-289.5 -110.5v-4q25 -4 45 -12.5t33.5 -16t26 -24.5t18 -25t13.5 -32t9.5 -30l8.5 -34l135 -549h-139l-125 530q-24 84 -66.5 114t-130.5 30h-166l-143 -674h-143zM498 1307l-109 -510h150q61 0 117.5 8.5
t113.5 30t99 53.5t68 84.5t26 118.5q0 215 -258 215h-207z" />
    <glyph glyph-name="S" unicode="S" horiz-adv-x="1024" 
d="M1063 1391l-43 -129q-135 69 -289 69q-49 0 -96.5 -9t-92.5 -29.5t-78.5 -50.5t-54 -75.5t-20.5 -101.5q0 -50 29 -94t75.5 -78t102.5 -68.5t112 -73.5t102.5 -83t75.5 -107.5t29 -138.5q0 -105 -45.5 -192t-120.5 -141.5t-168 -84t-192 -29.5q-220 0 -360 78l43 135
q62 -42 144.5 -66t160.5 -24q76 0 144 17t126 52t92.5 95.5t34.5 140.5q0 60 -29 111.5t-75.5 90t-102.5 75t-112 74.5t-102.5 79t-75.5 98t-29 124q0 81 26 148t71 113t107 77.5t132 46t147 14.5q185 0 332 -63z" />
    <glyph glyph-name="T" unicode="T" horiz-adv-x="1024" 
d="M180 1307l27 123h1010l-25 -123h-434l-275 -1307h-147l278 1307h-434z" />
    <glyph glyph-name="U" unicode="U" horiz-adv-x="1366" 
d="M1407 1430l-190 -885q-41 -260 -189.5 -415t-388.5 -155q-210 0 -340.5 118.5t-130.5 332.5q0 137 82 489l112 515h136l-146 -697q-43 -226 -43 -301q0 -156 87.5 -245t240.5 -89q174 0 283.5 110.5t148.5 289.5l207 932h131z" />
    <glyph glyph-name="V" unicode="V" horiz-adv-x="1251" 
d="M1436 1430l-836 -1430h-154l-233 1430h137l197 -1289h4l739 1289h146z" />
    <glyph glyph-name="W" unicode="W" horiz-adv-x="1933" 
d="M340 0l-127 1430h137l101 -1270h4l626 1270h170l82 -1270h4l635 1270h139l-722 -1430h-170l-78 1270h-4l-627 -1270h-170z" />
    <glyph glyph-name="X" unicode="X" horiz-adv-x="1251" 
d="M-88 0l688 752l-346 678h154l290 -588l533 588h172l-631 -682l367 -748h-156l-307 647l-586 -647h-178z" />
    <glyph glyph-name="Y" unicode="Y" horiz-adv-x="1251" 
d="M451 0l129 604l-363 826h150l301 -709l602 709h170l-723 -826l-129 -604h-137z" />
    <glyph glyph-name="Z" unicode="Z" horiz-adv-x="1024" 
d="M-63 0l24 125l1002 1182h-727l26 123h895l-27 -125l-999 -1182h774l-26 -123h-942z" />
    <glyph glyph-name="bracketleft" unicode="[" horiz-adv-x="569" 
d="M31 -287l389 1835h323l-18 -98h-209l-348 -1638h205l-19 -99h-323z" />
    <glyph glyph-name="backslash" unicode="\" horiz-adv-x="569" 
d="M133 1454l551 -1479h-145l-551 1479h145z" />
    <glyph glyph-name="bracketright" unicode="]" horiz-adv-x="569" 
d="M627 1548l-389 -1835h-324l18 99h209l348 1638h-204l18 98h324z" />
    <glyph glyph-name="asciicircum" unicode="^" horiz-adv-x="1228" 
d="M123 543l446 887h131l447 -887h-143l-371 745l-365 -745h-145z" />
    <glyph glyph-name="underscore" unicode="_" horiz-adv-x="1024" 
d="M0 -154h1024v-102h-1024v102z" />
    <glyph glyph-name="grave" unicode="`" horiz-adv-x="454" 
d="M283 1479l174 -295h-86l-250 295h162z" />
    <glyph glyph-name="a" unicode="a" horiz-adv-x="1024" 
d="M893 530l-55 -282q-32 -130 -39 -248h-129q14 126 20 154h-4q-64 -96 -150.5 -137.5t-205.5 -41.5q-124 0 -211.5 83t-87.5 210q0 74 26 133t73 98.5t104.5 67.5t128 42.5t135 21t133.5 6.5q59 0 141 -8q6 46 6 104q0 107 -58 166t-165 59q-129 0 -309 -90l14 131
q167 70 315 70q168 0 256.5 -88t88.5 -252q0 -76 -27 -199zM172 270q0 -85 60 -134.5t143 -49.5q70 0 129.5 24.5t101 65.5t73 98t50 118.5t27.5 129.5q-22 0 -64 2t-63 2q-457 0 -457 -256z" />
    <glyph glyph-name="b" unicode="b" 
d="M508 1536l-137 -631h4q62 80 142.5 122t201.5 42q87 0 155.5 -33.5t111 -92.5t64 -134t21.5 -162q0 -100 -21.5 -196.5t-65.5 -182.5t-106 -151.5t-149.5 -103.5t-189.5 -38q-252 0 -322 209h-4q-3 -23 -20.5 -87t-24.5 -97h-133q48 179 55 213l283 1323h135zM674 958
q-74 0 -140 -34t-112.5 -89.5t-81 -126.5t-51.5 -145.5t-17 -144.5t13.5 -127.5t43.5 -104.5t83 -73.5t127 -26.5q77 0 143 35t110.5 92.5t76.5 131.5t46.5 150.5t14.5 151.5q0 139 -63.5 225t-192.5 86z" />
    <glyph glyph-name="c" unicode="c" horiz-adv-x="909" 
d="M956 1028l-36 -117q-31 16 -107 31.5t-135 15.5q-144 0 -249 -66t-156.5 -177t-51.5 -252q0 -162 96 -269.5t242 -107.5q80 0 221 49l-16 -129q-95 -31 -238 -31q-87 0 -161.5 28t-126 75.5t-88 109.5t-53.5 129t-17 136q0 284 158 450t454 166q63 0 143 -13t121 -28z
" />
    <glyph glyph-name="d" unicode="d" 
d="M1204 1536l-274 -1331q-30 -138 -35 -205h-133q11 100 33 166h-4q-128 -191 -357 -191q-91 0 -161 36t-111 99.5t-61.5 142t-20.5 169.5q0 88 22 179t66.5 174.5t105.5 149t146.5 105t181.5 39.5q118 0 205 -56.5t115 -160.5h4l143 684h135zM221 397q0 -139 63.5 -225
t192.5 -86q84 0 160.5 52t128.5 132t82.5 175t30.5 182q0 147 -68.5 239t-198.5 92q-77 0 -143 -35t-110.5 -92.5t-76.5 -131.5t-46.5 -150.5t-14.5 -151.5z" />
    <glyph glyph-name="e" unicode="e" horiz-adv-x="1024" 
d="M975 485h-760q-6 -41 -6 -84q0 -148 88 -231.5t229 -83.5t305 70l-10 -125q-47 -18 -72.5 -26t-93 -19t-145.5 -11q-190 0 -310 111t-120 315q0 177 64 328t189.5 245.5t287.5 94.5q181 0 274.5 -103t93.5 -286q0 -41 -14 -195zM238 596h616q0 7 3 36t3 44
q0 133 -58.5 207.5t-180.5 74.5q-145 0 -250 -106t-133 -256z" />
    <glyph glyph-name="f" unicode="f" horiz-adv-x="681" 
d="M150 0l200 934h-225l27 110h223l22 105q10 46 18.5 80t24.5 80t33 78.5t43.5 67.5t58 56.5t74.5 35.5t94 14q84 0 144 -23l-31 -108q-50 20 -104 20q-32 0 -59 -10t-46.5 -25t-37 -42.5t-28.5 -51t-22 -63t-17.5 -65.5t-15.5 -71l-16 -78h260l-27 -110h-258l-200 -934
h-135z" />
    <glyph glyph-name="g" unicode="g" 
d="M-14 -373l34 131q135 -90 320 -90q88 0 154.5 18.5t111.5 49.5t79 85t54.5 112t40.5 143l17 76h-4q-137 -152 -351 -152q-90 0 -162 34.5t-117.5 94t-69 135.5t-23.5 162q0 126 35 240t100 204.5t168 144.5t229 54q132 0 223 -58.5t115 -179.5h4q16 96 49 213h129
q-37 -161 -49 -213l-155 -718q-14 -67 -26.5 -115t-29 -101t-34.5 -89.5t-43.5 -74.5t-55 -63t-68.5 -48t-86 -36t-106 -20.5t-129 -7.5q-197 0 -354 69zM211 426q0 -139 70 -227t208 -88q75 0 140.5 30.5t111 82t78.5 118t48.5 139.5t15.5 146q0 146 -73 238.5t-210 92.5
q-73 0 -137.5 -33.5t-109.5 -88t-78 -124t-48.5 -143t-15.5 -143.5z" />
    <glyph glyph-name="h" unicode="h" 
d="M57 0l330 1536h135l-155 -662h4q57 94 134.5 141t199.5 54q146 0 236.5 -79.5t90.5 -223.5q0 -79 -31 -215l-116 -551h-135l118 575q23 112 23 183q0 94 -52 147t-149 53q-81 0 -147.5 -37.5t-112.5 -103.5t-76 -141t-49 -164l-112 -512h-136z" />
    <glyph glyph-name="i" unicode="i" horiz-adv-x="454" 
d="M57 0l222 1044h135l-221 -1044h-136zM518 1495l-37 -172h-153l37 172h153z" />
    <glyph glyph-name="j" unicode="j" horiz-adv-x="454" 
d="M412 1044l-240 -1167q-11 -54 -22 -92t-33.5 -84t-51 -75t-75 -48.5t-105.5 -19.5q-34 0 -131 18l35 117q28 -12 72 -12q39 0 71.5 18t52.5 48t32.5 61t19.5 65l239 1171h136zM514 1495l-37 -172h-153l36 172h154z" />
    <glyph glyph-name="k" unicode="k" horiz-adv-x="1024" 
d="M57 0l336 1536h127l-196 -913h4l542 421h193l-629 -462l465 -582h-168l-424 537l-114 -537h-136z" />
    <glyph glyph-name="l" unicode="l" horiz-adv-x="454" 
d="M57 0l328 1536h135l-327 -1536h-136z" />
    <glyph glyph-name="m" unicode="m" horiz-adv-x="1705" 
d="M57 0l179 868q19 81 26 176h129q-9 -95 -22 -157h4q75 100 146 141t177 41q114 0 186 -61t76 -172h5q52 111 142 172t212 61q135 0 215 -82.5t80 -224.5q0 -50 -31 -197l-119 -565h-135l117 553q26 117 26 203q0 92 -42.5 147t-131.5 55q-61 0 -115 -27t-92.5 -69.5
t-70 -100t-50.5 -114.5t-32 -117l-109 -530h-135l117 553q27 122 27 203q0 92 -42.5 147t-131.5 55q-61 0 -115 -27t-93 -69.5t-70.5 -100t-50.5 -114.5t-32 -117l-108 -530h-136z" />
    <glyph glyph-name="n" unicode="n" 
d="M57 0l181 879q20 119 24 165h129q-10 -114 -22 -157h4q54 83 144.5 132.5t187.5 49.5q146 0 236.5 -79.5t90.5 -223.5q0 -69 -31 -215l-116 -551h-135l118 575q23 112 23 183q0 94 -52 147t-149 53q-81 0 -149 -37.5t-115 -104t-79.5 -146t-51.5 -174.5l-102 -496h-136z
" />
    <glyph glyph-name="o" unicode="o" 
d="M80 430q0 175 70.5 320t205 232t306.5 87q197 0 306 -121t109 -327q0 -176 -68.5 -321.5t-202 -235t-308.5 -89.5q-190 0 -304 128t-114 327zM221 410q0 -139 80 -231.5t213 -92.5q97 0 179 48.5t134 126t80.5 170.5t28.5 187q0 155 -72.5 247.5t-218.5 92.5
q-84 0 -155 -31.5t-119.5 -84.5t-83 -124t-50.5 -149t-16 -159z" />
    <glyph glyph-name="p" unicode="p" 
d="M-37 -430l256 1231q32 157 41 243h129q-4 -69 -22 -155h4q53 83 144.5 131.5t197.5 48.5q115 0 197.5 -57.5t121.5 -151.5t39 -213q0 -99 -21 -194.5t-64.5 -182t-105.5 -152t-149.5 -104.5t-189.5 -39q-111 0 -195.5 61t-116.5 167h-4l-127 -633h-135zM279 418
q0 -86 26.5 -159t87.5 -123t148 -50q96 0 173 53t122.5 137.5t69.5 180t24 190.5q0 138 -63 224.5t-191 86.5q-89 0 -166 -53t-126 -134.5t-77 -174.5t-28 -178z" />
    <glyph glyph-name="q" unicode="q" 
d="M655 -430l131 565h-4q-64 -81 -144.5 -120.5t-205.5 -39.5q-84 0 -152 34t-111 92t-66 134t-23 162q0 100 21.5 196.5t65.5 182.5t106 151.5t149.5 103.5t189.5 38q124 0 209 -65.5t107 -172.5h4q7 40 26 112.5t25 100.5h135q-19 -62 -57 -213l-270 -1261h-136zM221 397
q0 -139 63.5 -225t192.5 -86q92 0 170 49.5t127.5 128.5t77 173.5t27.5 189.5q0 87 -28.5 160.5t-90.5 122t-148 48.5q-77 0 -143 -35t-110.5 -92.5t-76.5 -131.5t-46.5 -150.5t-14.5 -151.5z" />
    <glyph glyph-name="r" unicode="r" horiz-adv-x="681" 
d="M57 0l176 858q22 107 29 186h129q-10 -114 -22 -157h4q118 182 291 182q30 0 112 -14l-31 -137q-40 16 -110 16q-247 0 -334 -420l-106 -514h-138z" />
    <glyph glyph-name="s" unicode="s" horiz-adv-x="796" 
d="M-29 33l39 129q125 -76 248 -76q51 0 99.5 10.5t94 33t73.5 65t28 100.5q0 46 -22.5 84t-59 65t-80.5 52t-88 52t-80.5 57.5t-59 74.5t-22.5 98q0 74 36.5 132t95 91.5t124 50.5t131.5 17q144 0 269 -51l-43 -121q-106 61 -232 61q-43 0 -82.5 -8t-78 -26t-62 -55.5
t-23.5 -88.5q0 -36 23 -67.5t60 -57t81.5 -51t89 -54.5t81.5 -62.5t60 -81t23 -103.5q0 -69 -24.5 -125t-65 -93.5t-95 -62.5t-113.5 -36t-122 -11q-162 0 -303 58z" />
    <glyph glyph-name="t" unicode="t" horiz-adv-x="681" 
d="M358 1044l50 234l147 51l-63 -285h272l-27 -110h-268l-111 -516q-30 -150 -30 -205q0 -61 30.5 -94t87.5 -33t111 29l-12 -111q-63 -29 -131 -29q-106 0 -167 54t-61 141q0 90 47 301l101 463h-209l29 110h204z" />
    <glyph glyph-name="u" unicode="u" 
d="M1092 1044l-181 -878q-20 -118 -24 -166h-129q10 115 22 158h-4q-54 -83 -144.5 -133t-187.5 -50q-145 0 -236 80t-91 224q0 74 30 215l117 550h135l-118 -575q-23 -112 -23 -182q0 -94 52 -147.5t149 -53.5q81 0 149 38t115 104.5t79.5 146t51.5 174.5l102 495h136z" />
    <glyph glyph-name="v" unicode="v" horiz-adv-x="909" 
d="M1012 1044l-584 -1044h-156l-139 1044h131l117 -903h4l481 903h146z" />
    <glyph glyph-name="w" unicode="w" horiz-adv-x="1593" 
d="M242 0l-109 1044h133l78 -903h4l492 903h153l101 -903h4l452 903h146l-543 -1044h-158l-106 903h-4l-490 -903h-153z" />
    <glyph glyph-name="x" unicode="x" horiz-adv-x="909" 
d="M-84 0l479 551l-235 493h141l182 -389l332 389h164l-434 -493l248 -551h-148l-190 442l-381 -442h-158z" />
    <glyph glyph-name="y" unicode="y" horiz-adv-x="909" 
d="M1008 1044l-723 -1290q-51 -97 -116 -146.5t-165 -49.5q-78 0 -125 28l31 111q29 -29 84 -29q63 0 114.5 47.5t84.5 116.5l88 166l-148 1046h135l107 -899h4l489 899h140z" />
    <glyph glyph-name="z" unicode="z" horiz-adv-x="909" 
d="M-41 0l25 119l778 815h-592l25 110h763l-24 -120l-789 -813h627l-20 -111h-793z" />
    <glyph glyph-name="braceleft" unicode="{" horiz-adv-x="569" 
d="M799 1548l-21 -98h-67q-117 0 -156 -190l-70 -338q-14 -70 -45.5 -126.5t-68 -89t-66 -50.5t-51.5 -23v-4q40 -11 80.5 -62t40.5 -143q0 -33 -10 -88l-68 -332q-12 -56 -12 -100q0 -43 15.5 -67.5t45.5 -24.5h94l-20 -99h-103q-71 0 -116 45t-45 125q0 51 6 80l71 348
q13 60 13 103q0 168 -127 168l20 98q87 0 145 76.5t85 199.5l69 344q24 115 96.5 181.5t163.5 66.5h101z" />
    <glyph glyph-name="bar" unicode="|" horiz-adv-x="454" 
d="M207 1536h141v-2048h-141v2048z" />
    <glyph glyph-name="braceright" unicode="}" horiz-adv-x="569" 
d="M-125 -287l21 99h67q117 0 156 190l69 338q14 70 45.5 126.5t68 89t66.5 50.5t52 23v4q-40 11 -80.5 62t-40.5 143q0 33 10 88l68 331q12 55 12 101q0 43 -15.5 67.5t-45.5 24.5h-95l21 98h102q71 0 116.5 -45t45.5 -125q0 -51 -6 -80l-72 -348q-12 -56 -12 -102
q0 -168 127 -168l-20 -98q-87 0 -145 -76.5t-85 -200.5l-69 -344q-24 -115 -97 -181.5t-164 -66.5h-100z" />
    <glyph glyph-name="asciitilde" unicode="~" horiz-adv-x="1228" 
d="M1014 664l73 -105q-97 -186 -256 -186q-85 0 -233 76q-6 3 -25.5 12l-26 12t-23 11t-24.5 11t-22 8.5t-22.5 8t-20 5.5t-21 4t-18.5 1q-29 0 -55 -11.5t-49 -36t-38.5 -45.5t-37.5 -56l-74 104q98 187 256 187q82 0 234 -74q55 -27 79 -38.5t61.5 -24.5t62.5 -13
q29 0 55 12t49 36.5t38.5 45.5t37.5 56z" />
    <glyph glyph-name="uni00A0" unicode="&#xa0;" horiz-adv-x="569" 
 />
    <glyph glyph-name="exclamdown" unicode="&#xa1;" horiz-adv-x="796" 
d="M113 -385l254 1083h122l-204 -1083h-172zM588 1044l-35 -172h-168l37 172h166z" />
    <glyph glyph-name="cent" unicode="&#xa2;" 
d="M508 115l264 843h-10q-144 0 -249 -66t-156.5 -177t-51.5 -252q0 -120 55 -213t148 -135zM877 1290h84l-72 -231q91 -9 151 -31l-36 -117q-50 26 -150 39l-270 -858q24 -6 59 -6q80 0 221 49l-16 -129q-95 -31 -238 -31q-11 0 -61 5l-82 -261h-84l88 277
q-147 47 -227 177t-80 280q0 284 158 450t454 166q21 0 31 -2z" />
    <glyph glyph-name="sterling" unicode="&#xa3;" 
d="M41 0l27 123h206l125 588h-184l23 110h182l26 115q20 93 45 164t66.5 138t95.5 110.5t133 69.5t179 26q61 0 137.5 -14.5t118.5 -38.5l-41 -119q-98 49 -219 49q-74 0 -132.5 -22t-96.5 -57t-68 -90t-47 -108t-33 -124l-23 -99h350l-22 -110h-346l-125 -588h516l-27 -123
h-866z" />
    <glyph glyph-name="currency" unicode="&#xa4;" 
d="M96 291l115 117q-107 131 -107 307q0 190 107 311l-115 113l92 92l115 -117q62 53 143.5 81t165.5 28q184 0 308 -109l114 117l94 -92l-112 -113q104 -118 104 -311q0 -183 -104 -307l112 -117l-94 -92l-114 120q-115 -112 -308 -112q-188 0 -309 112l-115 -120zM246 715
q0 -157 107 -271t259 -114q103 0 188.5 55t132 143t46.5 187q0 154 -106.5 270t-260.5 115q-153 1 -259.5 -113.5t-106.5 -271.5z" />
    <glyph glyph-name="yen" unicode="&#xa5;" 
d="M387 0l76 358h-281l23 99h278l37 166h-295l25 98h225l-285 709h142l274 -709l584 709h162l-604 -709h251l-28 -98h-314l-36 -166h321l-22 -99h-322l-80 -358h-131z" />
    <glyph glyph-name="brokenbar" unicode="&#xa6;" horiz-adv-x="454" 
d="M207 1382h141v-716h-141v716zM207 358h141v-716h-141v716z" />
    <glyph glyph-name="section" unicode="&#xa7;" 
d="M1071 1380l-47 -108q-71 35 -131 53t-133 18q-124 0 -195 -51.5t-71 -154.5q0 -45 27 -81t70 -61t95 -48.5t103.5 -49.5t94.5 -57t70 -78.5t27 -106.5q0 -53 -23.5 -105.5t-63.5 -95.5t-81.5 -76.5t-89.5 -62.5q129 -78 129 -231q0 -99 -64 -176t-160 -115.5t-202 -38.5
q-119 0 -186.5 17.5t-184.5 66.5l39 121q150 -94 316 -94q59 0 111 12t95.5 36.5t69 67.5t25.5 101q0 48 -21.5 86t-56.5 61.5t-80 46t-92 40.5t-92 45t-80 58t-56.5 80.5t-21.5 112.5q0 58 23 110t63 91t87.5 68t102.5 49q-65 34 -100 92t-35 131q0 141 112 221t281 80
q74 0 167 -20t159 -54zM852 641q0 37 -21.5 69t-58 56t-73.5 42.5t-79 39t-63 35.5q-14 -10 -47.5 -32.5t-51 -35t-43.5 -36t-40 -44t-24.5 -49t-10.5 -59.5q0 -44 18.5 -79.5t55 -62.5t69 -44.5t83 -41t75.5 -37.5q211 157 211 279z" />
    <glyph glyph-name="dieresis" unicode="&#xa8;" horiz-adv-x="454" 
d="M102 1241l33 172h158l-33 -172h-158zM461 1241l33 172h157l-33 -172h-157z" />
    <glyph glyph-name="copyright" unicode="&#xa9;" horiz-adv-x="1638" 
d="M268 715q0 -175 77.5 -319t215.5 -227t307 -83q167 0 304 83t214.5 227t77.5 319t-77.5 319t-214.5 226.5t-304 82.5q-127 0 -238.5 -48.5t-191 -132.5t-125 -200t-45.5 -247zM1133 573h124q-31 -147 -129.5 -233t-234.5 -86q-198 0 -320 131t-122 330q0 204 118 333.5
t318 129.5q144 0 245.5 -81t122.5 -229h-122q-19 91 -84 145t-160 54q-141 0 -219 -96.5t-78 -253.5q0 -147 83 -249.5t218 -102.5q96 0 160.5 56.5t79.5 151.5zM127 715q0 150 58.5 287t157.5 236t236 157.5t287 58.5t287 -58.5t236.5 -157.5t158 -236t58.5 -287
t-58.5 -287t-158 -236.5t-236.5 -158t-287 -58.5t-287 58.5t-236 158t-157.5 236.5t-58.5 287z" />
    <glyph glyph-name="ordfeminine" unicode="&#xaa;" horiz-adv-x="665" 
d="M283 1303l10 98q113 53 205 53q107 0 173 -54.5t66 -156.5q0 -43 -61 -274q-8 -26 -25 -158h-92q7 79 14 94h-4q-80 -110 -231 -110q-83 0 -145 51t-62 133q0 229 406 229h92q4 0 4 37q0 60 -41 91.5t-109 31.5q-36 0 -73 -10t-61 -21.5t-66 -33.5zM236 981q0 -44 39 -72
t92 -28q57 0 102.5 21t74 56.5t46 76t24.5 87.5h-82q-296 0 -296 -141z" />
    <glyph glyph-name="guillemotleft" unicode="&#xab;" horiz-adv-x="1024" 
d="M754 131l-314 420l389 420h148l-402 -420l314 -420h-135zM379 131l-313 420l389 420h147l-401 -420l313 -420h-135z" />
    <glyph glyph-name="logicalnot" unicode="&#xac;" horiz-adv-x="1228" 
d="M125 653v142h1038v-562h-141v420h-897z" />
    <glyph glyph-name="uni00AD" unicode="&#xad;" horiz-adv-x="681" 
d="M80 481l22 142h523l-23 -142h-522z" />
    <glyph glyph-name="registered" unicode="&#xae;" horiz-adv-x="1638" 
d="M127 715q0 150 58.5 287t157.5 236t236 157.5t287 58.5t287 -58.5t236.5 -157.5t158 -236t58.5 -287t-58.5 -287t-158 -236.5t-236.5 -158t-287 -58.5t-287 58.5t-236 158t-157.5 236.5t-58.5 287zM268 715q0 -175 77.5 -319t215.5 -227t307 -83q167 0 304 83t214.5 227
t77.5 319t-77.5 319t-214.5 226.5t-304 82.5q-127 0 -238.5 -48.5t-191 -132.5t-125 -200t-45.5 -247zM584 283v866h331q297 0 297 -244q0 -105 -61.5 -172t-161.5 -67l246 -383h-150l-241 383h-119v-383h-141zM725 1038v-262h168q90 0 134 28t44 107q0 68 -50.5 97.5
t-127.5 29.5h-168z" />
    <glyph glyph-name="macron" unicode="&#xaf;" horiz-adv-x="454" 
d="M635 1384l-23 -110h-526l23 110h526z" />
    <glyph glyph-name="degree" unicode="&#xb0;" horiz-adv-x="819" 
d="M532 1346q-96 0 -157.5 -56t-61.5 -151q0 -86 66 -146.5t153 -60.5t153.5 60.5t66.5 146.5q0 95 -62 151t-158 56zM532 1444q134 0 229 -86.5t95 -218.5t-95 -218.5t-229 -86.5q-133 0 -228 86.5t-95 218.5t95 218.5t228 86.5z" />
    <glyph glyph-name="plusminus" unicode="&#xb1;" horiz-adv-x="1228" 
d="M125 551v141h448v346h142v-346h448v-141h-448v-346h-142v346h-448zM125 0v141h1038v-141h-1038z" />
    <glyph glyph-name="twosuperior" unicode="&#xb2;" horiz-adv-x="739" 
d="M90 582l23 73l321 263q37 30 47.5 38.5t50.5 43t59 55.5t45.5 53t38 59.5t11.5 51.5q0 66 -48 96.5t-114 30.5q-123 0 -233 -78l6 108q123 68 240 68q112 0 189 -56.5t77 -168.5q0 -139 -234 -320l-276 -215v-4h383l-19 -98h-567z" />
    <glyph glyph-name="threesuperior" unicode="&#xb3;" horiz-adv-x="739" 
d="M250 975l20 98q369 0 369 154q0 55 -61.5 87t-128.5 32q-121 0 -228 -52l10 109q89 41 220 41q44 0 83.5 -5.5t81 -20t71.5 -38t49.5 -63t19.5 -90.5q0 -90 -74.5 -139t-179.5 -56v-4q77 -10 121.5 -62.5t44.5 -129.5q0 -69 -38.5 -123.5t-99.5 -85t-126.5 -45.5
t-129.5 -15q-123 0 -245 35l24 103q88 -39 223 -39q43 0 89 10.5t88.5 31t70 55.5t27.5 79q0 28 -10.5 49.5t-25 35.5t-41 23.5t-46.5 14.5t-55.5 7.5t-54 2.5h-54.5h-14z" />
    <glyph glyph-name="acute" unicode="&#xb4;" horiz-adv-x="454" 
d="M244 1184l174 295h162l-240 -295h-96z" />
    <glyph glyph-name="mu" unicode="&#xb5;" 
d="M-59 -430l323 1474h135l-118 -575q-23 -112 -23 -182q0 -94 52 -147.5t149 -53.5q81 0 149 38t115 104.5t79.5 146t51.5 174.5l102 495h136l-181 -878q-20 -118 -24 -166h-129q10 115 22 158h-4q-54 -83 -144.5 -133t-187.5 -50q-180 0 -260 103l-108 -508h-135z" />
    <glyph glyph-name="paragraph" unicode="&#xb6;" horiz-adv-x="1228" 
d="M401 -221l179 876q-106 0 -197.5 44t-148 128t-56.5 189q0 85 32.5 159t93.5 131.5t158 90.5t218 33h590l-338 -1651h-129l315 1540h-272l-316 -1540h-129z" />
    <glyph glyph-name="periodcentered" unicode="&#xb7;" horiz-adv-x="569" 
d="M227 635q0 41 30 70.5t71 29.5t71.5 -29.5t30.5 -70.5t-30.5 -72t-71.5 -31t-71 31t-30 72z" />
    <glyph glyph-name="cedilla" unicode="&#xb8;" horiz-adv-x="454" 
d="M-31 -324l15 64q78 -57 180 -57q44 0 77 22.5t33 71.5q0 35 -24.5 54t-56.5 19q-52 0 -84 -14l77 164h66l-49 -96v-4q22 12 65 12q60 0 97.5 -33.5t37.5 -95.5q0 -44 -20.5 -77t-55 -50.5t-72 -26t-77.5 -8.5q-64 0 -110 14t-99 41z" />
    <glyph glyph-name="onesuperior" unicode="&#xb9;" horiz-adv-x="739" 
d="M340 582l174 749l-176 -114l-43 69l250 158h108l-196 -862h-117z" />
    <glyph glyph-name="ordmasculine" unicode="&#xba;" horiz-adv-x="739" 
d="M164 1073q0 154 111 267.5t278 113.5q128 0 205.5 -76.5t77.5 -193.5q0 -100 -47.5 -188.5t-138 -144.5t-204.5 -56q-123 0 -202.5 81.5t-79.5 196.5zM268 1061q0 -74 52.5 -127t138.5 -53q62 0 115 28.5t86.5 73t52 97t18.5 102.5q0 82 -47.5 134t-140.5 52
q-67 0 -121.5 -28t-87 -73t-49.5 -98t-17 -108z" />
    <glyph glyph-name="guillemotright" unicode="&#xbb;" horiz-adv-x="1024" 
d="M270 971l314 -420l-389 -420h-148l402 420l-314 420h135zM645 971l313 -420l-389 -420h-147l401 420l-313 420h135z" />
    <glyph glyph-name="onequarter" unicode="&#xbc;" horiz-adv-x="1708" 
d="M1253 0l43 186h-460l14 93l559 583h162l-135 -577h106l-20 -99h-107l-45 -186h-117zM1323 285l109 465h-5l-442 -465h338zM256 -45l911 1520h117l-911 -1520h-117zM246 582l174 749l-176 -114l-43 69l250 158h108l-197 -862h-116z" />
    <glyph glyph-name="onehalf" unicode="&#xbd;" horiz-adv-x="1708" 
d="M211 -45l911 1520h117l-911 -1520h-117zM279 582l174 749l-177 -114l-43 69l250 158h109l-197 -862h-116zM874 0l23 74l322 262q40 33 58 47.5t62 55t67 68t43.5 64.5t20.5 66q0 66 -47.5 96.5t-113.5 30.5q-124 0 -234 -78l6 109q121 67 240 67q112 0 189 -56.5
t77 -168.5q0 -139 -233 -320l-277 -215v-4h383l-18 -98h-568z" />
    <glyph glyph-name="threequarters" unicode="&#xbe;" horiz-adv-x="1708" 
d="M1335 0l43 186h-460l14 93l559 583h162l-135 -577h106l-20 -99h-107l-45 -186h-117zM1405 285l108 465h-4l-442 -465h338zM420 -45l911 1520h117l-911 -1520h-117zM276 975l21 98q369 0 369 154q0 37 -32.5 65.5t-75 41t-83.5 12.5q-120 0 -227 -52l10 109q89 41 219 41
q44 0 83.5 -5.5t81 -20t71.5 -38t49.5 -63t19.5 -90.5q0 -90 -74.5 -139t-179.5 -56v-4q77 -10 121.5 -62.5t44.5 -129.5q0 -56 -25.5 -102.5t-66.5 -76.5t-93.5 -51t-105 -30t-102.5 -9q-124 0 -246 35l25 103q88 -39 223 -39q43 0 89 10.5t88.5 31t70 55.5t27.5 79
q0 32 -12 56t-37.5 38t-48.5 22.5t-63.5 12t-62.5 4t-64 0.5h-14z" />
    <glyph glyph-name="questiondown" unicode="&#xbf;" horiz-adv-x="1024" 
d="M729 -233l-22 -132q-160 -45 -252 -45q-79 0 -147.5 19.5t-123.5 58.5t-86.5 103.5t-31.5 148.5q0 59 18.5 111.5t55.5 99t71.5 80t87.5 76.5q11 9 46 38t53 44.5t50 44.5t51 51.5t41 51.5t35 58t19 58l14 65h119l-16 -80q-10 -48 -33 -95t-49.5 -83.5t-68 -78t-73 -68.5
t-77.5 -64q-41 -33 -62 -51t-53 -51.5t-47.5 -60.5t-28 -65.5t-12.5 -80.5q0 -54 25.5 -96t67 -65t87.5 -34.5t94 -11.5q56 0 126.5 15.5t121.5 38.5zM811 1044l-33 -172h-170l35 172h168z" />
    <glyph glyph-name="Agrave" unicode="&#xc0;" horiz-adv-x="1366" 
d="M1010 506l-150 782l-483 -782h633zM-86 0l887 1430h168l278 -1430h-143l-72 383h-731l-235 -383h-152zM838 1808l174 -295h-86l-250 295h162z" />
    <glyph glyph-name="Aacute" unicode="&#xc1;" horiz-adv-x="1366" 
d="M1010 506l-150 782l-483 -782h633zM-86 0l887 1430h168l278 -1430h-143l-72 383h-731l-235 -383h-152zM799 1513l174 295h162l-240 -295h-96z" />
    <glyph glyph-name="Acircumflex" unicode="&#xc2;" horiz-adv-x="1366" 
d="M1010 506l-150 782l-483 -782h633zM-86 0l887 1430h168l278 -1430h-143l-72 383h-731l-235 -383h-152zM621 1513l239 295h156l153 -295h-90l-147 209l-221 -209h-90z" />
    <glyph glyph-name="Atilde" unicode="&#xc3;" horiz-adv-x="1366" 
d="M1010 506l-150 782l-483 -782h633zM-86 0l887 1430h168l278 -1430h-143l-72 383h-731l-235 -383h-152zM1102 1749h74q0 -73 -48.5 -129.5t-119.5 -56.5q-38 0 -117 30q-77 29 -113 29q-34 0 -53.5 -21.5t-24.5 -54.5h-73q0 73 48.5 130t119.5 57q49 0 116 -29
q72 -31 113 -31q68 0 78 76z" />
    <glyph glyph-name="Adieresis" unicode="&#xc4;" horiz-adv-x="1366" 
d="M1010 506l-150 782l-483 -782h633zM-86 0l887 1430h168l278 -1430h-143l-72 383h-731l-235 -383h-152zM657 1571l33 172h158l-33 -172h-158zM1016 1571l33 172h157l-32 -172h-158z" />
    <glyph glyph-name="Aring" unicode="&#xc5;" horiz-adv-x="1366" 
d="M1010 506l-150 782l-483 -782h633zM-86 0l887 1430h168l278 -1430h-143l-72 383h-731l-235 -383h-152zM717 1675q0 83 61.5 143t143.5 60t142 -60.5t60 -142.5q0 -84 -59 -144.5t-143 -60.5q-83 0 -144 61t-61 144zM791 1675q0 -55 36 -93t95 -38q57 0 93 38.5t36 92.5
q0 55 -36 92t-93 37q-59 0 -95 -36.5t-36 -92.5z" />
    <glyph glyph-name="AE" unicode="&#xc6;" horiz-adv-x="1820" 
d="M-86 0l1081 1430h877l-25 -123h-626l-58 -510h541l-27 -123h-528l-72 -551h543l-29 -123h-669l49 383h-600l-293 -383h-164zM985 506l102 813h-4l-622 -813h524z" />
    <glyph glyph-name="Ccedilla" unicode="&#xc7;" horiz-adv-x="1251" 
d="M1386 1380l-49 -118q-130 69 -344 69q-204 0 -364.5 -96t-248 -262.5t-87.5 -372.5q0 -138 66.5 -253t186 -182t267.5 -67q51 0 90 2t72.5 8t49 10t49 14t44.5 13l-16 -125q-4 -1 -34.5 -10t-46.5 -13t-48.5 -10.5t-69.5 -9t-80 -2.5q-37 0 -84 7l-39 -78v-4q22 12 66 12
q60 0 97.5 -33.5t37.5 -95.5q0 -44 -20.5 -77t-55 -50.5t-72 -26t-77.5 -8.5q-64 0 -110 14t-99 41l14 64q78 -57 181 -57q44 0 77 22.5t33 71.5q0 35 -25 54t-57 19q-52 0 -84 -14l74 156q-233 39 -380.5 202.5t-147.5 407.5q0 185 63.5 343.5t175.5 270t269.5 175
t340.5 63.5q118 0 208 -17t177 -57z" />
    <glyph glyph-name="Egrave" unicode="&#xc8;" horiz-adv-x="1024" 
d="M76 0l295 1430h704l-22 -123h-568l-104 -510h534l-22 -123h-537l-114 -551h587l-20 -123h-733zM666 1808l174 -295h-86l-250 295h162z" />
    <glyph glyph-name="Eacute" unicode="&#xc9;" horiz-adv-x="1024" 
d="M76 0l295 1430h704l-22 -123h-568l-104 -510h534l-22 -123h-537l-114 -551h587l-20 -123h-733zM627 1513l174 295h162l-240 -295h-96z" />
    <glyph glyph-name="Ecircumflex" unicode="&#xca;" horiz-adv-x="1024" 
d="M76 0l295 1430h704l-22 -123h-568l-104 -510h534l-22 -123h-537l-114 -551h587l-20 -123h-733zM449 1513l239 295h156l153 -295h-90l-147 209l-221 -209h-90z" />
    <glyph glyph-name="Edieresis" unicode="&#xcb;" horiz-adv-x="1024" 
d="M76 0l295 1430h704l-22 -123h-568l-104 -510h534l-22 -123h-537l-114 -551h587l-20 -123h-733zM485 1571l33 172h158l-33 -172h-158zM844 1571l33 172h157l-33 -172h-157z" />
    <glyph glyph-name="Igrave" unicode="&#xcc;" horiz-adv-x="454" 
d="M57 0l303 1430h142l-303 -1430h-142zM381 1808l174 -295h-86l-250 295h162z" />
    <glyph glyph-name="Iacute" unicode="&#xcd;" horiz-adv-x="454" 
d="M57 0l303 1430h142l-303 -1430h-142zM342 1513l174 295h162l-240 -295h-96z" />
    <glyph glyph-name="Icircumflex" unicode="&#xce;" horiz-adv-x="454" 
d="M57 0l303 1430h142l-303 -1430h-142zM164 1513l239 295h156l154 -295h-90l-148 209l-221 -209h-90z" />
    <glyph glyph-name="Idieresis" unicode="&#xcf;" horiz-adv-x="454" 
d="M57 0l303 1430h142l-303 -1430h-142zM201 1571l32 172h158l-33 -172h-157zM559 1571l33 172h158l-33 -172h-158z" />
    <glyph glyph-name="Eth" unicode="&#xd0;" horiz-adv-x="1366" 
d="M76 0l143 674h-137l24 123h140l133 633h254q119 0 219.5 -17.5t190 -59.5t151 -107t97.5 -164t36 -226q0 -256 -95 -448t-281 -300t-443 -108h-432zM498 1307l-109 -510h397l-28 -123h-396l-118 -551h252q324 0 507 193.5t183 539.5q0 230 -135 340.5t-375 110.5h-178z
" />
    <glyph glyph-name="Ntilde" unicode="&#xd1;" horiz-adv-x="1366" 
d="M57 0l310 1430h168l477 -1258h4l266 1258h129l-303 -1430h-168l-477 1257h-4l-271 -1257h-131zM1102 1749h74q0 -73 -48.5 -129.5t-119.5 -56.5q-38 0 -117 30q-77 29 -113 29q-34 0 -53.5 -21.5t-24.5 -54.5h-73q0 73 48.5 130t119.5 57q49 0 116 -29q72 -31 113 -31
q68 0 78 76z" />
    <glyph glyph-name="Ograve" unicode="&#xd2;" horiz-adv-x="1478" 
d="M137 559q0 136 33 267t98.5 244t155.5 199t212 135.5t261 49.5q259 0 400 -158.5t141 -425.5q0 -136 -33 -267t-98.5 -244t-155.5 -199t-212 -135.5t-261 -49.5q-259 0 -400 158.5t-141 425.5zM279 571q0 -136 43 -241t135.5 -168.5t224.5 -63.5q111 0 210.5 45
t171.5 121t125.5 174t80 206t26.5 214q0 136 -43 241t-135.5 168.5t-224.5 63.5q-111 0 -210.5 -45t-171.5 -121t-125.5 -174t-80 -206t-26.5 -214zM893 1827l174 -295h-86l-250 295h162z" />
    <glyph glyph-name="Oacute" unicode="&#xd3;" horiz-adv-x="1478" 
d="M137 559q0 136 33 267t98.5 244t155.5 199t212 135.5t261 49.5q259 0 400 -158.5t141 -425.5q0 -136 -33 -267t-98.5 -244t-155.5 -199t-212 -135.5t-261 -49.5q-259 0 -400 158.5t-141 425.5zM279 571q0 -136 43 -241t135.5 -168.5t224.5 -63.5q111 0 210.5 45
t171.5 121t125.5 174t80 206t26.5 214q0 136 -43 241t-135.5 168.5t-224.5 63.5q-111 0 -210.5 -45t-171.5 -121t-125.5 -174t-80 -206t-26.5 -214zM854 1532l174 295h162l-240 -295h-96z" />
    <glyph glyph-name="Ocircumflex" unicode="&#xd4;" horiz-adv-x="1478" 
d="M137 559q0 136 33 267t98.5 244t155.5 199t212 135.5t261 49.5q259 0 400 -158.5t141 -425.5q0 -136 -33 -267t-98.5 -244t-155.5 -199t-212 -135.5t-261 -49.5q-259 0 -400 158.5t-141 425.5zM279 571q0 -136 43 -241t135.5 -168.5t224.5 -63.5q111 0 210.5 45
t171.5 121t125.5 174t80 206t26.5 214q0 136 -43 241t-135.5 168.5t-224.5 63.5q-111 0 -210.5 -45t-171.5 -121t-125.5 -174t-80 -206t-26.5 -214zM676 1532l239 295h156l154 -295h-90l-148 209l-221 -209h-90z" />
    <glyph glyph-name="Otilde" unicode="&#xd5;" horiz-adv-x="1478" 
d="M137 559q0 136 33 267t98.5 244t155.5 199t212 135.5t261 49.5q259 0 400 -158.5t141 -425.5q0 -136 -33 -267t-98.5 -244t-155.5 -199t-212 -135.5t-261 -49.5q-259 0 -400 158.5t-141 425.5zM279 571q0 -136 43 -241t135.5 -168.5t224.5 -63.5q111 0 210.5 45
t171.5 121t125.5 174t80 206t26.5 214q0 136 -43 241t-135.5 168.5t-224.5 63.5q-111 0 -210.5 -45t-171.5 -121t-125.5 -174t-80 -206t-26.5 -214zM1157 1767h74q0 -73 -48.5 -129.5t-119.5 -56.5q-35 0 -117 31q-74 28 -112 28q-66 0 -78 -75h-74q0 73 48.5 129.5
t119.5 56.5q50 0 117 -29q69 -30 112 -30q68 0 78 75z" />
    <glyph glyph-name="Odieresis" unicode="&#xd6;" horiz-adv-x="1478" 
d="M137 559q0 136 33 267t98.5 244t155.5 199t212 135.5t261 49.5q259 0 400 -158.5t141 -425.5q0 -136 -33 -267t-98.5 -244t-155.5 -199t-212 -135.5t-261 -49.5q-259 0 -400 158.5t-141 425.5zM279 571q0 -136 43 -241t135.5 -168.5t224.5 -63.5q111 0 210.5 45
t171.5 121t125.5 174t80 206t26.5 214q0 136 -43 241t-135.5 168.5t-224.5 63.5q-111 0 -210.5 -45t-171.5 -121t-125.5 -174t-80 -206t-26.5 -214zM713 1589l32 172h158l-33 -172h-157zM1071 1589l33 172h158l-33 -172h-158z" />
    <glyph glyph-name="multiply" unicode="&#xd7;" horiz-adv-x="1228" 
d="M547 526l-371 369l100 100l371 -370l367 370l102 -100l-368 -369l368 -370l-102 -103l-367 373l-371 -373l-100 103z" />
    <glyph glyph-name="Oslash" unicode="&#xd8;" horiz-adv-x="1478" 
d="M330 319l868 871q-109 141 -305 141q-111 0 -210.5 -45t-171.5 -121t-125.5 -174t-80 -206t-26.5 -214q0 -150 51 -252zM1245 1110l-868 -870q107 -142 305 -142q111 0 210.5 45t171.5 121t125.5 174t80 206t26.5 214q0 144 -51 252zM1466 1458l68 -59l-180 -180
q84 -141 84 -349q0 -136 -33 -267t-98.5 -244t-155.5 -199t-212 -135.5t-261 -49.5q-258 0 -404 162l-165 -166l-68 60l180 180q-84 141 -84 348q0 136 33 267t98.5 244t155.5 199t212 135.5t261 49.5q257 0 403 -162z" />
    <glyph glyph-name="Ugrave" unicode="&#xd9;" horiz-adv-x="1366" 
d="M1407 1430l-190 -885q-41 -260 -189.5 -415t-388.5 -155q-210 0 -340.5 118.5t-130.5 332.5q0 137 82 489l112 515h136l-146 -697q-43 -226 -43 -301q0 -156 87.5 -245t240.5 -89q174 0 283.5 110.5t148.5 289.5l207 932h131zM838 1808l174 -295h-86l-250 295h162z" />
    <glyph glyph-name="Uacute" unicode="&#xda;" horiz-adv-x="1366" 
d="M1407 1430l-190 -885q-41 -260 -189.5 -415t-388.5 -155q-210 0 -340.5 118.5t-130.5 332.5q0 137 82 489l112 515h136l-146 -697q-43 -226 -43 -301q0 -156 87.5 -245t240.5 -89q174 0 283.5 110.5t148.5 289.5l207 932h131zM799 1513l174 295h162l-240 -295h-96z" />
    <glyph glyph-name="Ucircumflex" unicode="&#xdb;" horiz-adv-x="1366" 
d="M1407 1430l-190 -885q-41 -260 -189.5 -415t-388.5 -155q-210 0 -340.5 118.5t-130.5 332.5q0 137 82 489l112 515h136l-146 -697q-43 -226 -43 -301q0 -156 87.5 -245t240.5 -89q174 0 283.5 110.5t148.5 289.5l207 932h131zM621 1513l239 295h156l153 -295h-90
l-147 209l-221 -209h-90z" />
    <glyph glyph-name="Udieresis" unicode="&#xdc;" horiz-adv-x="1366" 
d="M1407 1430l-190 -885q-41 -260 -189.5 -415t-388.5 -155q-210 0 -340.5 118.5t-130.5 332.5q0 137 82 489l112 515h136l-146 -697q-43 -226 -43 -301q0 -156 87.5 -245t240.5 -89q174 0 283.5 110.5t148.5 289.5l207 932h131zM621 1571l32 172h158l-33 -172h-157z
M979 1571l33 172h157l-32 -172h-158z" />
    <glyph glyph-name="Yacute" unicode="&#xdd;" horiz-adv-x="1251" 
d="M451 0l129 604l-363 826h150l301 -709l602 709h170l-723 -826l-129 -604h-137zM741 1513l174 295h162l-239 -295h-97z" />
    <glyph glyph-name="Thorn" unicode="&#xde;" horiz-adv-x="1024" 
d="M442 1040l-120 -565h159q68 0 128.5 10.5t116 35.5t95.5 62t64 94t24 128q0 57 -17.5 100t-46 68t-71 40.5t-85.5 21t-97 5.5h-150zM76 0l307 1430h141l-57 -267h102q86 0 153 -8t131 -31.5t105.5 -62.5t67 -103.5t25.5 -152.5q0 -111 -47 -199.5t-126 -142.5t-177 -82.5
t-205 -28.5h-203l-76 -352h-141z" />
    <glyph glyph-name="germandbls" unicode="&#xdf;" 
d="M559 752l19 110q82 0 153.5 20.5t128 60.5t89 105.5t32.5 149.5q0 116 -61 184t-172 68q-54 0 -101.5 -23t-81 -59.5t-61 -86t-44.5 -98.5t-28 -102l-227 -1081h-135l219 1042q59 278 167 398.5t300 120.5q168 0 267 -91t99 -262q0 -158 -103.5 -271t-260.5 -122v-4
q135 -15 210.5 -99.5t75.5 -213.5q0 -232 -135 -372t-356 -140q-141 0 -225 34l37 121q74 -45 184 -45q164 0 259 109t95 274q0 273 -344 273z" />
    <glyph glyph-name="agrave" unicode="&#xe0;" horiz-adv-x="1024" 
d="M893 530l-55 -282q-32 -130 -39 -248h-129q14 126 20 154h-4q-64 -96 -150.5 -137.5t-205.5 -41.5q-124 0 -211.5 83t-87.5 210q0 74 26 133t73 98.5t104.5 67.5t128 42.5t135 21t133.5 6.5q59 0 141 -8q6 46 6 104q0 107 -58 166t-165 59q-129 0 -309 -90l14 131
q167 70 315 70q168 0 256.5 -88t88.5 -252q0 -76 -27 -199zM172 270q0 -85 60 -134.5t143 -49.5q70 0 129.5 24.5t101 65.5t73 98t50 118.5t27.5 129.5q-22 0 -64 2t-63 2q-457 0 -457 -256zM567 1479l174 -295h-86l-249 295h161z" />
    <glyph glyph-name="aacute" unicode="&#xe1;" horiz-adv-x="1024" 
d="M893 530l-55 -282q-32 -130 -39 -248h-129q14 126 20 154h-4q-64 -96 -150.5 -137.5t-205.5 -41.5q-124 0 -211.5 83t-87.5 210q0 74 26 133t73 98.5t104.5 67.5t128 42.5t135 21t133.5 6.5q59 0 141 -8q6 46 6 104q0 107 -58 166t-165 59q-129 0 -309 -90l14 131
q167 70 315 70q168 0 256.5 -88t88.5 -252q0 -76 -27 -199zM172 270q0 -85 60 -134.5t143 -49.5q70 0 129.5 24.5t101 65.5t73 98t50 118.5t27.5 129.5q-22 0 -64 2t-63 2q-457 0 -457 -256zM528 1184l174 295h162l-239 -295h-97z" />
    <glyph glyph-name="acircumflex" unicode="&#xe2;" horiz-adv-x="1024" 
d="M893 530l-55 -282q-32 -130 -39 -248h-129q14 126 20 154h-4q-64 -96 -150.5 -137.5t-205.5 -41.5q-124 0 -211.5 83t-87.5 210q0 74 26 133t73 98.5t104.5 67.5t128 42.5t135 21t133.5 6.5q59 0 141 -8q6 46 6 104q0 107 -58 166t-165 59q-129 0 -309 -90l14 131
q167 70 315 70q168 0 256.5 -88t88.5 -252q0 -76 -27 -199zM172 270q0 -85 60 -134.5t143 -49.5q70 0 129.5 24.5t101 65.5t73 98t50 118.5t27.5 129.5q-22 0 -64 2t-63 2q-457 0 -457 -256zM350 1184l240 295h155l154 -295h-90l-147 209l-222 -209h-90z" />
    <glyph glyph-name="atilde" unicode="&#xe3;" horiz-adv-x="1024" 
d="M893 530l-55 -282q-32 -130 -39 -248h-129q14 126 20 154h-4q-64 -96 -150.5 -137.5t-205.5 -41.5q-124 0 -211.5 83t-87.5 210q0 74 26 133t73 98.5t104.5 67.5t128 42.5t135 21t133.5 6.5q59 0 141 -8q6 46 6 104q0 107 -58 166t-165 59q-129 0 -309 -90l14 131
q167 70 315 70q168 0 256.5 -88t88.5 -252q0 -76 -27 -199zM172 270q0 -85 60 -134.5t143 -49.5q70 0 129.5 24.5t101 65.5t73 98t50 118.5t27.5 129.5q-22 0 -64 2t-63 2q-457 0 -457 -256zM831 1419h74q0 -73 -48.5 -129.5t-119.5 -56.5q-34 0 -116 31q-74 28 -113 28
q-66 0 -78 -75h-74q0 73 48.5 129.5t119.5 56.5q50 0 117 -29q72 -31 113 -31q67 0 77 76z" />
    <glyph glyph-name="adieresis" unicode="&#xe4;" horiz-adv-x="1024" 
d="M893 530l-55 -282q-32 -130 -39 -248h-129q14 126 20 154h-4q-64 -96 -150.5 -137.5t-205.5 -41.5q-124 0 -211.5 83t-87.5 210q0 74 26 133t73 98.5t104.5 67.5t128 42.5t135 21t133.5 6.5q59 0 141 -8q6 46 6 104q0 107 -58 166t-165 59q-129 0 -309 -90l14 131
q167 70 315 70q168 0 256.5 -88t88.5 -252q0 -76 -27 -199zM172 270q0 -85 60 -134.5t143 -49.5q70 0 129.5 24.5t101 65.5t73 98t50 118.5t27.5 129.5q-22 0 -64 2t-63 2q-457 0 -457 -256zM745 1241l33 172h158l-33 -172h-158zM387 1241l33 172h158l-33 -172h-158z" />
    <glyph glyph-name="aring" unicode="&#xe5;" horiz-adv-x="1024" 
d="M893 530l-55 -282q-32 -130 -39 -248h-129q14 126 20 154h-4q-64 -96 -150.5 -137.5t-205.5 -41.5q-124 0 -211.5 83t-87.5 210q0 74 26 133t73 98.5t104.5 67.5t128 42.5t135 21t133.5 6.5q59 0 141 -8q6 46 6 104q0 107 -58 166t-165 59q-129 0 -309 -90l14 131
q167 70 315 70q168 0 256.5 -88t88.5 -252q0 -76 -27 -199zM172 270q0 -85 60 -134.5t143 -49.5q70 0 129.5 24.5t101 65.5t73 98t50 118.5t27.5 129.5q-22 0 -64 2t-63 2q-457 0 -457 -256zM385 1352q0 83 61.5 142.5t143.5 59.5t142.5 -60t60.5 -142q0 -84 -59.5 -144.5
t-143.5 -60.5q-83 0 -144 61t-61 144zM459 1352q0 -55 36 -93t95 -38q57 0 93 38.5t36 92.5q0 55 -36 92t-93 37q-59 0 -95 -36.5t-36 -92.5z" />
    <glyph glyph-name="ae" unicode="&#xe6;" horiz-adv-x="1593" 
d="M1552 485h-702q-8 -50 -8 -92q0 -57 17.5 -110.5t51.5 -98t90.5 -71.5t128.5 -27q131 0 261 53l-13 -123q-65 -23 -113.5 -32t-115.5 -9q-342 0 -408 275h-4q-34 -137 -135 -206t-244 -69q-138 0 -238 75.5t-100 201.5q0 162 138.5 253t406.5 91h166q6 99 6 104
q6 121 -49 189.5t-160 68.5q-125 0 -278 -86l18 134q145 63 289 63q111 0 191 -50.5t100 -158.5h6q49 102 148.5 155.5t214.5 53.5q177 0 264.5 -93.5t87.5 -264.5q0 -39 -2 -75.5t-4 -57t-6 -51t-5 -42.5zM162 268q0 -85 59 -133.5t141 -48.5q66 0 121 22.5t93 59.5t67 89
t46 108t26 120h-97q-52 0 -100 -3.5t-102 -12t-97.5 -25t-80 -39.5t-56.5 -58t-20 -79zM868 596h562q10 52 10 113q0 249 -223 249q-79 0 -142 -29t-103.5 -80.5t-66 -114t-37.5 -138.5z" />
    <glyph glyph-name="ccedilla" unicode="&#xe7;" horiz-adv-x="909" 
d="M956 1028l-36 -117q-31 16 -107 31.5t-135 15.5q-144 0 -249 -66t-156.5 -177t-51.5 -252q0 -162 96 -269.5t242 -107.5q80 0 221 49l-16 -129q-95 -31 -238 -31h-14l-37 -71v-4q22 12 66 12q60 0 97.5 -33.5t37.5 -95.5q0 -44 -20.5 -77t-55 -50.5t-72 -26t-77.5 -8.5
q-64 0 -110 14t-99 41l14 64q78 -57 180 -57q44 0 77.5 22.5t33.5 71.5q0 35 -25 54t-57 19q-52 0 -84 -14l70 148q-90 13 -162.5 59.5t-117 112.5t-68 142t-23.5 155q0 284 158 450t454 166q63 0 143 -13t121 -28z" />
    <glyph glyph-name="egrave" unicode="&#xe8;" horiz-adv-x="1024" 
d="M975 485h-760q-6 -41 -6 -84q0 -148 88 -231.5t229 -83.5t305 70l-10 -125q-47 -18 -72.5 -26t-93 -19t-145.5 -11q-190 0 -310 111t-120 315q0 177 64 328t189.5 245.5t287.5 94.5q181 0 274.5 -103t93.5 -286q0 -41 -14 -195zM238 596h616q0 7 3 36t3 44
q0 133 -58.5 207.5t-180.5 74.5q-145 0 -250 -106t-133 -256zM567 1479l174 -295h-86l-249 295h161z" />
    <glyph glyph-name="eacute" unicode="&#xe9;" horiz-adv-x="1024" 
d="M975 485h-760q-6 -41 -6 -84q0 -148 88 -231.5t229 -83.5t305 70l-10 -125q-47 -18 -72.5 -26t-93 -19t-145.5 -11q-190 0 -310 111t-120 315q0 177 64 328t189.5 245.5t287.5 94.5q181 0 274.5 -103t93.5 -286q0 -41 -14 -195zM238 596h616q0 7 3 36t3 44
q0 133 -58.5 207.5t-180.5 74.5q-145 0 -250 -106t-133 -256zM528 1184l174 295h162l-239 -295h-97z" />
    <glyph glyph-name="ecircumflex" unicode="&#xea;" horiz-adv-x="1024" 
d="M975 485h-760q-6 -41 -6 -84q0 -148 88 -231.5t229 -83.5t305 70l-10 -125q-47 -18 -72.5 -26t-93 -19t-145.5 -11q-190 0 -310 111t-120 315q0 177 64 328t189.5 245.5t287.5 94.5q181 0 274.5 -103t93.5 -286q0 -41 -14 -195zM238 596h616q0 7 3 36t3 44
q0 133 -58.5 207.5t-180.5 74.5q-145 0 -250 -106t-133 -256zM350 1184l240 295h155l154 -295h-90l-147 209l-222 -209h-90z" />
    <glyph glyph-name="edieresis" unicode="&#xeb;" horiz-adv-x="1024" 
d="M975 485h-760q-6 -41 -6 -84q0 -148 88 -231.5t229 -83.5t305 70l-10 -125q-47 -18 -72.5 -26t-93 -19t-145.5 -11q-190 0 -310 111t-120 315q0 177 64 328t189.5 245.5t287.5 94.5q181 0 274.5 -103t93.5 -286q0 -41 -14 -195zM238 596h616q0 7 3 36t3 44
q0 133 -58.5 207.5t-180.5 74.5q-145 0 -250 -106t-133 -256zM387 1241l33 172h158l-33 -172h-158zM745 1241l33 172h158l-33 -172h-158z" />
    <glyph glyph-name="igrave" unicode="&#xec;" horiz-adv-x="454" 
d="M57 0l222 1044h135l-221 -1044h-136zM283 1479l174 -295h-86l-250 295h162z" />
    <glyph glyph-name="iacute" unicode="&#xed;" horiz-adv-x="454" 
d="M57 0l222 1044h135l-221 -1044h-136zM244 1184l174 295h162l-240 -295h-96z" />
    <glyph glyph-name="icircumflex" unicode="&#xee;" horiz-adv-x="454" 
d="M57 0l222 1044h135l-221 -1044h-136zM66 1184l239 295h156l153 -295h-90l-147 209l-221 -209h-90z" />
    <glyph glyph-name="idieresis" unicode="&#xef;" horiz-adv-x="454" 
d="M57 0l222 1044h135l-221 -1044h-136zM102 1241l33 172h158l-33 -172h-158zM461 1241l33 172h157l-33 -172h-157z" />
    <glyph glyph-name="eth" unicode="&#xf0;" 
d="M221 410q0 -139 80 -231.5t213 -92.5q97 0 179 48.5t134 126t80.5 170.5t28.5 187q0 155 -72.5 247.5t-218.5 92.5q-84 0 -155 -31.5t-119.5 -84.5t-83 -124t-50.5 -149t-16 -159zM410 1257l221 121q-109 76 -215 105l53 78q157 -44 272 -121l222 121l65 -70l-207 -115
q256 -235 256 -684q0 -211 -64.5 -371t-197 -253t-317.5 -93q-190 0 -304 128t-114 327q0 175 70.5 320t205 232t306.5 87q101 -10 162 -43t100 -96h4q-21 113 -78.5 212t-138.5 171l-232 -129z" />
    <glyph glyph-name="ntilde" unicode="&#xf1;" 
d="M57 0l181 879q20 119 24 165h129q-10 -114 -22 -157h4q54 83 144.5 132.5t187.5 49.5q146 0 236.5 -79.5t90.5 -223.5q0 -69 -31 -215l-116 -551h-135l118 575q23 112 23 183q0 94 -52 147t-149 53q-81 0 -149 -37.5t-115 -104t-79.5 -146t-51.5 -174.5l-102 -496h-136z
M889 1419h74q0 -73 -48.5 -129.5t-119.5 -56.5q-35 0 -117 31q-74 28 -113 28q-66 0 -78 -75h-73q0 73 48.5 129.5t119.5 56.5q49 0 116 -29q72 -31 113 -31q68 0 78 76z" />
    <glyph glyph-name="ograve" unicode="&#xf2;" 
d="M80 430q0 175 70.5 320t205 232t306.5 87q197 0 306 -121t109 -327q0 -176 -68.5 -321.5t-202 -235t-308.5 -89.5q-190 0 -304 128t-114 327zM221 410q0 -139 80 -231.5t213 -92.5q97 0 179 48.5t134 126t80.5 170.5t28.5 187q0 155 -72.5 247.5t-218.5 92.5
q-84 0 -155 -31.5t-119.5 -84.5t-83 -124t-50.5 -149t-16 -159zM625 1479l174 -295h-86l-250 295h162z" />
    <glyph glyph-name="oacute" unicode="&#xf3;" 
d="M80 430q0 175 70.5 320t205 232t306.5 87q197 0 306 -121t109 -327q0 -176 -68.5 -321.5t-202 -235t-308.5 -89.5q-190 0 -304 128t-114 327zM221 410q0 -139 80 -231.5t213 -92.5q97 0 179 48.5t134 126t80.5 170.5t28.5 187q0 155 -72.5 247.5t-218.5 92.5
q-84 0 -155 -31.5t-119.5 -84.5t-83 -124t-50.5 -149t-16 -159zM586 1184l174 295h162l-240 -295h-96z" />
    <glyph glyph-name="ocircumflex" unicode="&#xf4;" 
d="M80 430q0 175 70.5 320t205 232t306.5 87q197 0 306 -121t109 -327q0 -176 -68.5 -321.5t-202 -235t-308.5 -89.5q-190 0 -304 128t-114 327zM221 410q0 -139 80 -231.5t213 -92.5q97 0 179 48.5t134 126t80.5 170.5t28.5 187q0 155 -72.5 247.5t-218.5 92.5
q-84 0 -155 -31.5t-119.5 -84.5t-83 -124t-50.5 -149t-16 -159zM408 1184l239 295h156l153 -295h-90l-147 209l-221 -209h-90z" />
    <glyph glyph-name="otilde" unicode="&#xf5;" 
d="M80 430q0 175 70.5 320t205 232t306.5 87q197 0 306 -121t109 -327q0 -176 -68.5 -321.5t-202 -235t-308.5 -89.5q-190 0 -304 128t-114 327zM221 410q0 -139 80 -231.5t213 -92.5q97 0 179 48.5t134 126t80.5 170.5t28.5 187q0 155 -72.5 247.5t-218.5 92.5
q-84 0 -155 -31.5t-119.5 -84.5t-83 -124t-50.5 -149t-16 -159zM889 1419h74q0 -73 -48.5 -129.5t-119.5 -56.5q-35 0 -117 31q-74 28 -113 28q-66 0 -78 -75h-73q0 73 48.5 129.5t119.5 56.5q49 0 116 -29q72 -31 113 -31q68 0 78 76z" />
    <glyph glyph-name="odieresis" unicode="&#xf6;" 
d="M80 430q0 175 70.5 320t205 232t306.5 87q197 0 306 -121t109 -327q0 -176 -68.5 -321.5t-202 -235t-308.5 -89.5q-190 0 -304 128t-114 327zM221 410q0 -139 80 -231.5t213 -92.5q97 0 179 48.5t134 126t80.5 170.5t28.5 187q0 155 -72.5 247.5t-218.5 92.5
q-84 0 -155 -31.5t-119.5 -84.5t-83 -124t-50.5 -149t-16 -159zM444 1241l33 172h158l-33 -172h-158zM803 1241l33 172h157l-32 -172h-158z" />
    <glyph glyph-name="divide" unicode="&#xf7;" horiz-adv-x="1228" 
d="M125 449v141h1038v-141h-1038zM514 922q0 54 39 92.5t92 38.5t92 -39.5t39 -91.5q0 -50 -39.5 -90.5t-91.5 -40.5q-53 0 -92 39.5t-39 91.5zM514 117q0 54 39 92.5t92 38.5t92 -39t39 -92q0 -50 -39.5 -90.5t-91.5 -40.5q-53 0 -92 39t-39 92z" />
    <glyph glyph-name="oslash" unicode="&#xf8;" 
d="M258 244l606 618q-77 96 -219 96q-84 0 -155 -31.5t-119.5 -84.5t-83 -124t-50.5 -149t-16 -159q0 -93 37 -166zM903 799l-604 -617q76 -96 215 -96q97 0 179 48.5t134 126t80.5 170.5t28.5 187q0 111 -33 181zM1065 1067l53 -47l-117 -119q76 -112 76 -280
q0 -176 -68.5 -321.5t-202 -235t-308.5 -89.5q-174 0 -289 115l-119 -121l-53 47l125 129q-82 118 -82 285q0 175 70.5 320t205 232t306.5 87q184 0 294 -113z" />
    <glyph glyph-name="ugrave" unicode="&#xf9;" 
d="M1092 1044l-181 -878q-20 -118 -24 -166h-129q10 115 22 158h-4q-54 -83 -144.5 -133t-187.5 -50q-145 0 -236 80t-91 224q0 74 30 215l117 550h135l-118 -575q-23 -112 -23 -182q0 -94 52 -147.5t149 -53.5q81 0 149 38t115 104.5t79.5 146t51.5 174.5l102 495h136z
M625 1479l174 -295h-86l-250 295h162z" />
    <glyph glyph-name="uacute" unicode="&#xfa;" 
d="M1092 1044l-181 -878q-20 -118 -24 -166h-129q10 115 22 158h-4q-54 -83 -144.5 -133t-187.5 -50q-145 0 -236 80t-91 224q0 74 30 215l117 550h135l-118 -575q-23 -112 -23 -182q0 -94 52 -147.5t149 -53.5q81 0 149 38t115 104.5t79.5 146t51.5 174.5l102 495h136z
M586 1184l174 295h162l-240 -295h-96z" />
    <glyph glyph-name="ucircumflex" unicode="&#xfb;" 
d="M1092 1044l-181 -878q-20 -118 -24 -166h-129q10 115 22 158h-4q-54 -83 -144.5 -133t-187.5 -50q-145 0 -236 80t-91 224q0 74 30 215l117 550h135l-118 -575q-23 -112 -23 -182q0 -94 52 -147.5t149 -53.5q81 0 149 38t115 104.5t79.5 146t51.5 174.5l102 495h136z
M408 1184l239 295h156l153 -295h-90l-147 209l-221 -209h-90z" />
    <glyph glyph-name="udieresis" unicode="&#xfc;" 
d="M1092 1044l-181 -878q-20 -118 -24 -166h-129q10 115 22 158h-4q-54 -83 -144.5 -133t-187.5 -50q-145 0 -236 80t-91 224q0 74 30 215l117 550h135l-118 -575q-23 -112 -23 -182q0 -94 52 -147.5t149 -53.5q81 0 149 38t115 104.5t79.5 146t51.5 174.5l102 495h136z
M444 1241l33 172h158l-33 -172h-158zM803 1241l33 172h157l-32 -172h-158z" />
    <glyph glyph-name="yacute" unicode="&#xfd;" horiz-adv-x="909" 
d="M1008 1044l-723 -1290q-51 -97 -116 -146.5t-165 -49.5q-78 0 -125 28l31 111q29 -29 84 -29q63 0 114.5 47.5t84.5 116.5l88 166l-148 1046h135l107 -899h4l489 899h140zM471 1184l174 295h162l-240 -295h-96z" />
    <glyph glyph-name="thorn" unicode="&#xfe;" 
d="M-37 -430l414 1966h135l-152 -664h5q56 94 148.5 145.5t199.5 51.5q115 0 197.5 -57.5t121.5 -151.5t39 -213q0 -99 -21 -194.5t-64.5 -182t-105.5 -152t-149.5 -104.5t-189.5 -39q-111 0 -195.5 61t-116.5 167h-4l-127 -633h-135zM279 418q0 -86 26.5 -159t87.5 -123
t148 -50q96 0 173 53t122.5 137.5t69.5 180t24 190.5q0 138 -63 224.5t-191 86.5q-89 0 -166 -53t-126 -134.5t-77 -174.5t-28 -178z" />
    <glyph glyph-name="ydieresis" unicode="&#xff;" horiz-adv-x="909" 
d="M1008 1044l-723 -1290q-51 -97 -116 -146.5t-165 -49.5q-78 0 -125 28l31 111q29 -29 84 -29q63 0 114.5 47.5t84.5 116.5l88 166l-148 1046h135l107 -899h4l489 899h140zM330 1241l32 172h158l-33 -172h-157zM688 1241l33 172h158l-33 -172h-158z" />
    <glyph glyph-name="dotlessi" unicode="&#x131;" horiz-adv-x="454" 
d="M57 0l222 1044h135l-221 -1044h-136z" />
    <glyph glyph-name="Lslash" unicode="&#x141;" horiz-adv-x="909" 
d="M57 0l105 485l-144 -88l35 148l140 86l169 799h146l-150 -697l383 236l-34 -148l-379 -233l-101 -465h584l-23 -123h-731z" />
    <glyph glyph-name="lslash" unicode="&#x142;" horiz-adv-x="454" 
d="M57 0l146 682l-148 -90l29 137l147 88l154 719h135l-131 -616l148 96l-29 -135l-148 -97l-167 -784h-136z" />
    <glyph glyph-name="OE" unicode="&#x152;" horiz-adv-x="1820" 
d="M885 129l254 1167q-15 2 -45 7.5t-48.5 9t-44.5 6t-47 2.5q-201 0 -355 -89t-237 -246t-83 -357q0 -105 28 -197.5t81 -165t138.5 -115t192.5 -42.5q97 0 166 20zM1872 1430l-25 -123h-569l-107 -510h537l-29 -123h-532l-121 -551h588l-25 -123h-669q-2 0 -89 -6
q-58 -8 -88 -8q-287 0 -446.5 169t-159.5 457q0 237 99 426t283.5 297.5t422.5 108.5q1 0 100 -6q66 -8 101 -8h729z" />
    <glyph glyph-name="oe" unicode="&#x153;" horiz-adv-x="1705" 
d="M1653 485h-672q-6 -23 -6 -77q0 -148 68.5 -235t207.5 -87q126 0 258 61l-12 -124q-157 -48 -252 -48q-297 0 -377 254h-4q-54 -113 -153 -183.5t-228 -70.5q-127 0 -222 61.5t-142 164t-47 229.5q0 121 35.5 234t101 204t170 146t231.5 55q129 0 221.5 -67t126.5 -185h5
q52 117 150.5 184.5t227.5 67.5q167 0 246.5 -95t79.5 -267q0 -63 -14 -222zM1001 596h531q6 58 6 109q0 55 -9 98t-30 79.5t-61 56t-97 19.5q-90 0 -162.5 -53.5t-114.5 -132.5t-63 -176zM213 424q0 -88 28 -162.5t91 -125t151 -50.5q75 0 139 36t106.5 93t72.5 129
t43.5 141.5t13.5 132.5q0 93 -26 169t-81.5 123.5t-132.5 47.5q-87 0 -157 -32t-115.5 -84t-76 -122.5t-43.5 -144t-13 -151.5z" />
    <glyph glyph-name="Scaron" unicode="&#x160;" horiz-adv-x="1024" 
d="M1063 1391l-43 -129q-135 69 -289 69q-49 0 -96.5 -9t-92.5 -29.5t-78.5 -50.5t-54 -75.5t-20.5 -101.5q0 -50 29 -94t75.5 -78t102.5 -68.5t112 -73.5t102.5 -83t75.5 -107.5t29 -138.5q0 -105 -45.5 -192t-120.5 -141.5t-168 -84t-192 -29.5q-220 0 -360 78l43 135
q62 -42 144.5 -66t160.5 -24q76 0 144 17t126 52t92.5 95.5t34.5 140.5q0 60 -29 111.5t-75.5 90t-102.5 75t-112 74.5t-102.5 79t-75.5 98t-29 124q0 81 26 148t71 113t107 77.5t132 46t147 14.5q185 0 332 -63zM1049 1827l-240 -295h-156l-153 295h90l147 -209l221 209h91
z" />
    <glyph glyph-name="scaron" unicode="&#x161;" horiz-adv-x="796" 
d="M-29 33l39 129q125 -76 248 -76q51 0 99.5 10.5t94 33t73.5 65t28 100.5q0 46 -22.5 84t-59 65t-80.5 52t-88 52t-80.5 57.5t-59 74.5t-22.5 98q0 74 36.5 132t95 91.5t124 50.5t131.5 17q144 0 269 -51l-43 -121q-106 61 -232 61q-43 0 -82.5 -8t-78 -26t-62 -55.5
t-23.5 -88.5q0 -36 23 -67.5t60 -57t81.5 -51t89 -54.5t81.5 -62.5t60 -81t23 -103.5q0 -69 -24.5 -125t-65 -93.5t-95 -62.5t-113.5 -36t-122 -11q-162 0 -303 58zM838 1479l-240 -295h-156l-153 295h90l147 -209l222 209h90z" />
    <glyph glyph-name="Ydieresis" unicode="&#x178;" horiz-adv-x="1251" 
d="M451 0l129 604l-363 826h150l301 -709l602 709h170l-723 -826l-129 -604h-137zM600 1571l33 172h158l-33 -172h-158zM958 1571l33 172h158l-33 -172h-158z" />
    <glyph glyph-name="Zcaron" unicode="&#x17d;" horiz-adv-x="1024" 
d="M-63 0l24 125l1002 1182h-727l26 123h895l-27 -125l-999 -1182h774l-26 -123h-942zM1049 1808l-240 -295h-156l-153 295h90l147 -209l221 209h91z" />
    <glyph glyph-name="zcaron" unicode="&#x17e;" horiz-adv-x="909" 
d="M-41 0l25 119l778 815h-592l25 110h763l-24 -120l-789 -813h627l-20 -111h-793zM893 1479l-240 -295h-155l-154 295h90l148 -209l221 209h90z" />
    <glyph glyph-name="florin" unicode="&#x192;" 
d="M928 858l-25 -110h-229l-90 -547q-16 -97 -26 -150.5t-32 -142.5t-48.5 -140t-65.5 -106t-94 -79.5t-123 -24.5q-88 0 -142 20l37 119q45 -29 90 -29q27 1 50.5 8.5t43.5 24.5t36.5 35.5t31.5 50.5t26.5 58t23 70.5t19.5 76t18 86t16 89t16 95.5l80 486h-230l25 110h225
l27 135q21 106 49.5 185t71 141t103 93.5t138.5 31.5q74 0 142 -33l-29 -108q-47 30 -113 30q-43 0 -81 -26t-62.5 -64.5t-45 -89.5t-31 -93t-17.5 -83l-21 -119h236z" />
    <glyph glyph-name="circumflex" unicode="&#x2c6;" horiz-adv-x="454" 
d="M66 1184l239 295h156l153 -295h-90l-147 209l-221 -209h-90z" />
    <glyph glyph-name="caron" unicode="&#x2c7;" horiz-adv-x="454" 
d="M666 1479l-240 -295h-156l-153 295h90l147 -209l221 209h91z" />
    <glyph glyph-name="uni02C9" unicode="&#x2c9;" horiz-adv-x="454" 
d="M635 1384l-23 -110h-526l23 110h526z" />
    <glyph glyph-name="breve" unicode="&#x2d8;" horiz-adv-x="454" 
d="M145 1456h62q0 -63 42.5 -100t106.5 -37q168 0 289 137h72q-159 -260 -346 -260q-116 0 -171 69.5t-55 190.5z" />
    <glyph glyph-name="dotaccent" unicode="&#x2d9;" horiz-adv-x="454" 
d="M281 1241l32 172h158l-33 -172h-157z" />
    <glyph glyph-name="ring" unicode="&#x2da;" horiz-adv-x="454" 
d="M199 1352q0 83 61 142.5t143 59.5t142.5 -60t60.5 -142q0 -84 -59.5 -144.5t-143.5 -60.5q-83 0 -143.5 61t-60.5 144zM272 1352q0 -55 36 -93t95 -38q57 0 93 38.5t36 92.5q0 55 -36 92t-93 37q-59 0 -95 -36.5t-36 -92.5z" />
    <glyph glyph-name="ogonek" unicode="&#x2db;" horiz-adv-x="454" 
d="M375 -276l61 -29q-54 -65 -110.5 -95t-143.5 -30q-76 0 -123 32.5t-47 94.5q0 39 20.5 79t51 71.5t72 62.5t77 51.5t72.5 38.5h105q-38 -21 -75 -45.5t-85.5 -62.5t-78.5 -81t-30 -83q0 -38 21 -61t55 -23q89 0 158 80z" />
    <glyph glyph-name="tilde" unicode="&#x2dc;" horiz-adv-x="454" 
d="M547 1419h74q0 -73 -48.5 -129.5t-119.5 -56.5q-35 0 -117 31q-74 28 -113 28q-66 0 -78 -75h-73q0 73 48.5 129.5t119.5 56.5q49 0 116 -29q72 -31 113 -31q68 0 78 76z" />
    <glyph glyph-name="hungarumlaut" unicode="&#x2dd;" horiz-adv-x="454" 
d="M104 1184l175 295h161l-239 -295h-97zM387 1184l174 295h162l-240 -295h-96z" />
    <glyph glyph-name="uni03A9" unicode="&#x3a9;" horiz-adv-x="1482" 
d="M336 106l2 7q-102 107 -147.5 270.5t-2.5 366.5q42 197 157 353t272.5 240t328.5 84q89 0 165 -25t131.5 -69.5t96.5 -106.5t60 -136.5t22 -158.5t-18 -173q-44 -209 -163.5 -378.5t-260.5 -266.5l-2 -7h315l-22 -106h-482l17 80q154 87 283.5 258t177.5 397
q14 68 15.5 136.5t-10.5 134t-40 122t-69.5 99.5t-103 67.5t-136.5 24.5q-143 0 -270.5 -79.5t-214.5 -213t-122 -295.5q-32 -151 -11 -281t72.5 -224t123.5 -146l-17 -80h-483l23 106h313z" />
    <glyph glyph-name="uni03BC" unicode="&#x3bc;" 
d="M-59 -430l323 1474h135l-118 -575q-23 -112 -23 -182q0 -94 52 -147.5t149 -53.5q81 0 149 38t115 104.5t79.5 146t51.5 174.5l102 495h136l-181 -878q-20 -118 -24 -166h-129q10 115 22 158h-4q-54 -83 -144.5 -133t-187.5 -50q-180 0 -260 103l-108 -508h-135z" />
    <glyph glyph-name="pi" unicode="&#x3c0;" horiz-adv-x="1153" 
d="M1192 932h-170l-135 -633q-41 -194 -33 -299h-127q-21 64 27 283l137 649h-389q-60 -227 -166 -514.5t-186 -417.5h-130q90 153 192.5 431t158.5 501q-164 0 -240 -27l-4 86q94 51 295 51h807z" />
    <glyph glyph-name="uni2010" unicode="&#x2010;" horiz-adv-x="681" 
d="M80 481l22 142h523l-23 -142h-522z" />
    <glyph glyph-name="endash" unicode="&#x2013;" horiz-adv-x="1024" 
d="M0 496l23 110h1024l-23 -110h-1024z" />
    <glyph glyph-name="emdash" unicode="&#x2014;" horiz-adv-x="2048" 
d="M0 496l23 110h2048l-23 -110h-2048z" />
    <glyph glyph-name="quoteleft" unicode="&#x2018;" horiz-adv-x="569" 
d="M254 983l248 447h125l-209 -447h-164z" />
    <glyph glyph-name="quoteright" unicode="&#x2019;" horiz-adv-x="569" 
d="M231 983l209 447h164l-248 -447h-125z" />
    <glyph glyph-name="quotesinglbase" unicode="&#x201a;" horiz-adv-x="569" 
d="M-39 -274l209 446h164l-248 -446h-125z" />
    <glyph glyph-name="quotedblleft" unicode="&#x201c;" horiz-adv-x="909" 
d="M242 983l247 447h125l-208 -447h-164zM584 983l247 447h125l-208 -447h-164z" />
    <glyph glyph-name="quotedblright" unicode="&#x201d;" horiz-adv-x="909" 
d="M584 983l209 447h163l-247 -447h-125zM242 983l209 447h163l-247 -447h-125z" />
    <glyph glyph-name="quotedblbase" unicode="&#x201e;" horiz-adv-x="909" 
d="M-39 -274l209 446h164l-248 -446h-125zM303 -274l209 446h164l-248 -446h-125z" />
    <glyph glyph-name="dagger" unicode="&#x2020;" 
d="M238 934l24 110h350l80 386h127l-80 -386h357l-25 -110h-354l-195 -934h-127l195 934h-352z" />
    <glyph glyph-name="daggerdbl" unicode="&#x2021;" 
d="M395 0l82 385h-356l22 111h355l92 438h-357l23 110h358l82 386h127l-82 -386h361l-23 -110h-358l-92 -438h356l-22 -111h-359l-82 -385h-127z" />
    <glyph glyph-name="bullet" unicode="&#x2022;" horiz-adv-x="1024" 
d="M178 715q0 148 104.5 253t252.5 105t253 -105t105 -253t-105 -252.5t-253 -104.5t-252.5 104.5t-104.5 252.5z" />
    <glyph glyph-name="ellipsis" unicode="&#x2026;" horiz-adv-x="2048" 
d="M158 0l35 172h167l-34 -172h-168zM840 0l34 172h168l-34 -172h-168zM1522 0l34 172h168l-34 -172h-168z" />
    <glyph glyph-name="perthousand" unicode="&#x2030;" horiz-adv-x="2048" 
d="M418 891q61 0 107 51t65.5 115.5t19.5 126.5q0 68 -35 115t-98 47q-68 0 -116 -50t-67.5 -115.5t-19.5 -133.5t40 -112t104 -44zM399 793q-118 0 -186 75t-68 193q0 95 39.5 181.5t117 144t173.5 57.5q120 0 192 -69.5t72 -188.5q0 -100 -39.5 -189t-119 -146.5
t-181.5 -57.5zM1651 -14q-118 0 -186 75t-68 193q0 95 39.5 181.5t116.5 144t173 57.5q120 0 192.5 -69.5t72.5 -188.5q0 -100 -39.5 -189t-119 -146.5t-181.5 -57.5zM1669 84q47 0 85 29.5t61 75t35 94.5t12 94q0 68 -35 115t-98 47q-68 0 -116 -50t-67.5 -115.5
t-19.5 -133.5t39.5 -112t103.5 -44zM950 -14q-118 0 -186 75t-68 193q0 95 39.5 181.5t117 144t173.5 57.5q120 0 192 -69.5t72 -188.5q0 -100 -39.5 -189t-119 -146.5t-181.5 -57.5zM969 84q61 0 107 51t65.5 115.5t19.5 126.5q0 68 -35 115t-98 47q-68 0 -116 -50
t-67.5 -115.5t-19.5 -133.5t40 -112t104 -44zM205 -45l911 1520h115l-912 -1520h-114z" />
    <glyph glyph-name="guilsinglleft" unicode="&#x2039;" horiz-adv-x="681" 
d="M383 131l-313 420l389 420h147l-401 -420l313 -420h-135z" />
    <glyph glyph-name="guilsinglright" unicode="&#x203a;" horiz-adv-x="681" 
d="M299 971l313 -420l-389 -420h-147l401 420l-313 420h135z" />
    <glyph glyph-name="fraction" unicode="&#x2044;" horiz-adv-x="342" 
d="M-293 -45l911 1520h117l-911 -1520h-117z" />
    <glyph glyph-name="Euro" unicode="&#x20ac;" 
d="M1333 1403l-53 -129q-44 29 -117 44t-137 15q-199 0 -354.5 -118t-241.5 -310h698l-43 -98h-694q-34 -112 -41 -184h658l-41 -99h-619q3 -197 111 -311.5t303 -114.5q157 0 280 56l-16 -131q-121 -48 -291 -48q-256 0 -397.5 146.5t-136.5 402.5h-185l43 99h150
q11 85 41 184h-172l43 98h164q103 247 307 398t463 151q168 0 278 -51z" />
    <glyph glyph-name="afii61289" unicode="&#x2113;" horiz-adv-x="978" 
d="M823 299l54 -53q-184 -250 -426 -250q-67 0 -118 20t-80.5 55.5t-46.5 83.5t-16.5 103.5t9.5 116.5q2 10 6 26q-25 -17 -77 -54t-62 -44l-27 80q135 93 190 139l119 559q28 132 75.5 229.5t104 150t112.5 76.5t114 24q120 0 164 -91t14 -231q-39 -184 -188 -367
t-398 -383l-12 -61q-34 -166 15 -247t149 -81q91 0 176 58.5t149 140.5zM475 1096l-100 -475q195 173 313.5 320t149.5 292q49 227 -107 227q-71 0 -144 -88.5t-112 -275.5z" />
    <glyph glyph-name="trademark" unicode="&#x2122;" horiz-adv-x="2027" 
d="M461 582v749h-268v99h665v-99h-268v-749h-129zM1034 582v848h209l250 -654l250 654h209v-848h-129v737h-4l-283 -737h-88l-281 737h-4v-737h-129z" />
    <glyph glyph-name="Omega" unicode="&#x2126;" horiz-adv-x="1482" 
d="M336 106l2 7q-102 107 -147.5 270.5t-2.5 366.5q42 197 157 353t272.5 240t328.5 84q89 0 165 -25t131.5 -69.5t96.5 -106.5t60 -136.5t22 -158.5t-18 -173q-44 -209 -163.5 -378.5t-260.5 -266.5l-2 -7h315l-22 -106h-482l17 80q154 87 283.5 258t177.5 397
q14 68 15.5 136.5t-10.5 134t-40 122t-69.5 99.5t-103 67.5t-136.5 24.5q-143 0 -270.5 -79.5t-214.5 -213t-122 -295.5q-32 -151 -11 -281t72.5 -224t123.5 -146l-17 -80h-483l23 106h313z" />
    <glyph glyph-name="estimated" unicode="&#x212e;" horiz-adv-x="1959" 
d="M1890 694h-1312q-11 0 -11 -8v-397q0 -26 19 -45q98 -101 225 -158t270 -57q154 0 290 64t233 177h116q-110 -131 -279.5 -206.5t-361.5 -75.5q-219 0 -405.5 97.5t-295 265t-108.5 364.5t108.5 365t295 266t405.5 98q165 0 315.5 -58t259 -155.5t172.5 -232.5t64 -283
v-21zM1593 745v400q0 27 -20 47q-99 97 -225 152t-267 55t-268 -56.5t-225 -156.5q-21 -18 -21 -49v-392q0 -3 3.5 -7.5t7.5 -4.5h1005q10 0 10 12z" />
    <glyph glyph-name="partialdiff" unicode="&#x2202;" horiz-adv-x="1103" 
d="M395 1378l-28 95q162 110 358 110q99 0 178 -46t132 -140.5t63 -237.5t-29 -336q-36 -174 -101.5 -323.5t-153.5 -263t-203 -178t-242 -64.5q-77 0 -136 26t-93 71t-54.5 104t-19 125.5t13.5 136.5q33 150 119.5 268.5t197.5 180t224 61.5q69 0 127 -22.5t93.5 -57
t56 -65.5t28.5 -58h2q4 11 7.5 27.5t8 36.5t6.5 28q58 276 -20 447.5t-240 171.5q-153 0 -295 -97zM403 102h3q145 0 275 152.5t202 374.5q-6 37 -25 75.5t-50 74t-81 58.5t-109 23q-133 0 -252.5 -117t-154.5 -284q-33 -156 19 -256.5t173 -100.5z" />
    <glyph glyph-name="uni2206" unicode="&#x2206;" horiz-adv-x="1323" 
d="M-37 0l19 94l809 1350h149l234 -1348l-21 -96h-1190zM115 106h919l-141 807q-6 48 -32 188.5t-30 190.5h-8q-20 -42 -99 -174.5t-99 -169.5z" />
    <glyph glyph-name="product" unicode="&#x220f;" horiz-adv-x="1613" 
d="M1561 1286h-230v-1481h-127v1481h-602v-1481h-127v1481h-229v119h1315v-119z" />
    <glyph glyph-name="summation" unicode="&#x2211;" horiz-adv-x="1320" 
d="M1276 -195h-1036v89l561 708l-535 711v92h979v-113h-796v-8l503 -666l-542 -684v-6h866v-123z" />
    <glyph glyph-name="minus" unicode="&#x2212;" horiz-adv-x="1228" 
d="M125 449v141h1038v-141h-1038z" />
    <glyph glyph-name="uni2215" unicode="&#x2215;" horiz-adv-x="342" 
d="M-293 -45l911 1520h117l-911 -1520h-117z" />
    <glyph glyph-name="uni2219" unicode="&#x2219;" horiz-adv-x="569" 
d="M227 635q0 41 30 70.5t71 29.5t71.5 -29.5t30.5 -70.5t-30.5 -72t-71.5 -31t-71 31t-30 72z" />
    <glyph glyph-name="radical" unicode="&#x221a;" horiz-adv-x="1355" 
d="M1358 1665l-455 -1970h-119l-331 944l-152 -57l-29 82l263 102l272 -774q30 -117 35 -142h2q3 19 12.5 68t13.5 72l387 1675h101z" />
    <glyph glyph-name="infinity" unicode="&#x221e;" horiz-adv-x="1662" 
d="M1559 586v-4q0 -140 -91.5 -228t-216.5 -88q-91 0 -173 57t-201 187q-44 -48 -67.5 -73t-66.5 -63.5t-77 -58t-81 -34.5t-96 -15q-123 0 -211 90t-88 219q0 137 89.5 227.5t224.5 90.5q55 0 107.5 -19.5t101.5 -58.5t86.5 -76.5t85.5 -93.5q6 7 18 20q41 46 63 69
t62.5 59t72.5 54t76.5 32t90.5 14q131 -1 211 -86t80 -221zM502 352h4q32 0 65.5 11.5t57 24.5t57.5 43t48.5 44t50 52.5t42.5 45.5q-90 108 -131 146q-101 90 -207 90q-95 0 -150.5 -69t-55.5 -167q0 -94 61 -157.5t158 -63.5zM1257 809h-2q-39 0 -78.5 -15.5t-76 -45
t-63 -54.5t-60 -62t-47.5 -50q119 -129 186 -179.5t144 -50.5q95 0 151.5 68.5t56.5 157.5q0 107 -59.5 169t-151.5 62z" />
    <glyph glyph-name="integral" unicode="&#x222b;" horiz-adv-x="911" 
d="M883 1683l-27 -90q-34 21 -74 21q-68 0 -104 -47q-39 -45 -55.5 -130t-16.5 -233q0 -155 13.5 -507.5t13.5 -514.5q0 -275 -90 -405q-32 -46 -82 -71t-107 -25q-35 0 -72 11t-57 23l25 95q56 -25 94 -25q58 0 96 47q74 92 74 352q0 163 -14.5 520.5t-14.5 512.5
q0 164 24.5 262t82.5 157q73 76 180 76q55 0 111 -29z" />
    <glyph glyph-name="approxequal" unicode="&#x2248;" horiz-adv-x="1232" 
d="M1079 860l58 -49q-101 -188 -260 -188q-40 0 -82 12.5t-67.5 25t-92.5 48.5q-117 69 -195 69q-65 0 -112 -39t-95 -112l-57 47q46 90 119 140t160 50q28 0 54.5 -5t54.5 -17t42.5 -19.5t44 -24.5t33.5 -20q4 -2 29 -15.5t30 -16t25 -11.5t28.5 -11.5t25 -7t31 -6
t30.5 -1.5q61 0 106 36.5t90 114.5zM1079 520l58 -49q-101 -188 -260 -188q-40 0 -81 12.5t-69 26.5t-92 49q-95 50 -136 61q-30 8 -59 8q-67 0 -114 -40t-93 -113l-57 47q46 90 118.5 140t158.5 50q29 0 56.5 -5t54 -16.5t42.5 -19t43.5 -23.5t34.5 -20t32.5 -17.5
t34 -17.5t29.5 -13.5t33.5 -13t31.5 -6.5t38 -3q62 0 106.5 36t89.5 115z" />
    <glyph glyph-name="notequal" unicode="&#x2260;" horiz-adv-x="1271" 
d="M932 1016l-94 -205h329v-88h-366l-142 -303h508v-88h-544l-113 -242l-70 33l97 209h-314v88h352l140 303h-492v88h529l110 238z" />
    <glyph glyph-name="lessequal" unicode="&#x2264;" horiz-adv-x="1304" 
d="M1194 188l-926 459v92l926 459v-106l-829 -394v-6l829 -397v-107zM1200 14h-944v90h944v-90z" />
    <glyph glyph-name="greaterequal" unicode="&#x2265;" horiz-adv-x="1304" 
d="M268 1198l928 -459v-92l-928 -459v107l830 395v6l-830 396v106zM1198 14h-942v90h942v-90z" />
    <glyph glyph-name="lozenge" unicode="&#x25ca;" horiz-adv-x="1359" 
d="M1247 700l-416 -792h-104l-412 792l414 795h107zM1126 698l-305 584q-23 47 -39 102h-6q-12 -46 -39 -102l-303 -577l307 -588q28 -64 37 -101h6q18 56 37 99z" />
    <glyph glyph-name="fi" unicode="&#xfb01;" 
d="M150 0l200 934h-225l27 110h223l22 105q10 46 18.5 80t24.5 80t33 78.5t43.5 67.5t58 56.5t74.5 35.5t94 14q84 0 144 -23l-31 -108q-50 20 -104 20q-32 0 -59 -10t-46.5 -25t-37 -42.5t-28.5 -51t-22 -63t-17.5 -65.5t-15.5 -71l-16 -78h260l-27 -110h-258l-200 -934
h-135zM741 0l222 1044h135l-221 -1044h-136zM1202 1495l-37 -172h-155l37 172h155z" />
    <glyph glyph-name="fl" unicode="&#xfb02;" 
d="M150 0l200 934h-225l27 110h223l22 105q10 46 18.5 80t24.5 80t33 78.5t43.5 67.5t58 56.5t74.5 35.5t94 14q84 0 144 -23l-31 -108q-50 20 -104 20q-32 0 -59 -10t-46.5 -25t-37 -42.5t-28.5 -51t-22 -63t-17.5 -65.5t-15.5 -71l-16 -78h260l-27 -110h-258l-200 -934
h-135zM741 0l328 1536h135l-327 -1536h-136z" />
    <glyph glyph-name="a.superior" horiz-adv-x="665" 
d="M283 1303l10 98q113 53 205 53q107 0 173 -54.5t66 -156.5q0 -43 -61 -274q-8 -26 -25 -158h-92q7 79 14 94h-4q-80 -110 -231 -110q-83 0 -145 51t-62 133q0 229 406 229h92q4 0 4 37q0 60 -41 91.5t-109 31.5q-36 0 -73 -10t-61 -21.5t-66 -33.5zM236 981q0 -44 39 -72
t92 -28q57 0 102.5 21t74 56.5t46 76t24.5 87.5h-82q-296 0 -296 -141z" />
    <glyph glyph-name="o.superior" horiz-adv-x="739" 
d="M164 1073q0 154 111 267.5t278 113.5q128 0 205.5 -76.5t77.5 -193.5q0 -100 -47.5 -188.5t-138 -144.5t-204.5 -56q-123 0 -202.5 81.5t-79.5 196.5zM268 1061q0 -74 52.5 -127t138.5 -53q62 0 115 28.5t86.5 73t52 97t18.5 102.5q0 82 -47.5 134t-140.5 52
q-67 0 -121.5 -28t-87 -73t-49.5 -98t-17 -108z" />
    <glyph glyph-name="one.superior" horiz-adv-x="739" 
d="M340 582l174 749l-176 -114l-43 69l250 158h108l-196 -862h-117z" />
    <glyph glyph-name="two.superior" horiz-adv-x="739" 
d="M90 582l23 73l321 263q37 30 47.5 38.5t50.5 43t59 55.5t45.5 53t38 59.5t11.5 51.5q0 66 -48 96.5t-114 30.5q-123 0 -233 -78l6 108q123 68 240 68q112 0 189 -56.5t77 -168.5q0 -139 -234 -320l-276 -215v-4h383l-19 -98h-567z" />
    <glyph glyph-name="three.superior" horiz-adv-x="739" 
d="M250 975l20 98q369 0 369 154q0 55 -61.5 87t-128.5 32q-121 0 -228 -52l10 109q89 41 220 41q44 0 83.5 -5.5t81 -20t71.5 -38t49.5 -63t19.5 -90.5q0 -90 -74.5 -139t-179.5 -56v-4q77 -10 121.5 -62.5t44.5 -129.5q0 -69 -38.5 -123.5t-99.5 -85t-126.5 -45.5
t-129.5 -15q-123 0 -245 35l24 103q88 -39 223 -39q43 0 89 10.5t88.5 31t70 55.5t27.5 79q0 28 -10.5 49.5t-25 35.5t-41 23.5t-46.5 14.5t-55.5 7.5t-54 2.5h-54.5h-14z" />
    </font>
</defs>
</svg>
