<?xml version="1.0" standalone="no"?>
<!DOCTYPE svg PUBLIC "-//W3C//DTD SVG 1.1//EN" "http://www.w3.org/Graphics/SVG/1.1/DTD/svg11.dtd" >
<svg xmlns="http://www.w3.org/2000/svg" xmlns:xlink="http://www.w3.org/1999/xlink" version="1.1">
<metadata>
Created by FontForge 20170731 at Thu Dec 15 09:53:07 2022
 By Aleksey,,,
(c) 1988, 1990, 1994, 2002 Adobe Systems Incorporated. All rights reserved.
</metadata>
<defs>
<font id="FrutigerLTStd-Light" horiz-adv-x="1138" >
  <font-face 
    font-family="Frutiger LT Std 45 Light"
    font-weight="300"
    font-stretch="normal"
    units-per-em="2048"
    panose-1="2 11 4 2 2 2 4 2 2 4"
    ascent="1536"
    descent="-512"
    x-height="1044"
    cap-height="1430"
    bbox="-311 -512 2048 1866"
    underline-thickness="102"
    underline-position="-307"
    unicode-range="U+0020-FB02"
  />
<missing-glyph horiz-adv-x="1024" 
d="M0 0v1434h1024v-1434h-1024zM512 809l348 522h-696zM573 717l349 -522v1044zM164 102h696l-348 523zM102 1239v-1044l349 522z" />
    <glyph glyph-name="f_i" unicode="fi" 
d="M825 0v1044h129v-1044h-129zM954 1495v-172h-129v172h129zM250 0v934h-211v110h211v76q0 58 1 94.5t7 88t16.5 84t30.5 69t49 57t72.5 34.5t99.5 14q84 0 121 -21l-8 -113q-44 23 -102 23q-26 0 -47.5 -6t-37 -14.5t-27.5 -24.5t-20 -29t-13 -37t-8 -38.5t-4 -43
t-1.5 -41.5t0 -42.5t0.5 -38.5v-91h235v-110h-235v-934h-129z" />
    <glyph glyph-name="f_l" unicode="fl" 
d="M825 0v1536h129v-1536h-129zM250 0v934h-211v110h211v76q0 58 1 94.5t7 88t16.5 84t30.5 69t49 57t72.5 34.5t99.5 14q84 0 121 -21l-8 -113q-44 23 -102 23q-26 0 -47.5 -6t-37 -14.5t-27.5 -24.5t-20 -29t-13 -37t-8 -38.5t-4 -43t-1.5 -41.5t0 -42.5t0.5 -38.5v-91
h235v-110h-235v-934h-129z" />
    <glyph glyph-name=".notdef" horiz-adv-x="1024" 
d="M0 0v1434h1024v-1434h-1024zM512 809l348 522h-696zM573 717l349 -522v1044zM164 102h696l-348 523zM102 1239v-1044l349 522z" />
    <glyph glyph-name=".null" horiz-adv-x="0" 
 />
    <glyph glyph-name="nonmarkingreturn" horiz-adv-x="682" 
 />
    <glyph glyph-name="space" unicode=" " horiz-adv-x="569" 
 />
    <glyph glyph-name="exclam" unicode="!" horiz-adv-x="796" 
d="M481 1430l-24 -1084h-117l-25 1084h166zM315 0v172h166v-172h-166z" />
    <glyph glyph-name="quotedbl" unicode="&#x22;" 
d="M367 983v447h129v-447h-129zM643 983v447h129v-447h-129z" />
    <glyph glyph-name="numbersign" unicode="#" 
d="M219 0l64 449h-213v110h227l45 311h-219v111h233l64 449h125l-64 -449h267l63 449h125l-64 -449h197v-111h-211l-43 -311h197v-110h-213l-64 -449h-125l64 449h-266l-64 -449h-125zM690 559l43 311h-266l-43 -311h266z" />
    <glyph glyph-name="dollar" unicode="$" 
d="M631 629v-512q92 26 145 94.5t53 179.5q0 69 -51 124.5t-147 113.5zM526 846v475q-93 -19 -152 -77.5t-59 -158.5q0 -73 54 -127.5t157 -111.5zM526 1579h105v-125q154 0 276 -47l-22 -129q-86 50 -254 53v-543q61 -33 101 -57t90 -63.5t79 -78t49.5 -93.5t20.5 -117
q0 -84 -27.5 -152.5t-75.5 -115.5t-107.5 -77.5t-129.5 -45.5v-170h-105v159q-8 -2 -24 -2q-181 0 -324 62l15 145q133 -84 315 -84q10 0 18 2v588q-45 24 -73.5 40.5t-70 43t-67.5 48t-55.5 52.5t-46 61.5t-28 68.5t-11.5 79q0 145 97.5 242.5t254.5 122.5v133z" />
    <glyph glyph-name="percent" unicode="%" horiz-adv-x="2048" 
d="M1186 369q0 174 80 278.5t243 104.5t243.5 -104.5t80.5 -278.5t-80.5 -278.5t-243.5 -104.5t-243 104.5t-80 278.5zM1315 369q0 -41 5 -77.5t19 -73t35 -63t56 -43t79 -16.5q55 0 95 24t60.5 65.5t30 86.5t9.5 97t-9.5 97t-30 86t-60.5 65t-95 24t-95 -24t-60.5 -65
t-29.5 -86t-9 -97zM215 1061q0 174 80.5 278.5t243.5 104.5t243 -104.5t80 -278.5t-80 -278.5t-243 -104.5t-243.5 104.5t-80.5 278.5zM344 1061q0 -52 9.5 -97t30 -86.5t60.5 -65.5t95 -24q44 0 79 16.5t56 43t35 63t19 73t5 77.5q0 52 -9 97t-29.5 86t-60.5 65t-95 24
t-95 -24t-60.5 -65t-30 -86t-9.5 -97zM541 -45l845 1520h119l-846 -1520h-118z" />
    <glyph glyph-name="ampersand" unicode="&#x26;" horiz-adv-x="1366" 
d="M631 770l377 -420q122 175 122 434h123q0 -141 -40.5 -276t-118.5 -240l243 -264h-180l-151 160q-169 -189 -435 -189q-93 0 -175.5 24.5t-149 71.5t-105.5 125.5t-39 178.5q0 284 338 416q-46 53 -68.5 80.5t-55.5 76.5t-47.5 96.5t-14.5 98.5q0 98 58 170.5t144 106.5
t183 34q65 0 124.5 -18.5t107 -53.5t76 -92.5t28.5 -130.5q0 -78 -23.5 -137t-83.5 -107.5t-97.5 -70.5t-126.5 -67q-4 -3 -7 -4.5t-6 -2.5zM928 252l-416 459q-112 -44 -190 -131.5t-78 -198.5q0 -139 96.5 -217t234.5 -78q97 0 194.5 45.5t158.5 120.5zM395 1135
q0 -40 12.5 -78.5t41 -79.5t48.5 -65t60 -68q123 58 170 94q107 80 107 199q0 99 -55 152.5t-148 53.5q-98 0 -167 -54.5t-69 -153.5z" />
    <glyph glyph-name="quotesingle" unicode="'" horiz-adv-x="569" 
d="M221 983v447h129v-447h-129z" />
    <glyph glyph-name="parenleft" unicode="(" horiz-adv-x="569" 
d="M522 -287h-86q-64 101 -106 172t-93 172t-80.5 185t-50 186.5t-20.5 202.5t20.5 202.5t50 186.5t80.5 184.5t93 171.5t106 172h86q-61 -117 -91.5 -177t-79.5 -171t-73 -189t-43.5 -181t-19.5 -199t19.5 -199t43.5 -181.5t73 -189t79.5 -171t91.5 -177.5z" />
    <glyph glyph-name="parenright" unicode=")" horiz-adv-x="569" 
d="M47 1548h86q64 -101 106 -172t93 -171.5t80.5 -184.5t50 -186.5t20.5 -202.5t-20.5 -202.5t-50 -186.5t-80.5 -185t-93 -172t-106 -172h-86q61 117 91.5 177.5t79.5 171t73 189t43.5 181.5t19.5 199t-19.5 199t-43.5 181t-73 189t-79.5 171t-91.5 177z" />
    <glyph glyph-name="asterisk" unicode="*" 
d="M510 1430h119l-15 -314l297 115l39 -119l-301 -86l199 -244l-103 -77l-176 268l-172 -268l-100 77l192 244l-301 86l35 119l301 -115z" />
    <glyph glyph-name="plus" unicode="+" horiz-adv-x="1228" 
d="M94 449v141h449v448h141v-448h449v-141h-449v-449h-141v449h-449z" />
    <glyph glyph-name="comma" unicode="," horiz-adv-x="569" 
d="M111 -274l118 446h172l-161 -446h-129z" />
    <glyph glyph-name="hyphen" unicode="-" horiz-adv-x="681" 
d="M84 481v142h514v-142h-514z" />
    <glyph glyph-name="period" unicode="." horiz-adv-x="569" 
d="M201 0v172h166v-172h-166z" />
    <glyph glyph-name="slash" unicode="/" horiz-adv-x="569" 
d="M-63 -25l555 1479h141l-555 -1479h-141z" />
    <glyph glyph-name="zero" unicode="0" 
d="M569 1321q-62 0 -111.5 -21.5t-83 -56.5t-58.5 -86.5t-39 -102.5t-22 -115t-10.5 -114.5t-2.5 -109.5t2.5 -109.5t10.5 -114.5t22 -115t39 -102.5t58.5 -86.5t83 -56.5t111.5 -21.5t112 21.5t83.5 56.5t58.5 86.5t38.5 102.5t22 115t11 115t2.5 109t-2.5 109t-11 115
t-22 115t-38.5 102.5t-58.5 86.5t-83.5 56.5t-112 21.5zM569 1444q110 0 194.5 -44.5t135.5 -115t83 -169.5t44 -195.5t12 -204.5q0 -71 -4.5 -135t-17.5 -139.5t-34 -138.5t-57.5 -123t-84 -101.5t-117 -66.5t-154.5 -25t-154.5 25t-117 66.5t-84 101.5t-57.5 123
t-34 138.5t-17.5 139.5t-4.5 135q0 108 12 204.5t44 195.5t83 169.5t135.5 115t194.5 44.5z" />
    <glyph glyph-name="one" unicode="1" 
d="M252 1159l323 271h127v-1430h-141v1270l-231 -203z" />
    <glyph glyph-name="two" unicode="2" 
d="M102 0v123l328 362q74 82 128 148.5t107 144.5t81 150.5t28 134.5q0 113 -72.5 185.5t-179.5 72.5q-93 0 -174 -25t-170 -77l-24 129q196 96 360 96q88 0 162.5 -22.5t131 -67.5t88.5 -118t32 -167q0 -76 -33 -161.5t-97 -177t-121.5 -161.5t-141.5 -163l-259 -283h685
v-123h-859z" />
    <glyph glyph-name="three" unicode="3" 
d="M307 680v123h37q49 0 89 2t92 8.5t92.5 18.5t81.5 33.5t68.5 51t44.5 74t17 99.5q0 58 -29 103.5t-77 72.5t-104.5 41t-116.5 14q-158 0 -320 -76l-12 133q176 66 346 66q92 0 171.5 -20t144 -61t102 -111t37.5 -162q0 -128 -81.5 -218.5t-215.5 -123.5v-5
q139 -6 218 -102.5t79 -243.5q0 -126 -69.5 -221t-185.5 -142.5t-261 -47.5q-201 0 -353 57l17 135q147 -69 344 -69q68 0 130.5 17t116.5 51.5t86.5 94.5t32.5 138q0 59 -17.5 105t-50 74.5t-69.5 47.5t-85 28t-86 12t-83 3h-131z" />
    <glyph glyph-name="four" unicode="4" 
d="M729 453v835h-4l-549 -835h553zM47 330v139l643 961h180v-977h211v-123h-211v-330h-141v330h-682z" />
    <glyph glyph-name="five" unicode="5" 
d="M938 1430v-123h-592l-10 -459q91 31 217 31q208 0 328 -111t120 -307q0 -230 -142 -352.5t-378 -122.5q-173 0 -305 51v145q134 -73 305 -73q57 0 111 12t103 38t85.5 63t58 91t21.5 119q0 165 -88 244.5t-270 79.5q-158 0 -309 -45l14 719h731z" />
    <glyph glyph-name="six" unicode="6" 
d="M571 -14q-79 0 -144.5 20.5t-112 55t-82.5 86t-58 108.5t-36 127t-19.5 137.5t-5.5 143.5q0 134 20.5 247.5t68 213.5t120.5 169.5t184 109.5t252 40q90 0 229 -33l-12 -135q-98 45 -236 45q-107 2 -192.5 -32t-139 -90.5t-89 -135.5t-50 -161.5t-14.5 -174.5h4
q54 87 143 131.5t193 44.5q61 0 119 -12t118.5 -43.5t105 -80t73 -128.5t28.5 -182q0 -212 -125 -341.5t-342 -129.5zM594 780q-152 0 -239 -87t-87 -230q0 -92 31.5 -170t103 -131t172.5 -53q152 0 237 93.5t85 243.5q0 159 -77.5 246.5t-225.5 87.5z" />
    <glyph glyph-name="seven" unicode="7" 
d="M283 0l569 1307h-733v123h872v-123l-553 -1307h-155z" />
    <glyph glyph-name="eight" unicode="8" 
d="M139 1110q0 69 28 126.5t73 95t102.5 63.5t114.5 37.5t112 11.5q68 0 130 -12t117 -38.5t95 -65t63 -94.5t23 -124q0 -207 -292 -367q65 -23 111 -44.5t92 -53.5t73.5 -69t45 -90t17.5 -119q0 -81 -27.5 -147t-73.5 -109t-108 -71.5t-128.5 -41t-137.5 -12.5
q-70 0 -137 14t-128.5 45t-108 74.5t-74 107.5t-27.5 140q0 79 24 140.5t72.5 105t102.5 73t131 57.5q-285 136 -285 367zM903 379q0 43 -17 81t-39.5 64t-63 53t-68.5 41.5t-77 38t-69 33.5q-140 -57 -184 -83q-123 -71 -144 -183q-5 -27 -5 -57q0 -77 49.5 -137
t124.5 -90.5t159 -30.5q66 0 123.5 15t106 45.5t76.5 84.5t28 125zM281 1098q0 -34 10.5 -66t25 -55.5t42 -49t47.5 -41t55.5 -35.5t53.5 -29.5t54 -26.5q58 28 101 54.5t89.5 64.5t71.5 85t25 99q0 72 -45 124.5t-108.5 75.5t-133.5 23q-121 0 -204.5 -58t-83.5 -165z" />
    <glyph glyph-name="nine" unicode="9" 
d="M567 1444q459 0 459 -678q0 -134 -20.5 -247.5t-68 -213.5t-120.5 -169.5t-184 -109.5t-252 -40q-94 0 -229 32l12 136q98 -45 235 -45q90 -1 164.5 21.5t126.5 65t90.5 98t61 124t33 138.5t10.5 146h-4q-54 -87 -143 -131.5t-193 -44.5q-61 0 -119 12t-118.5 44
t-105.5 80.5t-73.5 128.5t-28.5 182q0 212 125 341.5t342 129.5zM545 649q151 0 238 87.5t87 230.5q0 92 -31.5 170t-103 131t-172.5 53q-152 0 -236.5 -94t-84.5 -244q0 -159 77.5 -246.5t225.5 -87.5z" />
    <glyph glyph-name="colon" unicode=":" horiz-adv-x="569" 
d="M367 1044v-172h-166v172h166zM201 0v172h166v-172h-166z" />
    <glyph glyph-name="semicolon" unicode=";" horiz-adv-x="569" 
d="M111 -274l118 446h172l-161 -446h-129zM367 1044v-172h-166v172h166z" />
    <glyph glyph-name="less" unicode="&#x3c;" horiz-adv-x="1228" 
d="M1133 1053v-135l-881 -400l881 -399v-135l-1039 471v127z" />
    <glyph glyph-name="equal" unicode="=" horiz-adv-x="1228" 
d="M94 653v142h1039v-142h-1039zM94 242v141h1039v-141h-1039z" />
    <glyph glyph-name="greater" unicode="&#x3e;" horiz-adv-x="1228" 
d="M96 -16v135l883 399l-883 400v135l1039 -471v-127z" />
    <glyph glyph-name="question" unicode="?" horiz-adv-x="1024" 
d="M182 1274l-6 129q169 51 299 51q81 0 150.5 -22t124.5 -65.5t86.5 -115.5t31.5 -164q0 -68 -19.5 -127.5t-50 -104t-68 -86t-75 -82.5t-68 -84.5t-50 -101.5t-19.5 -124v-31h-129v27q0 76 18.5 139.5t48.5 109t66 86t72 79.5t66 80.5t48.5 97.5t18.5 122q0 112 -72.5 178
t-185.5 66q-52 0 -106.5 -9t-89.5 -19t-91 -29zM373 0v172h166v-172h-166z" />
    <glyph glyph-name="at" unicode="@" horiz-adv-x="1638" 
d="M545 594q3 -93 42.5 -145t104.5 -52q71 0 136 43.5t107.5 109t67.5 140t25 139.5q0 98 -49 141.5t-115 43.5q-50 0 -105.5 -31.5t-103 -85.5t-79 -134.5t-31.5 -168.5zM1262 1102l-175 -557q-20 -58 -20 -101q0 -47 45 -47q117 0 209 131.5t92 307.5q0 153 -84.5 267.5
t-217 171t-290.5 56.5q-170 0 -308 -79t-217 -220t-79 -315q0 -176 79 -318t217 -221.5t308 -79.5t311.5 61.5t229.5 166.5h125q-96 -165 -271.5 -258t-394.5 -93q-143 0 -265 41.5t-208 112.5t-147 166t-90 201.5t-29 218.5q0 113 29 219.5t90 201t147 165.5t208 112
t265 41q108 0 213 -25t198 -77t163.5 -124t111.5 -173.5t41 -218.5q0 -124 -48 -234t-119.5 -179.5t-150 -109t-145.5 -39.5q-137 0 -161 125h-4q-33 -38 -58 -60.5t-77 -43.5t-117 -21q-120 0 -198.5 90t-78.5 218q0 135 57.5 261t168.5 210t247 84q74 0 133 -39t93 -119
l43 123h129z" />
    <glyph glyph-name="A" unicode="A" horiz-adv-x="1366" 
d="M27 0l585 1430h160l567 -1430h-147l-154 383h-721l-153 -383h-137zM991 506l-309 788l-311 -788h620z" />
    <glyph glyph-name="B" unicode="B" 
d="M164 0v1430h340q93 0 170 -17.5t142.5 -56t102.5 -109.5t37 -170q0 -273 -260 -325v-4q139 -25 221 -113.5t82 -226.5q0 -91 -29 -161.5t-78.5 -116.5t-121 -75.5t-150 -42t-171.5 -12.5h-285zM305 682v-559h148q62 0 115.5 7t108.5 26t93.5 49t63 80t24.5 116
q0 73 -25.5 126.5t-64 82.5t-99 46t-114 21.5t-125.5 4.5h-125zM309 1307v-502h158q50 0 94 5.5t92.5 23t82.5 45.5t56.5 77.5t22.5 114.5q0 59 -21.5 103.5t-52.5 69t-75.5 39.5t-82 19.5t-79.5 4.5h-195z" />
    <glyph glyph-name="C" unicode="C" horiz-adv-x="1366" 
d="M1165 1401l-8 -131q-117 61 -319 61q-181 0 -314 -80.5t-199.5 -219t-66.5 -316.5q0 -182 65.5 -320t198 -217.5t316.5 -79.5q215 0 319 62l8 -123q-53 -32 -148 -47t-179 -15q-222 0 -386 93t-249.5 259.5t-85.5 387.5q0 216 87.5 383.5t252 261.5t381.5 94
q79 0 178 -13.5t149 -39.5z" />
    <glyph glyph-name="D" unicode="D" horiz-adv-x="1366" 
d="M305 1307v-1184h117q670 0 670 602q0 127 -30 227.5t-82 166t-126.5 108.5t-158.5 61.5t-183 18.5h-207zM164 0v1430h354q188 0 327 -52t223 -148.5t124.5 -224t40.5 -288.5q0 -152 -40 -273t-111.5 -203.5t-175 -137t-225.5 -79t-267 -24.5h-250z" />
    <glyph glyph-name="E" unicode="E" horiz-adv-x="1024" 
d="M176 0v1430h701v-123h-560v-510h531v-123h-531v-551h584v-123h-725z" />
    <glyph glyph-name="F" unicode="F" horiz-adv-x="909" 
d="M158 0v1430h680v-123h-539v-510h514v-123h-514v-674h-141z" />
    <glyph glyph-name="G" unicode="G" horiz-adv-x="1478" 
d="M1155 150v501h-332v123h473v-711q-203 -88 -444 -88q-222 0 -386 93t-249.5 259.5t-85.5 387.5q0 216 87.5 383.5t252 261.5t381.5 94q96 0 206.5 -17t176.5 -51l-16 -131q-138 76 -367 76q-181 0 -314 -80.5t-199.5 -219t-66.5 -316.5q0 -182 65.5 -320t198 -217.5
t316.5 -79.5q83 0 170 12t133 40z" />
    <glyph glyph-name="H" unicode="H" horiz-adv-x="1366" 
d="M180 0v1430h142v-633h722v633h142v-1430h-142v674h-722v-674h-142z" />
    <glyph glyph-name="I" unicode="I" horiz-adv-x="454" 
d="M158 0v1430h141v-1430h-141z" />
    <glyph glyph-name="J" unicode="J" horiz-adv-x="681" 
d="M512 1430v-1061q0 -84 -19.5 -154t-59 -124.5t-105 -85t-152.5 -30.5q-80 0 -147 25v125q55 -27 133 -27q110 0 159.5 74.5t49.5 192.5v1065h141z" />
    <glyph glyph-name="K" unicode="K" horiz-adv-x="1251" 
d="M195 0v1430h141v-642l643 642h184l-692 -674l752 -756h-195l-692 715v-715h-141z" />
    <glyph glyph-name="L" unicode="L" horiz-adv-x="909" 
d="M164 0v1430h141v-1307h574v-123h-715z" />
    <glyph glyph-name="M" unicode="M" horiz-adv-x="1820" 
d="M176 0v1430h219l523 -1258l524 1258h203v-1430h-142v1288h-4l-520 -1288h-121l-536 1288h-5v-1288h-141z" />
    <glyph glyph-name="N" unicode="N" horiz-adv-x="1366" 
d="M158 0v1430h178l727 -1258h4v1258h141v-1430h-190l-715 1233h-4v-1233h-141z" />
    <glyph glyph-name="O" unicode="O" horiz-adv-x="1478" 
d="M111 715q-2 148 36.5 279t114 235t198.5 164.5t279 60.5q126 0 230.5 -39.5t178 -109t124 -163.5t74 -201.5t22.5 -225.5q-2 -222 -72 -386.5t-212.5 -259t-344.5 -94.5q-152 0 -271 54t-196.5 152t-118 233.5t-42.5 300.5zM739 1331q-98 0 -179.5 -35t-137.5 -94.5
t-95 -139t-57 -167t-18 -180.5t18 -180.5t57 -167.5t95 -139.5t137.5 -94.5t179.5 -35t179.5 35t137.5 94.5t95.5 139.5t57.5 167.5t18 180.5t-18 180.5t-57.5 167t-95.5 139t-137.5 94.5t-179.5 35z" />
    <glyph glyph-name="P" unicode="P" horiz-adv-x="1024" 
d="M176 0v1430h352q206 0 324.5 -104t118.5 -302q0 -129 -61.5 -222.5t-163.5 -138.5t-232 -45h-197v-618h-141zM317 1307v-566h99q51 0 90 2t84.5 9t78 19t64.5 33.5t52 50.5t32 72t12 97q0 135 -73.5 209t-208.5 74h-230z" />
    <glyph glyph-name="Q" unicode="Q" horiz-adv-x="1478" 
d="M1298 -266h-188l-254 252q-27 -6 -57 -9q-18 -2 -60 -2q-152 0 -271 54t-196.5 152t-118 233.5t-42.5 300.5q-2 148 36.5 279t114 235t198.5 164.5t279 60.5q126 0 230.5 -39.5t178 -109t124 -163.5t74 -201.5t22.5 -225.5q-2 -169 -43.5 -306t-125 -236.5t-202.5 -147.5
zM739 1331q-98 0 -179.5 -35t-137.5 -94.5t-95 -139t-57 -167t-18 -180.5t18 -180.5t57 -167.5t95 -139.5t137.5 -94.5t179.5 -35t179.5 35t137.5 94.5t95.5 139.5t57.5 167.5t18 180.5t-18 180.5t-57.5 167t-95.5 139t-137.5 94.5t-179.5 35z" />
    <glyph glyph-name="R" unicode="R" 
d="M322 1307v-510h149q67 0 126.5 13.5t113 42.5t85 82t31.5 124q0 49 -10 87t-26.5 64t-44.5 44.5t-55 28.5t-68 15.5t-74.5 7t-81.5 1.5h-145zM180 0v1430h369q199 0 309.5 -90.5t110.5 -280.5q0 -134 -90.5 -223t-227.5 -107v-4q34 -4 60 -15.5t41 -22t33 -38t25 -41.5
t26 -55l243 -553h-155l-207 483q-24 55 -48.5 90.5t-45.5 56t-53 30.5t-58 12t-74 2h-116v-674h-142z" />
    <glyph glyph-name="S" unicode="S" horiz-adv-x="1024" 
d="M123 37l14 145q133 -84 316 -84q141 0 231 74t90 219q0 50 -28 95t-74 78.5t-105 69.5t-120.5 67t-120.5 71t-105 82.5t-74 101t-28 125.5q0 168 129 270.5t323 102.5q157 0 281 -47l-23 -129q-95 53 -260 53q-58 0 -110.5 -13t-98.5 -40.5t-73 -77t-27 -115.5
q0 -58 36 -107t94 -86t127.5 -73t139.5 -77.5t128 -89.5t94 -118t36 -155q0 -84 -27.5 -153t-73.5 -114.5t-107.5 -77t-127 -45.5t-133.5 -14q-180 0 -323 62z" />
    <glyph glyph-name="T" unicode="T" horiz-adv-x="1024" 
d="M442 0v1307h-422v123h986v-123h-422v-1307h-142z" />
    <glyph glyph-name="U" unicode="U" horiz-adv-x="1366" 
d="M1202 1430v-930q0 -121 -34.5 -216t-87.5 -151.5t-124 -93.5t-137.5 -50.5t-134.5 -13.5t-134.5 13.5t-137.5 50.5t-124 93.5t-87.5 151.5t-34.5 216v930h141v-930q0 -181 98 -291.5t279 -110.5t279 110.5t98 291.5v930h141z" />
    <glyph glyph-name="V" unicode="V" horiz-adv-x="1251" 
d="M1239 1430l-543 -1430h-151l-533 1430h150l461 -1289l477 1289h139z" />
    <glyph glyph-name="W" unicode="W" horiz-adv-x="1933" 
d="M1915 1430l-414 -1430h-168l-362 1270h-4l-369 -1270h-170l-410 1430h146l352 -1270h4l367 1270h170l360 -1270h4l359 1270h135z" />
    <glyph glyph-name="X" unicode="X" horiz-adv-x="1251" 
d="M14 0l533 752l-479 678h165l402 -578l405 578h158l-481 -678l520 -752h-172l-436 651l-453 -651h-162z" />
    <glyph glyph-name="Y" unicode="Y" horiz-adv-x="1251" 
d="M555 0v606l-530 824h163l437 -699l448 699h154l-531 -824v-606h-141z" />
    <glyph glyph-name="Z" unicode="Z" horiz-adv-x="1024" 
d="M43 0v123l745 1184h-727v123h877v-123l-741 -1184h766v-123h-920z" />
    <glyph glyph-name="bracketleft" unicode="[" horiz-adv-x="569" 
d="M141 -287v1835h332v-98h-203v-1638h203v-99h-332z" />
    <glyph glyph-name="backslash" unicode="\" horiz-adv-x="569" 
d="M78 1454l555 -1479h-141l-555 1479h141z" />
    <glyph glyph-name="bracketright" unicode="]" horiz-adv-x="569" 
d="M428 1548v-1835h-332v99h203v1638h-203v98h332z" />
    <glyph glyph-name="asciicircum" unicode="^" horiz-adv-x="1228" 
d="M102 543l447 887h131l446 -887h-145l-367 745l-366 -745h-146z" />
    <glyph glyph-name="underscore" unicode="_" horiz-adv-x="1024" 
d="M0 -154h1024v-102h-1024v102z" />
    <glyph glyph-name="grave" unicode="`" horiz-adv-x="454" 
d="M154 1466l190 -295h-94l-258 295h162z" />
    <glyph glyph-name="a" unicode="a" horiz-adv-x="1024" 
d="M762 0v168h-4q-41 -90 -135.5 -141.5t-196.5 -51.5q-85 0 -149.5 22t-100.5 54t-58 75t-29 77t-7 67q0 73 22.5 130.5t57 95.5t89.5 65.5t106.5 41.5t123 22t123 10t121.5 2h25v53q0 137 -55 202.5t-183 65.5q-172 0 -307 -86v125q61 30 150 51t157 21q193 0 280 -92.5
t87 -296.5v-461q0 -147 10 -219h-127zM750 463v63h-37q-64 0 -114.5 -3t-111 -11.5t-104 -26t-82 -44t-58.5 -69.5t-20 -98q0 -97 60 -142.5t157 -45.5q62 0 112 15.5t82 38.5t55 59.5t34.5 67.5t18 72.5t7.5 66t1 57.5z" />
    <glyph glyph-name="b" unicode="b" 
d="M150 0v1536h129v-668h4q6 18 20.5 41t43 52t63.5 52.5t87.5 39.5t110.5 16q112 0 196 -40.5t134.5 -115t75 -172t24.5 -219.5q0 -117 -27.5 -216t-79.5 -173t-135 -116t-188 -42q-114 0 -193.5 46t-131.5 145h-4v-166h-129zM897 522q0 65 -8 123.5t-30 117t-55.5 100.5
t-89 68.5t-126.5 26.5q-84 0 -147 -40.5t-96.5 -107t-49.5 -139t-16 -149.5q0 -60 10 -118.5t33.5 -116.5t57.5 -102t88 -71.5t120 -27.5q71 0 126.5 26.5t89 68.5t55.5 100.5t30 117t8 123.5z" />
    <glyph glyph-name="c" unicode="c" horiz-adv-x="909" 
d="M852 1028l-10 -123q-120 53 -224 53q-185 0 -289 -120.5t-104 -315.5q0 -120 44.5 -218.5t132 -158t202.5 -59.5q110 0 236 47l12 -121q-105 -37 -268 -37q-122 0 -219 44t-157.5 120.5t-92 174t-31.5 208.5q0 242 142.5 394.5t373.5 152.5q126 0 252 -41z" />
    <glyph glyph-name="d" unicode="d" 
d="M989 1536v-1536h-129v166h-4q-52 -99 -132 -145t-194 -46q-105 0 -188 42t-135 116t-79.5 173t-27.5 216q0 122 24.5 219.5t75 172t134.5 115t196 40.5q72 0 134 -23.5t100.5 -58.5t61 -65.5t30.5 -53.5h4v668h129zM242 522q0 -65 8 -123.5t30 -117t55.5 -100.5t89 -68.5
t126.5 -26.5q66 0 120 27.5t88 71.5t57.5 102t33.5 116.5t10 118.5t-10 118.5t-33.5 116.5t-57.5 102t-88 71.5t-120 27.5q-71 0 -126.5 -26.5t-89 -68.5t-55.5 -100.5t-30 -117t-8 -123.5z" />
    <glyph glyph-name="e" unicode="e" horiz-adv-x="1024" 
d="M862 164v-131q-141 -58 -303 -58q-126 0 -219.5 41t-148.5 116t-81 172t-26 218q0 241 121.5 394t318.5 153q86 0 156 -27t118 -74t80.5 -113t47 -142t14.5 -162v-66h-715q0 -173 90.5 -286t253.5 -113q69 0 157.5 24t135.5 54zM225 596h574q0 56 -9 107.5t-29.5 98.5
t-51 81t-76 54.5t-101.5 20.5q-69 0 -128 -32.5t-97.5 -84.5t-60 -116t-21.5 -129z" />
    <glyph glyph-name="f" unicode="f" horiz-adv-x="681" 
d="M250 0v934h-211v110h211v76q0 58 1 94.5t7 88t16.5 84t30.5 69t49 57t72.5 34.5t99.5 14q84 0 121 -21l-8 -113q-44 23 -102 23q-26 0 -47.5 -6t-37 -14.5t-27.5 -24.5t-20 -29t-13 -37t-8 -38.5t-4 -43t-1.5 -41.5t0 -42.5t0.5 -38.5v-91h235v-110h-235v-934h-129z" />
    <glyph glyph-name="g" unicode="g" 
d="M242 522q0 -80 17 -151t51 -130.5t94 -94.5t139 -35q83 0 147 37t99.5 98t53 131t17.5 145q0 99 -15.5 175t-50 136.5t-96 92.5t-147.5 32q-71 0 -126.5 -26.5t-89 -68.5t-55.5 -100.5t-30 -117t-8 -123.5zM989 1044v-958q0 -113 -26.5 -206t-83 -166.5t-153 -114.5
t-226.5 -41q-134 0 -316 55l11 129q144 -74 307 -74q70 0 124.5 15t92 39t64.5 65t42 82t23.5 101t11 111.5t2.5 123.5h-4q-94 -205 -317 -205q-96 0 -173.5 32.5t-126.5 84.5t-81.5 122t-46 140t-13.5 143q0 122 24.5 219.5t75 172t134.5 115t196 40.5q115 0 187 -27.5
t139 -115.5h4v118h129z" />
    <glyph glyph-name="h" unicode="h" 
d="M162 0v1536h129v-668h4q43 90 128.5 145.5t197.5 55.5q82 0 144.5 -22t102.5 -59.5t64.5 -95t34.5 -122t10 -145.5v-625h-129v623q0 59 -5 104.5t-21 90.5t-42.5 74.5t-72 47.5t-107.5 18q-66 0 -119.5 -24t-88.5 -63.5t-58 -92.5t-33 -107.5t-10 -111.5v-559h-129z" />
    <glyph glyph-name="i" unicode="i" horiz-adv-x="454" 
d="M162 0v1044h129v-1044h-129zM291 1495v-172h-129v172h129z" />
    <glyph glyph-name="j" unicode="j" horiz-adv-x="454" 
d="M-57 -432v113q39 -13 77 -13t65 11t41.5 27.5t23 45t10.5 54t2 63.5v1175h129v-1191q0 -67 -11 -117.5t-36.5 -92t-73 -63.5t-115.5 -22q-62 0 -112 10zM291 1495v-172h-129v172h129z" />
    <glyph glyph-name="k" unicode="k" horiz-adv-x="1024" 
d="M162 0v1536h129v-920l467 428h166l-510 -462l571 -582h-178l-516 537v-537h-129z" />
    <glyph glyph-name="l" unicode="l" horiz-adv-x="454" 
d="M162 0v1536h129v-1536h-129z" />
    <glyph glyph-name="m" unicode="m" horiz-adv-x="1705" 
d="M1552 0h-129v694q0 121 -52 192.5t-169 71.5q-115 0 -197.5 -98t-82.5 -282v-578h-129v694q0 120 -52.5 192t-169.5 72q-115 0 -197.5 -98t-82.5 -282v-578h-129v799q0 161 -8 245h125v-176l4 -2q42 74 68 103q90 100 257 100q39 0 78 -9.5t81.5 -32t74 -69t43.5 -110.5
h4q37 96 126 158.5t208 62.5q155 0 242 -97t87 -253v-719z" />
    <glyph glyph-name="n" unicode="n" 
d="M162 0v799q0 161 -8 245h125v-186h4q19 42 41.5 74t61 66t98.5 52.5t137 18.5q94 0 164 -30t111 -85t61 -126t20 -160v-668h-129v635q0 323 -248 323q-68 0 -122.5 -23t-88.5 -60.5t-57 -88t-32 -102t-9 -106.5v-578h-129z" />
    <glyph glyph-name="o" unicode="o" 
d="M82 522q0 110 29.5 206.5t87 173.5t153 122t217.5 45t218 -45t153.5 -122t87 -173.5t29.5 -206.5t-29.5 -206.5t-87 -173.5t-153.5 -122t-218 -45t-217.5 45t-153 122t-87 173.5t-29.5 206.5zM223 522q0 -189 91.5 -312.5t254.5 -123.5t254.5 123.5t91.5 312.5
t-91.5 312.5t-254.5 123.5t-254.5 -123.5t-91.5 -312.5z" />
    <glyph glyph-name="p" unicode="p" 
d="M150 -430v1474h129l-9 -190h4q45 77 81 114q100 101 253 101q112 0 196 -40.5t134.5 -115t75 -172t24.5 -219.5q0 -117 -27.5 -216t-79.5 -173t-135 -116t-188 -42q-121 0 -199 50t-126 153h-4v-608h-129zM897 522q0 65 -8 123.5t-30 117t-55.5 100.5t-89 68.5
t-126.5 26.5q-66 0 -120 -27.5t-88 -71.5t-57.5 -102t-33.5 -116.5t-10 -118.5t10 -118.5t33.5 -116.5t57.5 -102t88 -71.5t120 -27.5q71 0 126.5 26.5t89 68.5t55.5 100.5t30 117t8 123.5z" />
    <glyph glyph-name="q" unicode="q" 
d="M989 1044v-1474h-129v608h-4q-48 -103 -126.5 -153t-199.5 -50q-105 0 -188 42t-135 116t-79.5 173t-27.5 216q0 122 24.5 219.5t75 172t134.5 115t196 40.5q40 0 76.5 -7.5t63.5 -17.5t53.5 -27.5t42.5 -30.5t34 -34.5t25 -31t19 -28.5l12 -18h4v170h129zM242 522
q0 -65 8 -123.5t30 -117t55.5 -100.5t89 -68.5t126.5 -26.5q66 0 120 27.5t88 71.5t57.5 102t33.5 116.5t10 118.5t-10 118.5t-33.5 116.5t-57.5 102t-88 71.5t-120 27.5q-71 0 -126.5 -26.5t-89 -68.5t-55.5 -100.5t-30 -117t-8 -123.5z" />
    <glyph glyph-name="r" unicode="r" horiz-adv-x="681" 
d="M162 0v811q0 157 -8 233h129v-200h4q39 98 107 161.5t161 63.5q44 0 90 -12v-135q-41 12 -94 12q-73 0 -126.5 -38t-81 -102t-40 -132.5t-12.5 -145.5v-516h-129z" />
    <glyph glyph-name="s" unicode="s" horiz-adv-x="796" 
d="M70 25l12 127q132 -66 272 -66q97 0 164.5 50t67.5 136q0 50 -27.5 90t-72 67.5t-98 52.5t-107 52t-98 59t-72 81t-27.5 110q0 75 28.5 131.5t77.5 89t108 48.5t126 16q134 0 258 -47l-12 -113q-107 49 -232 49q-108 0 -166.5 -40t-58.5 -134q0 -39 28.5 -71t73.5 -56
t100 -48t110 -53.5t100 -66t73.5 -92.5t28.5 -125q0 -64 -23 -115.5t-60 -84.5t-85.5 -55.5t-97.5 -32t-99 -9.5q-168 0 -292 50z" />
    <glyph glyph-name="t" unicode="t" horiz-adv-x="681" 
d="M612 1044v-110h-237v-676q0 -77 33 -124.5t106 -47.5q53 0 119 25l8 -107q-75 -29 -158 -29q-48 0 -85 10t-62 25t-42.5 43t-26.5 53t-14 66.5t-6 72t-1 79.5v610h-205v110h205v252l129 45v-297h237z" />
    <glyph glyph-name="u" unicode="u" 
d="M977 1044v-798q0 -162 8 -246h-125v186h-4q-19 -42 -41.5 -74t-61 -66t-98.5 -52.5t-137 -18.5q-94 0 -164 30t-111 85.5t-61 126.5t-20 160v667h129v-634q0 -324 248 -324q84 0 147 34.5t96.5 92t49.5 121t16 133.5v577h129z" />
    <glyph glyph-name="v" unicode="v" horiz-adv-x="909" 
d="M891 1044l-367 -1044h-151l-355 1044h142l289 -903h4l303 903h135z" />
    <glyph glyph-name="w" unicode="w" horiz-adv-x="1593" 
d="M1579 1044l-344 -1044h-156l-284 903h-4l-285 -903h-156l-336 1044h142l274 -903h4l291 903h156l276 -903h4l289 903h129z" />
    <glyph glyph-name="x" unicode="x" horiz-adv-x="909" 
d="M16 0l367 553l-332 491h160l248 -389l252 389h147l-323 -491l358 -553h-160l-274 451l-293 -451h-150z" />
    <glyph glyph-name="y" unicode="y" horiz-adv-x="909" 
d="M160 1044l293 -870h2l301 870h135l-418 -1200q-21 -60 -43 -106t-54 -89.5t-75.5 -67t-95.5 -23.5q-70 0 -139 16l12 111q53 -17 96 -17q40 0 69.5 15t51.5 49.5t35.5 69.5t31.5 94l27 92l-371 1056h142z" />
    <glyph glyph-name="z" unicode="z" horiz-adv-x="909" 
d="M66 0v109l628 825h-604v110h754v-110l-629 -823h629v-111h-778z" />
    <glyph glyph-name="braceleft" unicode="{" horiz-adv-x="569" 
d="M559 1548v-98h-102q-46 0 -68 -54t-22 -136v-338q0 -70 -19.5 -126.5t-49.5 -89t-56 -50.5t-47 -23v-4q16 -4 36 -15t44.5 -34.5t44.5 -55t33.5 -81t13.5 -107.5v-332q0 -83 22 -137.5t68 -54.5h102v-99h-115q-89 0 -147.5 67.5t-58.5 182.5v348q0 118 -40.5 194.5
t-119.5 76.5v98q79 0 119.5 77t40.5 199v344q0 115 58.5 181.5t149.5 66.5h113z" />
    <glyph glyph-name="bar" unicode="|" horiz-adv-x="454" 
d="M158 1536h141v-2048h-141v2048z" />
    <glyph glyph-name="braceright" unicode="}" horiz-adv-x="569" 
d="M10 -287v99h103q46 0 68 54t22 136v338q0 70 19.5 126.5t49.5 89t56 50.5t47 23v4q-16 4 -36 15t-44.5 34.5t-44.5 55t-33.5 81t-13.5 107.5v331q0 83 -22 138t-68 55h-103v98h115q89 0 148 -67.5t59 -182.5v-348q0 -118 40.5 -194t119.5 -76v-98q-79 0 -119.5 -77.5
t-40.5 -199.5v-344q0 -115 -59 -181.5t-150 -66.5h-113z" />
    <glyph glyph-name="asciitilde" unicode="~" horiz-adv-x="1228" 
d="M1014 664l73 -105q-97 -186 -256 -186q-35 0 -80.5 13.5t-71 24.5t-81.5 38q-6 3 -25.5 12l-26 12t-23 11t-24.5 11t-22 8.5t-22.5 8t-20 5.5t-21 4t-18.5 1q-29 0 -55 -11.5t-49 -36t-38.5 -45.5t-37.5 -56l-74 104q98 187 256 187q82 0 234 -74q55 -27 79 -38.5
t61.5 -24.5t62.5 -13q29 0 55 12t49 36.5t38.5 45.5t37.5 56z" />
    <glyph glyph-name="uni00A0" unicode="&#xa0;" horiz-adv-x="569" 
 />
    <glyph glyph-name="exclamdown" unicode="&#xa1;" horiz-adv-x="796" 
d="M315 -385l25 1083h117l24 -1083h-166zM481 1044v-172h-166v172h166z" />
    <glyph glyph-name="cent" unicode="&#xa2;" 
d="M489 170l263 786q-6 2 -15 2q-185 0 -289 -120.5t-104 -315.5q0 -108 38 -201t107 -151zM834 1204h96l-51 -151q38 -7 92 -25l-10 -123q-55 24 -117 39l-275 -823q72 -35 154 -35q109 0 235 47l13 -121q-105 -37 -269 -37q-95 0 -172 29l-63 -190h-96l75 225
q-118 66 -180.5 195t-62.5 288q0 242 142.5 394.5t373.5 152.5q46 0 69 -4z" />
    <glyph glyph-name="sterling" unicode="&#xa3;" 
d="M137 0v123h211v588h-186v110h186v101q0 84 11.5 155.5t42.5 141t80 118t129.5 78t185.5 29.5q72 0 135 -13.5t94 -29.5l-20 -127q-76 47 -209 47q-57 0 -103.5 -13.5t-78.5 -35t-55 -54.5t-36.5 -67.5t-21.5 -78t-10.5 -81t-2.5 -82.5v-88h340v-110h-340v-588h504v-123
h-856z" />
    <glyph glyph-name="currency" unicode="&#xa4;" 
d="M55 289l117 112q-111 138 -111 314q0 187 111 309l-117 113l88 92l117 -115q62 52 144 80.5t165 28.5q178 0 312 -109l110 115l92 -92l-110 -113q104 -121 104 -309q0 -187 -104 -314l110 -112l-92 -88l-110 114q-123 -108 -312 -108q-186 0 -309 108l-117 -114zM569 330
q159 0 263 113.5t104 271.5q0 101 -46 189t-131.5 142t-189.5 54q-155 -6 -260.5 -119t-105.5 -266q0 -167 106 -279t260 -106z" />
    <glyph glyph-name="yen" unicode="&#xa5;" 
d="M500 0v358h-295v99h295v153l-6 13h-289v98h233l-399 709h156l374 -691l385 691h146l-398 -709h234v-98h-289l-6 -13v-153h295v-99h-295v-358h-141z" />
    <glyph glyph-name="brokenbar" unicode="&#xa6;" horiz-adv-x="454" 
d="M158 1382h141v-716h-141v716zM158 358h141v-716h-141v716z" />
    <glyph glyph-name="section" unicode="&#xa7;" 
d="M862 1409l-14 -119q-36 19 -108.5 36t-135.5 17q-41 0 -85 -10t-86 -29t-69.5 -54.5t-27.5 -80.5q0 -54 34 -96.5t88 -71.5t119.5 -55.5t131 -56.5t119.5 -65.5t88 -92t34 -127.5q0 -45 -10.5 -82.5t-38.5 -76t-44 -56.5t-60 -63q70 -39 114.5 -100.5t44.5 -141.5
q0 -75 -30.5 -134.5t-76.5 -95t-104.5 -59.5t-109 -32.5t-94.5 -8.5q-178 0 -346 58l14 120q148 -67 332 -67q65 0 125.5 22t104.5 73t44 120q0 51 -35 91t-90.5 66.5t-123.5 51.5t-135.5 54t-123 65.5t-90.5 94.5t-35 132q0 75 43.5 136.5t118.5 127.5l18 16l-14 9
q-153 89 -153 223q0 80 34.5 141.5t90.5 96t118.5 52t126.5 17.5q155 0 297 -45zM641 782l-178 84l-14 -8q-40 -23 -82.5 -84.5t-42.5 -130.5q0 -107 133 -164l239 -104l43 43q78 78 78 162q0 42 -12.5 73.5t-41 55.5t-53 38t-69.5 35z" />
    <glyph glyph-name="dieresis" unicode="&#xa8;" horiz-adv-x="454" 
d="M326 1237v172h153v-172h-153zM-25 1237v172h154v-172h-154z" />
    <glyph glyph-name="copyright" unicode="&#xa9;" horiz-adv-x="1638" 
d="M221 715q0 -175 77.5 -319t215.5 -227t307 -83q167 0 304 83t214.5 227t77.5 319t-77.5 319t-214.5 226.5t-304 82.5q-127 0 -238.5 -48.5t-191 -132.5t-125 -200t-45.5 -247zM1085 573h125q-31 -147 -129.5 -233t-234.5 -86q-198 0 -320.5 131.5t-122.5 329.5
q0 204 118.5 333.5t318.5 129.5q144 0 245.5 -81t122.5 -229h-123q-19 91 -83.5 145t-159.5 54q-141 0 -219 -96.5t-78 -253.5q0 -147 83 -249.5t218 -102.5q96 0 160 56.5t79 151.5zM80 715q0 150 58.5 287t157.5 236t236 157.5t287 58.5t287 -58.5t236.5 -157.5t158 -236
t58.5 -287t-58.5 -287t-158 -236.5t-236.5 -158t-287 -58.5t-287 58.5t-236 158t-157.5 236.5t-58.5 287z" />
    <glyph glyph-name="ordfeminine" unicode="&#xaa;" horiz-adv-x="665" 
d="M496 811v98h-4q-23 -53 -81 -83.5t-126 -30.5q-236 0 -236 186q0 45 14.5 81t37 59t58.5 40t69.5 26t81 14t81 6t80.5 1h16v31q0 24 -4 42t-16.5 40t-44.5 34.5t-80 12.5q-113 0 -201 -49v94q116 41 213 41q238 0 238 -233v-277q0 -88 6 -133h-102zM487 1085v37h-24
q-58 0 -107.5 -5.5t-97.5 -19t-76 -40.5t-28 -66q0 -57 39 -83.5t102 -26.5q41 -2 73 6.5t51.5 20t33.5 33.5t20.5 36.5t10 41t3.5 36v30.5z" />
    <glyph glyph-name="guillemotleft" unicode="&#xab;" 
d="M594 971l-272 -420l272 -420h-121l-287 420l287 420h121zM952 971l-272 -420l272 -420h-121l-286 420l286 420h121z" />
    <glyph glyph-name="logicalnot" unicode="&#xac;" horiz-adv-x="1228" 
d="M94 653v142h1039v-562h-142v420h-897z" />
    <glyph glyph-name="uni00AD" unicode="&#xad;" horiz-adv-x="681" 
d="M84 481v142h514v-142h-514z" />
    <glyph glyph-name="registered" unicode="&#xae;" horiz-adv-x="1638" 
d="M80 715q0 150 58.5 287t157.5 236t236 157.5t287 58.5t287 -58.5t236.5 -157.5t158 -236t58.5 -287t-58.5 -287t-158 -236.5t-236.5 -158t-287 -58.5t-287 58.5t-236 158t-157.5 236.5t-58.5 287zM221 715q0 -175 77.5 -319t215.5 -227t307 -83q167 0 304 83t214.5 227
t77.5 319t-77.5 319t-214.5 226.5t-304 82.5q-127 0 -238.5 -48.5t-191 -132.5t-125 -200t-45.5 -247zM537 283v866h331q297 0 297 -244q0 -105 -61.5 -172t-161.5 -67l246 -383h-150l-241 383h-119v-383h-141zM678 1038v-262h168q90 0 134 28t44 107q0 68 -50.5 97.5
t-127.5 29.5h-168z" />
    <glyph glyph-name="macron" unicode="&#xaf;" horiz-adv-x="454" 
d="M-23 1257v111h500v-111h-500z" />
    <glyph glyph-name="degree" unicode="&#xb0;" horiz-adv-x="819" 
d="M410 1346q-96 0 -158 -56t-62 -151q0 -86 66.5 -146.5t153.5 -60.5t153 60.5t66 146.5q0 95 -61.5 151t-157.5 56zM410 1444q133 0 228 -86.5t95 -218.5t-95 -218.5t-228 -86.5q-134 0 -229 86.5t-95 218.5t95 218.5t229 86.5z" />
    <glyph glyph-name="plusminus" unicode="&#xb1;" horiz-adv-x="1228" 
d="M94 551v141h449v346h141v-346h449v-141h-449v-346h-141v346h-449zM94 0v141h1039v-141h-1039z" />
    <glyph glyph-name="twosuperior" unicode="&#xb2;" horiz-adv-x="739" 
d="M92 582v84l217 194q215 207 215 340q0 67 -45.5 106.5t-113.5 39.5q-110 0 -224 -62l-16 102q119 58 240 58q125 0 200.5 -58.5t75.5 -179.5q0 -35 -9 -70.5t-19.5 -62.5t-35 -62t-38.5 -53.5t-48 -53.5t-46 -46t-48 -45l-151 -133h403v-98h-557z" />
    <glyph glyph-name="threesuperior" unicode="&#xb3;" horiz-adv-x="739" 
d="M203 975v98h57q32 0 63 2.5t72 11.5t70.5 24t50.5 43.5t21 66.5q0 125 -205 125q-110 0 -211 -48l-8 107q46 19 115.5 29t127.5 10q55 0 105.5 -12t94.5 -36.5t70.5 -67.5t26.5 -99q0 -76 -53 -129t-141 -72v-4q94 -4 146 -63.5t52 -149.5q0 -62 -31 -110.5t-81.5 -76.5
t-109 -42.5t-120.5 -14.5q-144 0 -245 35l10 107q107 -43 246 -43q86 0 150.5 43.5t64.5 113.5q1 31 -9.5 56t-26.5 40.5t-43.5 27t-49.5 16.5t-55.5 8t-51 3.5t-45.5 0.5h-57z" />
    <glyph glyph-name="acute" unicode="&#xb4;" horiz-adv-x="454" 
d="M109 1171l190 295h162l-258 -295h-94z" />
    <glyph glyph-name="mu" unicode="&#xb5;" 
d="M162 -430v1474h129v-634q0 -324 248 -324q84 0 147 34.5t96.5 92t49.5 121t16 133.5v577h129v-798q0 -162 8 -246h-125v186h-4q-19 -42 -41.5 -74t-61 -66t-98.5 -52.5t-137 -18.5q-127 0 -227 60v-465h-129z" />
    <glyph glyph-name="paragraph" unicode="&#xb6;" horiz-adv-x="1228" 
d="M524 -221v876q-184 0 -305 110t-121 271q0 195 123 294.5t344 99.5h492v-1651h-129v1540h-275v-1540h-129z" />
    <glyph glyph-name="periodcentered" unicode="&#xb7;" horiz-adv-x="569" 
d="M188 637q0 45 30.5 71.5t68.5 26.5q37 0 66.5 -27t29.5 -71q0 -45 -29.5 -71.5t-66.5 -24.5q-38 -2 -68.5 24.5t-30.5 71.5z" />
    <glyph glyph-name="cedilla" unicode="&#xb8;" horiz-adv-x="454" 
d="M154 -174l59 174h55l-39 -111q63 7 68 7q64 0 106.5 -36t42.5 -98q0 -141 -225 -141q-87 0 -207 45l15 76q29 -19 81 -39t101 -20q48 0 77 19t29 56q0 35 -21 55.5t-56 20.5q-47 0 -86 -8z" />
    <glyph glyph-name="onesuperior" unicode="&#xb9;" horiz-adv-x="739" 
d="M475 1444v-862h-117v749l-155 -119l-45 68l211 164h106z" />
    <glyph glyph-name="ordmasculine" unicode="&#xba;" horiz-adv-x="739" 
d="M47 1122q0 143 81.5 238t242.5 94q82 -1 144.5 -27t100.5 -72t57 -104.5t19 -128.5q0 -65 -19 -122t-56.5 -103.5t-101 -73.5t-144.5 -28q-161 -1 -242.5 92.5t-81.5 234.5zM152 1122q0 -106 59 -173.5t160 -67.5t159 67t58 174q0 103 -59 174.5t-158 71.5t-159 -72
t-60 -174z" />
    <glyph glyph-name="guillemotright" unicode="&#xbb;" 
d="M545 131l272 420l-272 420h121l286 -420l-286 -420h-121zM186 131l273 420l-273 420h121l287 -420l-287 -420h-121z" />
    <glyph glyph-name="onequarter" unicode="&#xbc;" horiz-adv-x="1708" 
d="M1331 285v436h-4l-328 -436h332zM883 186v101l426 575h139v-577h115v-99h-115v-186h-117v186h-448zM266 -45l908 1520h116l-907 -1520h-117zM463 1444v-862h-117v749l-156 -119l-45 68l211 164h107z" />
    <glyph glyph-name="onehalf" unicode="&#xbd;" horiz-adv-x="1708" 
d="M240 -45l907 1520h117l-908 -1520h-116zM438 1444v-862h-116v749l-156 -119l-45 68l211 164h106zM1030 0v84l217 195q215 207 215 339q0 67 -45.5 106.5t-113.5 39.5q-110 0 -224 -62l-16 103q117 57 240 57q125 0 200.5 -58t75.5 -179q0 -48 -17 -97.5t-36.5 -83.5
t-60.5 -81t-62 -67.5t-68 -64.5l-151 -133h403v-98h-557z" />
    <glyph glyph-name="threequarters" unicode="&#xbe;" horiz-adv-x="1708" 
d="M1370 285v436h-4l-328 -436h332zM922 186v101l426 575h139v-577h115v-99h-115v-186h-117v186h-448zM424 -45l907 1520h119l-907 -1520h-119zM242 975v98h57q32 0 63 2.5t71.5 11.5t70 24t50.5 43.5t21 66.5q0 125 -204 125q-110 0 -211 -48l-8 107q46 19 115.5 29
t127.5 10q55 0 105.5 -12t94.5 -36.5t70.5 -67.5t26.5 -99q0 -76 -53 -129t-141 -72v-4q94 -4 146 -63.5t52 -149.5q0 -62 -31 -110.5t-81.5 -76.5t-109 -42.5t-120.5 -14.5q-144 0 -245 35l10 107q107 -43 246 -43q86 0 150.5 43.5t64.5 113.5q1 31 -9.5 56t-26.5 40.5
t-43.5 27t-49.5 16.5t-55.5 8t-51 3.5t-45.5 0.5h-57z" />
    <glyph glyph-name="questiondown" unicode="&#xbf;" horiz-adv-x="1024" 
d="M842 -229l6 -129q-172 -52 -299 -52q-81 0 -150.5 22t-124.5 65.5t-86.5 115.5t-31.5 164q0 68 19.5 128t50 104t68 85.5l75 83t68 85t50 101.5t19.5 124v30h129v-26q0 -76 -18.5 -139.5t-48.5 -109t-66 -86.5t-72 -80t-66 -80.5t-48.5 -97.5t-18.5 -122
q0 -112 72.5 -178t185.5 -66q52 0 107 9.5t88 19.5t92 29zM651 1044v-172h-166v172h166z" />
    <glyph glyph-name="Agrave" unicode="&#xc0;" horiz-adv-x="1366" 
d="M27 0l585 1430h160l567 -1430h-147l-154 383h-721l-153 -383h-137zM991 506l-309 788l-311 -788h620zM610 1782l191 -295h-94l-258 295h161z" />
    <glyph glyph-name="Aacute" unicode="&#xc1;" horiz-adv-x="1366" 
d="M27 0l585 1430h160l567 -1430h-147l-154 383h-721l-153 -383h-137zM991 506l-309 788l-311 -788h620zM565 1487l191 295h162l-259 -295h-94z" />
    <glyph glyph-name="Acircumflex" unicode="&#xc2;" horiz-adv-x="1366" 
d="M27 0l585 1430h160l567 -1430h-147l-154 383h-721l-153 -383h-137zM991 506l-309 788l-311 -788h620zM410 1487l190 295h168l190 -295h-94l-180 209l-180 -209h-94z" />
    <glyph glyph-name="Atilde" unicode="&#xc3;" horiz-adv-x="1366" 
d="M27 0l585 1430h160l567 -1430h-147l-154 383h-721l-153 -383h-137zM991 506l-309 788l-311 -788h620zM475 1534h-74q16 76 58 130t108 54q47 0 125 -24q13 -4 35 -11.5t35 -11.5t20 -4q34 0 63 19t38 51h75q-7 -53 -27 -91t-47 -56.5t-50.5 -26t-45.5 -7.5q-43 0 -126 27
q-77 25 -97 25q-38 0 -56.5 -17t-33.5 -57z" />
    <glyph glyph-name="Adieresis" unicode="&#xc4;" horiz-adv-x="1366" 
d="M27 0l585 1430h160l567 -1430h-147l-154 383h-721l-153 -383h-137zM991 506l-309 788l-311 -788h620zM782 1552v172h154v-172h-154zM432 1552v172h154v-172h-154z" />
    <glyph glyph-name="Aring" unicode="&#xc5;" horiz-adv-x="1366" 
d="M27 0l585 1430h160l567 -1430h-147l-154 383h-721l-153 -383h-137zM991 506l-309 788l-311 -788h620zM487 1671q0 82 56.5 138.5t140.5 56.5q83 0 140 -56.5t57 -138.5q0 -83 -56.5 -138.5t-140.5 -55.5q-85 0 -141 55.5t-56 138.5zM561 1671q0 -52 36.5 -86.5
t86.5 -34.5q53 0 88 34.5t35 86.5q0 51 -35.5 86t-87.5 35q-50 0 -86.5 -35.5t-36.5 -85.5z" />
    <glyph glyph-name="AE" unicode="&#xc6;" horiz-adv-x="1820" 
d="M977 506v813h-4l-504 -813h508zM0 0l893 1430h780v-123h-555v-510h527v-123h-527v-551h580v-123h-719v383h-586l-237 -383h-156z" />
    <glyph glyph-name="Ccedilla" unicode="&#xc7;" horiz-adv-x="1366" 
d="M1165 1401l-8 -131q-117 61 -319 61q-181 0 -314 -80.5t-199.5 -219t-66.5 -316.5q0 -182 65.5 -320t198 -217.5t316.5 -79.5q215 0 319 62l8 -123q-53 -32 -148 -47t-179 -15q-21 0 -29 2l-31 -88q63 7 68 7q64 0 106.5 -36t42.5 -98q0 -141 -225 -141q-87 0 -207 45
l15 76q29 -19 81 -39t101 -20q48 0 77 19t29 56q0 35 -21.5 55.5t-56.5 20.5q-47 0 -86 -8l52 156q-298 23 -467.5 221.5t-169.5 511.5q0 216 87.5 383.5t252 261.5t381.5 94q79 0 178 -13.5t149 -39.5z" />
    <glyph glyph-name="Egrave" unicode="&#xc8;" horiz-adv-x="1024" 
d="M176 0v1430h701v-123h-560v-510h531v-123h-531v-551h584v-123h-725zM438 1782l191 -295h-94l-259 295h162z" />
    <glyph glyph-name="Eacute" unicode="&#xc9;" horiz-adv-x="1024" 
d="M176 0v1430h701v-123h-560v-510h531v-123h-531v-551h584v-123h-725zM393 1487l191 295h161l-258 -295h-94z" />
    <glyph glyph-name="Ecircumflex" unicode="&#xca;" horiz-adv-x="1024" 
d="M176 0v1430h701v-123h-560v-510h531v-123h-531v-551h584v-123h-725zM238 1487l190 295h168l190 -295h-94l-180 209l-180 -209h-94z" />
    <glyph glyph-name="Edieresis" unicode="&#xcb;" horiz-adv-x="1024" 
d="M176 0v1430h701v-123h-560v-510h531v-123h-531v-551h584v-123h-725zM610 1552v172h154v-172h-154zM260 1552v172h154v-172h-154z" />
    <glyph glyph-name="Igrave" unicode="&#xcc;" horiz-adv-x="454" 
d="M158 0v1430h141v-1430h-141zM154 1782l190 -295h-94l-258 295h162z" />
    <glyph glyph-name="Iacute" unicode="&#xcd;" horiz-adv-x="454" 
d="M158 0v1430h141v-1430h-141zM109 1487l190 295h162l-258 -295h-94z" />
    <glyph glyph-name="Icircumflex" unicode="&#xce;" horiz-adv-x="454" 
d="M158 0v1430h141v-1430h-141zM-47 1487l190 295h168l191 -295h-94l-181 209l-180 -209h-94z" />
    <glyph glyph-name="Idieresis" unicode="&#xcf;" horiz-adv-x="454" 
d="M158 0v1430h141v-1430h-141zM326 1552v172h153v-172h-153zM-25 1552v172h154v-172h-154z" />
    <glyph glyph-name="Eth" unicode="&#xd0;" horiz-adv-x="1366" 
d="M164 797v633h242q827 0 827 -713q0 -152 -40 -273t-111.5 -203.5t-175 -137t-225.5 -79t-267 -24.5h-250v674h-141v123h141zM305 1307v-510h436v-123h-436v-551h117q670 0 670 602q0 135 -32.5 236.5t-90.5 167t-146.5 105.5t-190.5 56.5t-233 16.5h-94z" />
    <glyph glyph-name="Ntilde" unicode="&#xd1;" horiz-adv-x="1366" 
d="M158 0v1430h178l727 -1258h4v1258h141v-1430h-190l-715 1233h-4v-1233h-141zM475 1534h-74q16 76 58 130t108 54q47 0 125 -24q13 -4 35 -11.5t35 -11.5t20 -4q34 0 63 19t38 51h75q-7 -53 -27 -91t-47 -56.5t-50.5 -26t-45.5 -7.5q-43 0 -126 27q-77 25 -97 25
q-38 0 -56.5 -17t-33.5 -57z" />
    <glyph glyph-name="Ograve" unicode="&#xd2;" horiz-adv-x="1478" 
d="M111 715q-2 148 36.5 279t114 235t198.5 164.5t279 60.5q126 0 230.5 -39.5t178 -109t124 -163.5t74 -201.5t22.5 -225.5q-2 -222 -72 -386.5t-212.5 -259t-344.5 -94.5q-152 0 -271 54t-196.5 152t-118 233.5t-42.5 300.5zM739 1331q-98 0 -179.5 -35t-137.5 -94.5
t-95 -139t-57 -167t-18 -180.5t18 -180.5t57 -167.5t95 -139.5t137.5 -94.5t179.5 -35t179.5 35t137.5 94.5t95.5 139.5t57.5 167.5t18 180.5t-18 180.5t-57.5 167t-95.5 139t-137.5 94.5t-179.5 35zM666 1782l190 -295h-94l-258 295h162z" />
    <glyph glyph-name="Oacute" unicode="&#xd3;" horiz-adv-x="1478" 
d="M111 715q-2 148 36.5 279t114 235t198.5 164.5t279 60.5q126 0 230.5 -39.5t178 -109t124 -163.5t74 -201.5t22.5 -225.5q-2 -222 -72 -386.5t-212.5 -259t-344.5 -94.5q-152 0 -271 54t-196.5 152t-118 233.5t-42.5 300.5zM739 1331q-98 0 -179.5 -35t-137.5 -94.5
t-95 -139t-57 -167t-18 -180.5t18 -180.5t57 -167.5t95 -139.5t137.5 -94.5t179.5 -35t179.5 35t137.5 94.5t95.5 139.5t57.5 167.5t18 180.5t-18 180.5t-57.5 167t-95.5 139t-137.5 94.5t-179.5 35zM621 1487l190 295h162l-258 -295h-94z" />
    <glyph glyph-name="Ocircumflex" unicode="&#xd4;" horiz-adv-x="1478" 
d="M111 715q-2 148 36.5 279t114 235t198.5 164.5t279 60.5q126 0 230.5 -39.5t178 -109t124 -163.5t74 -201.5t22.5 -225.5q-2 -222 -72 -386.5t-212.5 -259t-344.5 -94.5q-152 0 -271 54t-196.5 152t-118 233.5t-42.5 300.5zM739 1331q-98 0 -179.5 -35t-137.5 -94.5
t-95 -139t-57 -167t-18 -180.5t18 -180.5t57 -167.5t95 -139.5t137.5 -94.5t179.5 -35t179.5 35t137.5 94.5t95.5 139.5t57.5 167.5t18 180.5t-18 180.5t-57.5 167t-95.5 139t-137.5 94.5t-179.5 35zM465 1487l190 295h168l191 -295h-94l-181 209l-180 -209h-94z" />
    <glyph glyph-name="Otilde" unicode="&#xd5;" horiz-adv-x="1478" 
d="M111 715q-2 148 36.5 279t114 235t198.5 164.5t279 60.5q126 0 230.5 -39.5t178 -109t124 -163.5t74 -201.5t22.5 -225.5q-2 -222 -72 -386.5t-212.5 -259t-344.5 -94.5q-152 0 -271 54t-196.5 152t-118 233.5t-42.5 300.5zM739 1331q-98 0 -179.5 -35t-137.5 -94.5
t-95 -139t-57 -167t-18 -180.5t18 -180.5t57 -167.5t95 -139.5t137.5 -94.5t179.5 -35t179.5 35t137.5 94.5t95.5 139.5t57.5 167.5t18 180.5t-18 180.5t-57.5 167t-95.5 139t-137.5 94.5t-179.5 35zM530 1534h-73q16 76 58 130t108 54q47 0 125 -24q13 -4 35 -11.5
t35 -11.5t20 -4q34 0 62.5 19t37.5 51h76q-7 -53 -27 -91t-47 -56.5t-50.5 -26t-45.5 -7.5q-44 0 -127 27q-77 25 -96 25q-38 0 -57.5 -17.5t-33.5 -56.5z" />
    <glyph glyph-name="Odieresis" unicode="&#xd6;" horiz-adv-x="1478" 
d="M111 715q-2 148 36.5 279t114 235t198.5 164.5t279 60.5q126 0 230.5 -39.5t178 -109t124 -163.5t74 -201.5t22.5 -225.5q-2 -222 -72 -386.5t-212.5 -259t-344.5 -94.5q-152 0 -271 54t-196.5 152t-118 233.5t-42.5 300.5zM739 1331q-98 0 -179.5 -35t-137.5 -94.5
t-95 -139t-57 -167t-18 -180.5t18 -180.5t57 -167.5t95 -139.5t137.5 -94.5t179.5 -35t179.5 35t137.5 94.5t95.5 139.5t57.5 167.5t18 180.5t-18 180.5t-57.5 167t-95.5 139t-137.5 94.5t-179.5 35zM838 1552v172h153v-172h-153zM487 1552v172h154v-172h-154z" />
    <glyph glyph-name="multiply" unicode="&#xd7;" horiz-adv-x="1228" 
d="M516 526l-371 369l101 100l370 -370l367 370l102 -100l-368 -369l368 -370l-102 -103l-367 373l-370 -373l-101 103z" />
    <glyph glyph-name="Oslash" unicode="&#xd8;" horiz-adv-x="1478" 
d="M340 346l731 836q-130 149 -332 149q-98 0 -179.5 -35t-137.5 -94.5t-95 -139t-57 -167t-18 -180.5q0 -211 88 -369zM1135 1094l-734 -840q129 -156 338 -156q98 0 179.5 35t137.5 94.5t95.5 139.5t57.5 167.5t18 180.5q0 217 -92 379zM1339 1489l80 -68l-186 -215
q138 -197 135 -491q-2 -222 -72 -386.5t-212.5 -259t-344.5 -94.5q-278 0 -434 170l-166 -190l-80 68l181 206q-126 184 -129 486q-2 148 36.5 279t114 235t198.5 164.5t279 60.5q261 0 424 -166z" />
    <glyph glyph-name="Ugrave" unicode="&#xd9;" horiz-adv-x="1366" 
d="M1202 1430v-930q0 -121 -34.5 -216t-87.5 -151.5t-124 -93.5t-137.5 -50.5t-134.5 -13.5t-134.5 13.5t-137.5 50.5t-124 93.5t-87.5 151.5t-34.5 216v930h141v-930q0 -181 98 -291.5t279 -110.5t279 110.5t98 291.5v930h141zM610 1782l191 -295h-94l-258 295h161z" />
    <glyph glyph-name="Uacute" unicode="&#xda;" horiz-adv-x="1366" 
d="M1202 1430v-930q0 -121 -34.5 -216t-87.5 -151.5t-124 -93.5t-137.5 -50.5t-134.5 -13.5t-134.5 13.5t-137.5 50.5t-124 93.5t-87.5 151.5t-34.5 216v930h141v-930q0 -181 98 -291.5t279 -110.5t279 110.5t98 291.5v930h141zM565 1487l191 295h162l-259 -295h-94z" />
    <glyph glyph-name="Ucircumflex" unicode="&#xdb;" horiz-adv-x="1366" 
d="M1202 1430v-930q0 -121 -34.5 -216t-87.5 -151.5t-124 -93.5t-137.5 -50.5t-134.5 -13.5t-134.5 13.5t-137.5 50.5t-124 93.5t-87.5 151.5t-34.5 216v930h141v-930q0 -181 98 -291.5t279 -110.5t279 110.5t98 291.5v930h141zM410 1487l190 295h168l190 -295h-94l-180 209
l-180 -209h-94z" />
    <glyph glyph-name="Udieresis" unicode="&#xdc;" horiz-adv-x="1366" 
d="M1202 1430v-930q0 -121 -34.5 -216t-87.5 -151.5t-124 -93.5t-137.5 -50.5t-134.5 -13.5t-134.5 13.5t-137.5 50.5t-124 93.5t-87.5 151.5t-34.5 216v930h141v-930q0 -181 98 -291.5t279 -110.5t279 110.5t98 291.5v930h141zM782 1552v172h154v-172h-154zM432 1552v172
h154v-172h-154z" />
    <glyph glyph-name="Yacute" unicode="&#xdd;" horiz-adv-x="1251" 
d="M555 0v606l-530 824h163l437 -699l448 699h154l-531 -824v-606h-141zM508 1487l190 295h162l-258 -295h-94z" />
    <glyph glyph-name="Thorn" unicode="&#xde;" horiz-adv-x="1024" 
d="M176 0v1430h141v-267h211q206 0 324.5 -103.5t118.5 -301.5q0 -129 -61.5 -222.5t-163.5 -138.5t-232 -45h-197v-352h-141zM317 1040v-565h99q51 0 90 2t84.5 9t78 19t64.5 33.5t52 50.5t32 72t12 97q0 135 -73.5 208.5t-208.5 73.5h-230z" />
    <glyph glyph-name="germandbls" unicode="&#xdf;" 
d="M162 0v1110q0 206 103.5 328.5t305.5 122.5q176 0 281.5 -102.5t105.5 -278.5q0 -139 -73 -234t-201 -123v-4q171 -13 261.5 -113.5t90.5 -265.5q0 -201 -120 -327.5t-324 -126.5q-108 0 -174 24l8 121q56 -35 168 -35q143 0 222 94.5t79 247.5q0 88 -27.5 150
t-80.5 97.5t-122 51t-161 15.5h-21v110h37q130 0 213.5 86.5t83.5 227.5q0 120 -66 197t-180 77q-280 0 -280 -385v-1065h-129z" />
    <glyph glyph-name="agrave" unicode="&#xe0;" horiz-adv-x="1024" 
d="M762 0v168h-4q-41 -90 -135.5 -141.5t-196.5 -51.5q-85 0 -149.5 22t-100.5 54t-58 75t-29 77t-7 67q0 73 22.5 130.5t57 95.5t89.5 65.5t106.5 41.5t123 22t123 10t121.5 2h25v53q0 137 -55 202.5t-183 65.5q-172 0 -307 -86v125q61 30 150 51t157 21q193 0 280 -92.5
t87 -296.5v-461q0 -147 10 -219h-127zM750 463v63h-37q-64 0 -114.5 -3t-111 -11.5t-104 -26t-82 -44t-58.5 -69.5t-20 -98q0 -97 60 -142.5t157 -45.5q62 0 112 15.5t82 38.5t55 59.5t34.5 67.5t18 72.5t7.5 66t1 57.5zM438 1448l191 -295h-94l-259 295h162z" />
    <glyph glyph-name="aacute" unicode="&#xe1;" horiz-adv-x="1024" 
d="M762 0v168h-4q-41 -90 -135.5 -141.5t-196.5 -51.5q-85 0 -149.5 22t-100.5 54t-58 75t-29 77t-7 67q0 73 22.5 130.5t57 95.5t89.5 65.5t106.5 41.5t123 22t123 10t121.5 2h25v53q0 137 -55 202.5t-183 65.5q-172 0 -307 -86v125q61 30 150 51t157 21q193 0 280 -92.5
t87 -296.5v-461q0 -147 10 -219h-127zM750 463v63h-37q-64 0 -114.5 -3t-111 -11.5t-104 -26t-82 -44t-58.5 -69.5t-20 -98q0 -97 60 -142.5t157 -45.5q62 0 112 15.5t82 38.5t55 59.5t34.5 67.5t18 72.5t7.5 66t1 57.5zM393 1153l191 295h161l-258 -295h-94z" />
    <glyph glyph-name="acircumflex" unicode="&#xe2;" horiz-adv-x="1024" 
d="M762 0v168h-4q-41 -90 -135.5 -141.5t-196.5 -51.5q-85 0 -149.5 22t-100.5 54t-58 75t-29 77t-7 67q0 73 22.5 130.5t57 95.5t89.5 65.5t106.5 41.5t123 22t123 10t121.5 2h25v53q0 137 -55 202.5t-183 65.5q-172 0 -307 -86v125q61 30 150 51t157 21q193 0 280 -92.5
t87 -296.5v-461q0 -147 10 -219h-127zM750 463v63h-37q-64 0 -114.5 -3t-111 -11.5t-104 -26t-82 -44t-58.5 -69.5t-20 -98q0 -97 60 -142.5t157 -45.5q62 0 112 15.5t82 38.5t55 59.5t34.5 67.5t18 72.5t7.5 66t1 57.5zM238 1153l190 295h168l190 -295h-94l-180 209
l-180 -209h-94z" />
    <glyph glyph-name="atilde" unicode="&#xe3;" horiz-adv-x="1024" 
d="M762 0v168h-4q-41 -90 -135.5 -141.5t-196.5 -51.5q-85 0 -149.5 22t-100.5 54t-58 75t-29 77t-7 67q0 73 22.5 130.5t57 95.5t89.5 65.5t106.5 41.5t123 22t123 10t121.5 2h25v53q0 137 -55 202.5t-183 65.5q-172 0 -307 -86v125q61 30 150 51t157 21q193 0 280 -92.5
t87 -296.5v-461q0 -147 10 -219h-127zM750 463v63h-37q-64 0 -114.5 -3t-111 -11.5t-104 -26t-82 -44t-58.5 -69.5t-20 -98q0 -97 60 -142.5t157 -45.5q62 0 112 15.5t82 38.5t55 59.5t34.5 67.5t18 72.5t7.5 66t1 57.5zM303 1200h-74q16 76 58 130t108 54q47 0 125 -24
q13 -4 35 -11.5t35 -11.5t20 -4q34 0 63 19t38 51h75q-7 -53 -27 -91t-47 -56t-50.5 -25.5t-45.5 -7.5q-47 0 -127 26q-77 25 -96 25q-38 0 -56.5 -17t-33.5 -57z" />
    <glyph glyph-name="adieresis" unicode="&#xe4;" horiz-adv-x="1024" 
d="M762 0v168h-4q-41 -90 -135.5 -141.5t-196.5 -51.5q-85 0 -149.5 22t-100.5 54t-58 75t-29 77t-7 67q0 73 22.5 130.5t57 95.5t89.5 65.5t106.5 41.5t123 22t123 10t121.5 2h25v53q0 137 -55 202.5t-183 65.5q-172 0 -307 -86v125q61 30 150 51t157 21q193 0 280 -92.5
t87 -296.5v-461q0 -147 10 -219h-127zM750 463v63h-37q-64 0 -114.5 -3t-111 -11.5t-104 -26t-82 -44t-58.5 -69.5t-20 -98q0 -97 60 -142.5t157 -45.5q62 0 112 15.5t82 38.5t55 59.5t34.5 67.5t18 72.5t7.5 66t1 57.5zM610 1219v172h154v-172h-154zM260 1219v172h154v-172
h-154z" />
    <glyph glyph-name="aring" unicode="&#xe5;" horiz-adv-x="1024" 
d="M762 0v168h-4q-41 -90 -135.5 -141.5t-196.5 -51.5q-85 0 -149.5 22t-100.5 54t-58 75t-29 77t-7 67q0 73 22.5 130.5t57 95.5t89.5 65.5t106.5 41.5t123 22t123 10t121.5 2h25v53q0 137 -55 202.5t-183 65.5q-172 0 -307 -86v125q61 30 150 51t157 21q193 0 280 -92.5
t87 -296.5v-461q0 -147 10 -219h-127zM750 463v63h-37q-64 0 -114.5 -3t-111 -11.5t-104 -26t-82 -44t-58.5 -69.5t-20 -98q0 -97 60 -142.5t157 -45.5q62 0 112 15.5t82 38.5t55 59.5t34.5 67.5t18 72.5t7.5 66t1 57.5zM315 1327q0 82 56.5 138.5t140.5 56.5
q83 0 140 -56.5t57 -138.5q0 -83 -56.5 -138.5t-140.5 -55.5q-85 0 -141 55.5t-56 138.5zM389 1327q0 -52 36.5 -86.5t86.5 -34.5q53 0 88 34.5t35 86.5q0 51 -35.5 86t-87.5 35q-50 0 -86.5 -35.5t-36.5 -85.5z" />
    <glyph glyph-name="ae" unicode="&#xe6;" horiz-adv-x="1705" 
d="M762 430v55h-45q-38 0 -60 -0.5t-65.5 -2.5t-72 -5.5t-69 -11.5t-67.5 -19.5t-57.5 -29t-48 -40t-29.5 -54t-12 -68.5q0 -78 66 -123t151 -45q83 0 144.5 26.5t96.5 74.5t51.5 108.5t16.5 134.5zM1534 164v-131q-141 -58 -303 -58q-155 0 -256 57.5t-141 153.5
q-145 -211 -396 -211q-159 0 -251.5 72t-92.5 207q0 69 22 123.5t55 89.5t86 60.5t99.5 38.5t111.5 20t106 8.5t98 1.5h90v55q0 71 -10.5 123t-36 95.5t-73 66t-116.5 22.5q-174 0 -309 -86v125q61 30 150 51t157 21q124 0 204.5 -42t129.5 -146q56 86 146.5 137t191.5 51
q86 0 156 -27t118 -74t80.5 -113t47 -142t14.5 -162v-66h-709v-47q0 -77 19 -139.5t58.5 -111t106 -75t154.5 -26.5q69 0 157.5 24t135.5 54zM903 596h567q0 71 -15 133.5t-45.5 115t-83 83t-122.5 30.5q-88 0 -158 -53.5t-106.5 -135.5t-36.5 -173z" />
    <glyph glyph-name="ccedilla" unicode="&#xe7;" horiz-adv-x="909" 
d="M852 1028l-10 -123q-120 53 -224 53q-185 0 -289 -120.5t-104 -315.5q0 -120 44.5 -218.5t132 -158t202.5 -59.5q110 0 236 47l12 -121q-105 -37 -268 -37h-4l-31 -86q63 7 67 7q64 0 107 -36t43 -98q0 -141 -225 -141q-87 0 -207 45l14 76q29 -19 81 -39t101 -20
q48 0 77.5 19t29.5 56q0 35 -21.5 55.5t-56.5 20.5q-47 0 -86 -8l53 154q-109 11 -194.5 58.5t-139 121.5t-81 166t-27.5 196q0 242 142.5 394.5t373.5 152.5q126 0 252 -41z" />
    <glyph glyph-name="egrave" unicode="&#xe8;" horiz-adv-x="1024" 
d="M862 164v-131q-141 -58 -303 -58q-126 0 -219.5 41t-148.5 116t-81 172t-26 218q0 241 121.5 394t318.5 153q86 0 156 -27t118 -74t80.5 -113t47 -142t14.5 -162v-66h-715q0 -173 90.5 -286t253.5 -113q69 0 157.5 24t135.5 54zM225 596h574q0 56 -9 107.5t-29.5 98.5
t-51 81t-76 54.5t-101.5 20.5q-69 0 -128 -32.5t-97.5 -84.5t-60 -116t-21.5 -129zM438 1448l191 -295h-94l-259 295h162z" />
    <glyph glyph-name="eacute" unicode="&#xe9;" horiz-adv-x="1024" 
d="M862 164v-131q-141 -58 -303 -58q-126 0 -219.5 41t-148.5 116t-81 172t-26 218q0 241 121.5 394t318.5 153q86 0 156 -27t118 -74t80.5 -113t47 -142t14.5 -162v-66h-715q0 -173 90.5 -286t253.5 -113q69 0 157.5 24t135.5 54zM225 596h574q0 56 -9 107.5t-29.5 98.5
t-51 81t-76 54.5t-101.5 20.5q-69 0 -128 -32.5t-97.5 -84.5t-60 -116t-21.5 -129zM393 1153l191 295h161l-258 -295h-94z" />
    <glyph glyph-name="ecircumflex" unicode="&#xea;" horiz-adv-x="1024" 
d="M862 164v-131q-141 -58 -303 -58q-126 0 -219.5 41t-148.5 116t-81 172t-26 218q0 241 121.5 394t318.5 153q86 0 156 -27t118 -74t80.5 -113t47 -142t14.5 -162v-66h-715q0 -173 90.5 -286t253.5 -113q69 0 157.5 24t135.5 54zM225 596h574q0 56 -9 107.5t-29.5 98.5
t-51 81t-76 54.5t-101.5 20.5q-69 0 -128 -32.5t-97.5 -84.5t-60 -116t-21.5 -129zM238 1153l190 295h168l190 -295h-94l-180 209l-180 -209h-94z" />
    <glyph glyph-name="edieresis" unicode="&#xeb;" horiz-adv-x="1024" 
d="M862 164v-131q-141 -58 -303 -58q-126 0 -219.5 41t-148.5 116t-81 172t-26 218q0 241 121.5 394t318.5 153q86 0 156 -27t118 -74t80.5 -113t47 -142t14.5 -162v-66h-715q0 -173 90.5 -286t253.5 -113q69 0 157.5 24t135.5 54zM225 596h574q0 56 -9 107.5t-29.5 98.5
t-51 81t-76 54.5t-101.5 20.5q-69 0 -128 -32.5t-97.5 -84.5t-60 -116t-21.5 -129zM610 1219v172h154v-172h-154zM260 1219v172h154v-172h-154z" />
    <glyph glyph-name="igrave" unicode="&#xec;" horiz-adv-x="454" 
d="M162 0v1044h129v-1044h-129zM154 1448l190 -295h-94l-258 295h162z" />
    <glyph glyph-name="iacute" unicode="&#xed;" horiz-adv-x="454" 
d="M162 0v1044h129v-1044h-129zM109 1153l190 295h162l-258 -295h-94z" />
    <glyph glyph-name="icircumflex" unicode="&#xee;" horiz-adv-x="454" 
d="M162 0v1044h129v-1044h-129zM-47 1153l190 295h168l191 -295h-94l-181 209l-180 -209h-94z" />
    <glyph glyph-name="idieresis" unicode="&#xef;" horiz-adv-x="454" 
d="M162 0v1044h129v-1044h-129zM326 1219v172h153v-172h-153zM-25 1219v172h154v-172h-154z" />
    <glyph glyph-name="eth" unicode="&#xf0;" 
d="M223 522q0 -189 91.5 -312.5t254.5 -123.5t254.5 123.5t91.5 312.5t-91.5 312.5t-254.5 123.5t-254.5 -123.5t-91.5 -312.5zM434 1155l-61 86l186 117q-123 73 -276 104l24 99q213 -28 373 -129l219 135l62 -86l-191 -117q287 -248 287 -758q0 -309 -121 -470t-367 -161
q-122 0 -217.5 45t-153 122t-87 173.5t-29.5 206.5t29.5 206.5t87 173.5t153 122t217.5 45q191 0 322 -162h4q-55 236 -240 385z" />
    <glyph glyph-name="ntilde" unicode="&#xf1;" 
d="M162 0v799q0 161 -8 245h125v-186h4q19 42 41.5 74t61 66t98.5 52.5t137 18.5q94 0 164 -30t111 -85t61 -126t20 -160v-668h-129v635q0 323 -248 323q-68 0 -122.5 -23t-88.5 -60.5t-57 -88t-32 -102t-9 -106.5v-578h-129zM360 1200h-73q16 76 58 130t108 54
q47 0 125 -24q13 -4 35 -11.5t35 -11.5t20 -4q34 0 62.5 19t37.5 51h76q-7 -53 -27 -91t-47 -56t-50.5 -25.5t-45.5 -7.5q-47 0 -127 26q-77 25 -96 25q-38 0 -57.5 -17.5t-33.5 -56.5z" />
    <glyph glyph-name="ograve" unicode="&#xf2;" 
d="M82 522q0 110 29.5 206.5t87 173.5t153 122t217.5 45t218 -45t153.5 -122t87 -173.5t29.5 -206.5t-29.5 -206.5t-87 -173.5t-153.5 -122t-218 -45t-217.5 45t-153 122t-87 173.5t-29.5 206.5zM223 522q0 -189 91.5 -312.5t254.5 -123.5t254.5 123.5t91.5 312.5
t-91.5 312.5t-254.5 123.5t-254.5 -123.5t-91.5 -312.5zM496 1448l190 -295h-94l-258 295h162z" />
    <glyph glyph-name="oacute" unicode="&#xf3;" 
d="M82 522q0 110 29.5 206.5t87 173.5t153 122t217.5 45t218 -45t153.5 -122t87 -173.5t29.5 -206.5t-29.5 -206.5t-87 -173.5t-153.5 -122t-218 -45t-217.5 45t-153 122t-87 173.5t-29.5 206.5zM223 522q0 -189 91.5 -312.5t254.5 -123.5t254.5 123.5t91.5 312.5
t-91.5 312.5t-254.5 123.5t-254.5 -123.5t-91.5 -312.5zM451 1153l190 295h162l-258 -295h-94z" />
    <glyph glyph-name="ocircumflex" unicode="&#xf4;" 
d="M82 522q0 110 29.5 206.5t87 173.5t153 122t217.5 45t218 -45t153.5 -122t87 -173.5t29.5 -206.5t-29.5 -206.5t-87 -173.5t-153.5 -122t-218 -45t-217.5 45t-153 122t-87 173.5t-29.5 206.5zM223 522q0 -189 91.5 -312.5t254.5 -123.5t254.5 123.5t91.5 312.5
t-91.5 312.5t-254.5 123.5t-254.5 -123.5t-91.5 -312.5zM295 1153l190 295h168l191 -295h-94l-181 209l-180 -209h-94z" />
    <glyph glyph-name="otilde" unicode="&#xf5;" 
d="M82 522q0 110 29.5 206.5t87 173.5t153 122t217.5 45t218 -45t153.5 -122t87 -173.5t29.5 -206.5t-29.5 -206.5t-87 -173.5t-153.5 -122t-218 -45t-217.5 45t-153 122t-87 173.5t-29.5 206.5zM223 522q0 -189 91.5 -312.5t254.5 -123.5t254.5 123.5t91.5 312.5
t-91.5 312.5t-254.5 123.5t-254.5 -123.5t-91.5 -312.5zM360 1200h-73q16 76 58 130t108 54q47 0 125 -24q13 -4 35 -11.5t35 -11.5t20 -4q34 0 62.5 19t37.5 51h76q-7 -53 -27 -91t-47 -56t-50.5 -25.5t-45.5 -7.5q-47 0 -127 26q-77 25 -96 25q-38 0 -57.5 -17.5
t-33.5 -56.5z" />
    <glyph glyph-name="odieresis" unicode="&#xf6;" 
d="M82 522q0 110 29.5 206.5t87 173.5t153 122t217.5 45t218 -45t153.5 -122t87 -173.5t29.5 -206.5t-29.5 -206.5t-87 -173.5t-153.5 -122t-218 -45t-217.5 45t-153 122t-87 173.5t-29.5 206.5zM223 522q0 -189 91.5 -312.5t254.5 -123.5t254.5 123.5t91.5 312.5
t-91.5 312.5t-254.5 123.5t-254.5 -123.5t-91.5 -312.5zM668 1219v172h153v-172h-153zM317 1219v172h154v-172h-154z" />
    <glyph glyph-name="divide" unicode="&#xf7;" horiz-adv-x="1228" 
d="M94 449v141h1039v-141h-1039zM483 922q0 54 39 92.5t92 38.5q52 0 91.5 -39.5t39.5 -91.5q0 -50 -39.5 -90.5t-91.5 -40.5t-91.5 39.5t-39.5 91.5zM483 117q0 54 39 92.5t92 38.5q52 0 91.5 -39t39.5 -92q0 -50 -39.5 -90.5t-91.5 -40.5t-91.5 39t-39.5 92z" />
    <glyph glyph-name="oslash" unicode="&#xf8;" 
d="M285 260l520 598q-94 100 -236 100q-163 0 -254.5 -123.5t-91.5 -312.5q0 -150 62 -262zM858 778l-518 -596q90 -96 229 -96q163 0 254.5 123.5t91.5 312.5q0 151 -57 256zM1028 1116l72 -59l-150 -172q107 -139 107 -363q0 -110 -29.5 -206.5t-87 -173.5t-153.5 -122
t-218 -45q-190 0 -315 109l-143 -166l-72 59l154 177q-111 146 -111 368q0 110 29.5 206.5t87 173.5t153 122t217.5 45q202 0 320 -115z" />
    <glyph glyph-name="ugrave" unicode="&#xf9;" 
d="M977 1044v-798q0 -162 8 -246h-125v186h-4q-19 -42 -41.5 -74t-61 -66t-98.5 -52.5t-137 -18.5q-94 0 -164 30t-111 85.5t-61 126.5t-20 160v667h129v-634q0 -324 248 -324q84 0 147 34.5t96.5 92t49.5 121t16 133.5v577h129zM496 1448l190 -295h-94l-258 295h162z" />
    <glyph glyph-name="uacute" unicode="&#xfa;" 
d="M977 1044v-798q0 -162 8 -246h-125v186h-4q-19 -42 -41.5 -74t-61 -66t-98.5 -52.5t-137 -18.5q-94 0 -164 30t-111 85.5t-61 126.5t-20 160v667h129v-634q0 -324 248 -324q84 0 147 34.5t96.5 92t49.5 121t16 133.5v577h129zM451 1153l190 295h162l-258 -295h-94z" />
    <glyph glyph-name="ucircumflex" unicode="&#xfb;" 
d="M977 1044v-798q0 -162 8 -246h-125v186h-4q-19 -42 -41.5 -74t-61 -66t-98.5 -52.5t-137 -18.5q-94 0 -164 30t-111 85.5t-61 126.5t-20 160v667h129v-634q0 -324 248 -324q84 0 147 34.5t96.5 92t49.5 121t16 133.5v577h129zM295 1153l190 295h168l191 -295h-94
l-181 209l-180 -209h-94z" />
    <glyph glyph-name="udieresis" unicode="&#xfc;" 
d="M977 1044v-798q0 -162 8 -246h-125v186h-4q-19 -42 -41.5 -74t-61 -66t-98.5 -52.5t-137 -18.5q-94 0 -164 30t-111 85.5t-61 126.5t-20 160v667h129v-634q0 -324 248 -324q84 0 147 34.5t96.5 92t49.5 121t16 133.5v577h129zM668 1219v172h153v-172h-153zM317 1219v172
h154v-172h-154z" />
    <glyph glyph-name="yacute" unicode="&#xfd;" horiz-adv-x="909" 
d="M160 1044l293 -870h2l301 870h135l-418 -1200q-21 -60 -43 -106t-54 -89.5t-75.5 -67t-95.5 -23.5q-70 0 -139 16l12 111q53 -17 96 -17q40 0 69.5 15t51.5 49.5t35.5 69.5t31.5 94l27 92l-371 1056h142zM336 1153l190 295h162l-258 -295h-94z" />
    <glyph glyph-name="thorn" unicode="&#xfe;" 
d="M150 -430v1966h129v-682h4q11 24 22.5 45t39 54.5t60.5 57t86.5 41t116.5 17.5q112 0 196 -40.5t134.5 -115t75 -172t24.5 -219.5q0 -117 -27.5 -216t-79.5 -173t-135 -116t-188 -42q-122 0 -199.5 52t-125.5 163h-4v-620h-129zM897 522q0 65 -8 123.5t-30 117
t-55.5 100.5t-89 68.5t-126.5 26.5q-66 0 -120 -27.5t-88 -71.5t-57.5 -102t-33.5 -116.5t-10 -118.5t10 -118.5t33.5 -116.5t57.5 -102t88 -71.5t120 -27.5q71 0 126.5 26.5t89 68.5t55.5 100.5t30 117t8 123.5z" />
    <glyph glyph-name="ydieresis" unicode="&#xff;" horiz-adv-x="909" 
d="M160 1044l293 -870h2l301 870h135l-418 -1200q-21 -60 -43 -106t-54 -89.5t-75.5 -67t-95.5 -23.5q-70 0 -139 16l12 111q53 -17 96 -17q40 0 69.5 15t51.5 49.5t35.5 69.5t31.5 94l27 92l-371 1056h142zM553 1219v172h154v-172h-154zM203 1219v172h153v-172h-153z" />
    <glyph glyph-name="dotlessi" unicode="&#x131;" horiz-adv-x="454" 
d="M162 0v1044h129v-1044h-129z" />
    <glyph glyph-name="Lslash" unicode="&#x141;" horiz-adv-x="909" 
d="M164 637v793h141v-693l359 252v-139l-359 -254v-473h574v-123h-715v496l-148 -105v141z" />
    <glyph glyph-name="lslash" unicode="&#x142;" horiz-adv-x="454" 
d="M162 0v700l-135 -108v141l135 109v694h129v-592l135 109v-142l-135 -108v-803h-129z" />
    <glyph glyph-name="OE" unicode="&#x152;" horiz-adv-x="1820" 
d="M1673 1430v-123h-555v-510h527v-123h-527v-551h580v-123h-676q-1 0 -172 -6q-114 -8 -172 -8q-118 0 -215 41.5t-161.5 111.5t-108 165t-63 197.5t-19.5 213.5t19.5 213.5t63 197.5t108 165t161.5 111.5t215 41.5q1 0 172 -6q114 -8 172 -8h651zM977 123v1184
q-20 1 -72 4.5t-96 5.5t-92 2q-20 0 -35 -0.5t-51.5 -6t-65.5 -15.5t-70 -31t-72.5 -50t-65 -76t-55.5 -105t-36 -140.5t-14 -179.5t14 -179.5t36 -140.5t55.5 -105t65 -76t72.5 -50t70 -31t65.5 -15.5t51.5 -6t35 -0.5q108 0 260 12z" />
    <glyph glyph-name="oe" unicode="&#x153;" horiz-adv-x="1820" 
d="M1030 596h574q0 70 -17 133.5t-49 115.5t-84 82.5t-117 30.5q-145 0 -226 -99.5t-81 -262.5zM1745 485h-715q0 -173 90.5 -286t253.5 -113q69 0 157.5 24t135.5 54v-131q-141 -58 -303 -58q-287 0 -401 213q-58 -100 -159.5 -156.5t-242.5 -56.5q-122 0 -217.5 45
t-153 122t-87 173.5t-29.5 206.5t29.5 206.5t87 173.5t153 122t217.5 45q289 0 393 -225q116 225 375 225q107 0 189 -42.5t130.5 -115.5t72.5 -163t24 -193v-70zM215 522q0 -189 91.5 -312.5t254.5 -123.5q328 0 328 436q0 71 -8.5 131t-31.5 117.5t-59 98t-94.5 65
t-134.5 24.5q-163 0 -254.5 -123.5t-91.5 -312.5z" />
    <glyph glyph-name="Scaron" unicode="&#x160;" horiz-adv-x="1024" 
d="M123 37l14 145q133 -84 316 -84q141 0 231 74t90 219q0 50 -28 95t-74 78.5t-105 69.5t-120.5 67t-120.5 71t-105 82.5t-74 101t-28 125.5q0 168 129 270.5t323 102.5q157 0 281 -47l-23 -129q-95 53 -260 53q-58 0 -110.5 -13t-98.5 -40.5t-73 -77t-27 -115.5
q0 -58 36 -107t94 -86t127.5 -73t139.5 -77.5t128 -89.5t94 -118t36 -155q0 -84 -27.5 -153t-73.5 -114.5t-107.5 -77t-127 -45.5t-133.5 -14q-180 0 -323 62zM786 1782l-190 -295h-168l-190 295h94l180 -209l180 209h94z" />
    <glyph glyph-name="scaron" unicode="&#x161;" horiz-adv-x="796" 
d="M70 25l12 127q132 -66 272 -66q97 0 164.5 50t67.5 136q0 50 -27.5 90t-72 67.5t-98 52.5t-107 52t-98 59t-72 81t-27.5 110q0 75 28.5 131.5t77.5 89t108 48.5t126 16q134 0 258 -47l-12 -113q-107 49 -232 49q-108 0 -166.5 -40t-58.5 -134q0 -39 28.5 -71t73.5 -56
t100 -48t110 -53.5t100 -66t73.5 -92.5t28.5 -125q0 -64 -23 -115.5t-60 -84.5t-85.5 -55.5t-97.5 -32t-99 -9.5q-168 0 -292 50zM674 1448l-191 -295h-168l-190 295h94l180 -209l181 209h94z" />
    <glyph glyph-name="Ydieresis" unicode="&#x178;" horiz-adv-x="1251" 
d="M555 0v606l-530 824h163l437 -699l448 699h154l-531 -824v-606h-141zM725 1552v172h154v-172h-154zM375 1552v172h153v-172h-153z" />
    <glyph glyph-name="Zcaron" unicode="&#x17d;" horiz-adv-x="1024" 
d="M43 0v123l745 1184h-727v123h877v-123l-741 -1184h766v-123h-920zM786 1782l-190 -295h-168l-190 295h94l180 -209l180 209h94z" />
    <glyph glyph-name="zcaron" unicode="&#x17e;" horiz-adv-x="909" 
d="M66 0v109l628 825h-604v110h754v-110l-629 -823h629v-111h-778zM729 1448l-190 -295h-168l-191 295h94l181 -209l180 209h94z" />
    <glyph glyph-name="florin" unicode="&#x192;" 
d="M938 858v-110h-258l-145 -744q-24 -122 -51 -200.5t-68.5 -136.5t-101 -83.5t-144.5 -25.5q-51 0 -119 20l33 109q3 -1 36.5 -10t51.5 -9q46 0 81 18.5t58 47t42 79t30 96.5t25 118l137 721h-228v110h250l35 186q13 68 28 119t43 107t64 91.5t93.5 59t130.5 23.5
q59 0 131 -35l-27 -102q-65 26 -115 26q-80 0 -128.5 -61t-82.5 -225l-37 -189h236z" />
    <glyph glyph-name="circumflex" unicode="&#x2c6;" horiz-adv-x="454" 
d="M-47 1171l190 295h168l191 -295h-94l-181 209l-180 -209h-94z" />
    <glyph glyph-name="caron" unicode="&#x2c7;" horiz-adv-x="454" 
d="M502 1466l-191 -295h-168l-190 295h94l180 -209l181 209h94z" />
    <glyph glyph-name="uni02C9" unicode="&#x2c9;" horiz-adv-x="454" 
d="M-23 1257v111h500v-111h-500z" />
    <glyph glyph-name="breve" unicode="&#x2d8;" horiz-adv-x="454" 
d="M-25 1432h62q17 -60 69 -87.5t121 -27.5t121.5 27.5t69.5 87.5h61q-14 -106 -81 -172t-171 -66t-171 66t-81 172z" />
    <glyph glyph-name="dotaccent" unicode="&#x2d9;" horiz-adv-x="454" 
d="M152 1237v172h153v-172h-153z" />
    <glyph glyph-name="ring" unicode="&#x2da;" horiz-adv-x="454" 
d="M31 1327q0 82 56 138.5t140 56.5q83 0 140 -56.5t57 -138.5q0 -83 -56.5 -138.5t-140.5 -55.5q-85 0 -140.5 55.5t-55.5 138.5zM104 1327q0 -52 36.5 -86.5t86.5 -34.5q53 0 88 34.5t35 86.5q0 51 -35.5 86t-87.5 35q-50 0 -86.5 -35.5t-36.5 -85.5z" />
    <glyph glyph-name="ogonek" unicode="&#x2db;" horiz-adv-x="454" 
d="M520 -281l29 -16q-19 -50 -72 -91.5t-135 -41.5q-70 0 -125 40.5t-55 108.5q0 47 25 91.5t68 81t75 58.5t71 45q3 2 5 3l4 2h57q-101 -80 -138.5 -138.5t-37.5 -115.5q0 -48 27 -75t79 -27q78 0 123 75z" />
    <glyph glyph-name="tilde" unicode="&#x2dc;" horiz-adv-x="454" 
d="M18 1219h-73q16 76 58 130t108 54q44 0 125 -25q84 -26 90 -26q34 0 62.5 18.5t37.5 50.5h76q-7 -53 -27 -91t-47 -56t-50.5 -25.5t-45.5 -7.5q-44 0 -127 27q-74 24 -96 24q-38 0 -57.5 -17t-33.5 -56z" />
    <glyph glyph-name="hungarumlaut" unicode="&#x2dd;" horiz-adv-x="454" 
d="M283 1171l190 295h162l-258 -295h-94zM-66 1171l191 295h162l-258 -295h-95z" />
    <glyph glyph-name="uni03A9" unicode="&#x3a9;" horiz-adv-x="1484" 
d="M420 106v5q-125 106 -205 270.5t-80 368.5q0 197 81.5 352.5t221 240t310.5 84.5q132 0 246 -54.5t190.5 -146.5t120 -213.5t43.5 -254.5q0 -210 -84.5 -380t-204.5 -267v-5h315v-106h-481v78q136 86 230 258t94 399q0 82 -19 164t-58 158t-94 135t-133 94t-168 35
q-143 0 -253.5 -80t-169 -214t-58.5 -296q0 -215 96 -392.5t228 -260.5v-78h-482v106h314z" />
    <glyph glyph-name="uni03BC" unicode="&#x3bc;" 
d="M162 -430v1474h129v-634q0 -324 248 -324q84 0 147 34.5t96.5 92t49.5 121t16 133.5v577h129v-798q0 -162 8 -246h-125v186h-4q-19 -42 -41.5 -74t-61 -66t-98.5 -52.5t-137 -18.5q-127 0 -227 60v-465h-129z" />
    <glyph glyph-name="pi" unicode="&#x3c0;" horiz-adv-x="1153" 
d="M1098 934h-170v-635q0 -203 30 -299h-124q-35 60 -35 283v651h-393q-10 -222 -55 -512.5t-99 -421.5h-127q58 153 102 431.5t52 502.5q-153 0 -236 -27l-23 84q84 51 285 51h805z" />
    <glyph glyph-name="uni2010" unicode="&#x2010;" horiz-adv-x="681" 
d="M84 481v142h514v-142h-514z" />
    <glyph glyph-name="endash" unicode="&#x2013;" horiz-adv-x="1024" 
d="M0 496v110h1024v-110h-1024z" />
    <glyph glyph-name="emdash" unicode="&#x2014;" horiz-adv-x="2048" 
d="M0 496v110h2048v-110h-2048z" />
    <glyph glyph-name="quoteleft" unicode="&#x2018;" horiz-adv-x="569" 
d="M422 1430l-121 -447h-154l158 447h117z" />
    <glyph glyph-name="quoteright" unicode="&#x2019;" horiz-adv-x="569" 
d="M147 983l121 447h154l-158 -447h-117z" />
    <glyph glyph-name="quotesinglbase" unicode="&#x201a;" horiz-adv-x="569" 
d="M147 -274l121 446h154l-158 -446h-117z" />
    <glyph glyph-name="quotedblleft" unicode="&#x201c;" 
d="M526 1430l-120 -447h-154l158 447h116zM887 1430l-121 -447h-154l158 447h117z" />
    <glyph glyph-name="quotedblright" unicode="&#x201d;" 
d="M612 983l121 447h154l-158 -447h-117zM252 983l121 447h153l-157 -447h-117z" />
    <glyph glyph-name="quotedblbase" unicode="&#x201e;" 
d="M252 -274l121 446h153l-155 -446h-119zM612 -274l121 446h154l-158 -446h-117z" />
    <glyph glyph-name="dagger" unicode="&#x2020;" 
d="M504 0v934h-359v110h359v386h129v-386h360v-110h-360v-934h-129z" />
    <glyph glyph-name="daggerdbl" unicode="&#x2021;" 
d="M145 385v111h359v438h-359v110h359v386h129v-386h360v-110h-360v-438h360v-111h-360v-385h-129v385h-359z" />
    <glyph glyph-name="bullet" unicode="&#x2022;" horiz-adv-x="1024" 
d="M156 715q0 148 104 253t252 105t253 -105t105 -253t-105 -252.5t-253 -104.5t-252 104.5t-104 252.5z" />
    <glyph glyph-name="ellipsis" unicode="&#x2026;" horiz-adv-x="2048" 
d="M260 0v172h166v-172h-166zM942 0v172h166v-172h-166zM1624 0v172h166v-172h-166z" />
    <glyph glyph-name="perthousand" unicode="&#x2030;" horiz-adv-x="2048" 
d="M86 1081q0 62 7 112.5t25.5 98.5t48 80.5t77.5 52t112 19.5q79 0 134 -28.5t84 -81.5t41 -114t12 -139t-12 -139t-41 -113.5t-84 -81t-134 -28.5t-134 29t-83.5 82t-40.5 113.5t-12 137.5zM215 1081q0 -30 0.5 -47t3 -49t7.5 -51.5t15.5 -44t25 -38.5t37.5 -24t52 -10
q34 0 59.5 11.5t40 35t24 46t13 58.5t4.5 57t1 56q0 30 -0.5 47.5t-3 49t-8 51.5t-15.5 44.5t-25 38.5t-38 24t-52 10t-52 -10t-37.5 -24t-25 -39t-15.5 -44.5t-7.5 -51t-3 -49t-0.5 -47.5zM778 348q0 57 6 105t23.5 97.5t46.5 83.5t79 55.5t116 21.5t115.5 -21.5
t78.5 -55.5t46.5 -83.5t23.5 -97t6 -105.5t-6 -105.5t-23.5 -97t-46.5 -83t-78.5 -55t-115.5 -21.5t-116 21.5t-79 55.5t-46.5 83t-23.5 97t-6 105zM907 348q0 -35 1 -56t4.5 -57t13 -58.5t24 -46t40 -35t59.5 -11.5q29 0 52 10t37.5 24t25 38.5t15.5 44t7.5 51.5t3 49
t0.5 47t-0.5 47t-3 49t-7.5 51.5t-15.5 44t-25 38.5t-37.5 24t-52 10q-34 0 -59.5 -11.5t-40 -35t-24 -46t-13 -58.5t-4.5 -57t-1 -56zM1421 348q0 57 6 105t23.5 97.5t46.5 83.5t79 55.5t116 21.5t115.5 -21.5t78.5 -55.5t46.5 -83.5t23.5 -97t6 -105.5t-6 -105.5
t-23.5 -97t-46.5 -83t-78.5 -55t-115.5 -21.5t-116 21.5t-79 55.5t-46.5 83t-23.5 97t-6 105zM1550 348q0 -35 1 -56t4.5 -57t13 -58.5t24 -46t40 -35t59.5 -11.5q29 0 52 10t37.5 24t25 38.5t15.5 44t7.5 51.5t3 49t0.5 47t-0.5 47t-3 49t-7.5 51.5t-15.5 44t-25 38.5
t-37.5 24t-52 10q-34 0 -59.5 -11.5t-40 -35t-24 -46t-13 -58.5t-4.5 -57t-1 -56zM221 -45l846 1520h119l-846 -1520h-119z" />
    <glyph glyph-name="guilsinglleft" unicode="&#x2039;" horiz-adv-x="569" 
d="M487 971l-272 -420l272 -420h-120l-287 420l287 420h120z" />
    <glyph glyph-name="guilsinglright" unicode="&#x203a;" horiz-adv-x="569" 
d="M82 131l272 420l-272 420h121l286 -420l-286 -420h-121z" />
    <glyph glyph-name="fraction" unicode="&#x2044;" horiz-adv-x="342" 
d="M-311 -45l846 1520h116l-846 -1520h-116z" />
    <glyph glyph-name="Euro" unicode="&#x20ac;" 
d="M1159 1403l-26 -129q-46 27 -125 43t-142 16q-196 0 -328.5 -116t-177.5 -312h699l-23 -98h-694q-9 -92 0 -184h657l-20 -99h-619q45 -196 176.5 -311t327.5 -115q157 0 269 56l12 -131q-107 -48 -281 -48q-259 0 -430 146.5t-221 402.5h-184l22 99h150q-9 92 0 184h-172
l22 98h164q52 252 225 400.5t428 148.5q172 0 291 -51z" />
    <glyph glyph-name="afii61289" unicode="&#x2113;" horiz-adv-x="976" 
d="M862 299l66 -55q-132 -248 -373 -248q-83 0 -147 30.5t-102.5 84.5t-58.5 120.5t-22 145.5v26q-18 -15 -121 -98l-43 76q20 17 53.5 45t60 50.5t48.5 43.5v561q0 107 18 192t47 138t69.5 87.5t82 48.5t86.5 14q120 0 183 -91t63 -231q0 -183 -110.5 -366.5t-317.5 -383.5
v-61q1 -167 68.5 -248.5t167.5 -81.5q91 0 165 60t117 141zM344 1096v-478q160 173 248 321.5t88 295.5q0 227 -156 227q-32 0 -62 -19.5t-57.5 -60t-44 -114.5t-16.5 -172z" />
    <glyph glyph-name="trademark" unicode="&#x2122;" horiz-adv-x="2027" 
d="M399 582v749h-268v99h666v-99h-269v-749h-129zM979 582v848h209l250 -654l250 654h208v-848h-129v737h-4l-282 -737h-88l-281 737h-4v-737h-129z" />
    <glyph glyph-name="Omega" unicode="&#x2126;" horiz-adv-x="1484" 
d="M420 106v5q-125 106 -205 270.5t-80 368.5q0 197 81.5 352.5t221 240t310.5 84.5q132 0 246 -54.5t190.5 -146.5t120 -213.5t43.5 -254.5q0 -210 -84.5 -380t-204.5 -267v-5h315v-106h-481v78q136 86 230 258t94 399q0 82 -19 164t-58 158t-94 135t-133 94t-168 35
q-143 0 -253.5 -80t-169 -214t-58.5 -296q0 -215 96 -392.5t228 -260.5v-78h-482v106h314z" />
    <glyph glyph-name="estimated" unicode="&#x212e;" horiz-adv-x="1757" 
d="M1688 694h-1311q-10 0 -10 -8v-397q0 -26 16 -45q98 -101 225.5 -158t270.5 -57q154 0 289.5 64t232.5 177h117q-111 -131 -279 -206.5t-362 -75.5q-219 0 -405.5 97.5t-295 265t-108.5 364.5t108.5 365t295 266t405.5 98q165 0 315.5 -58t259 -155.5t172.5 -232.5
t64 -283v-21zM1391 745v400q0 29 -21 47q-99 97 -224.5 152t-266.5 55t-268.5 -56.5t-225.5 -156.5q-18 -18 -18 -49v-392q0 -12 10 -12h1005q9 0 9 12z" />
    <glyph glyph-name="partialdiff" unicode="&#x2202;" horiz-adv-x="1103" 
d="M207 1380l-47 93q137 110 332 110q100 0 189.5 -47.5t161 -138t114 -239t42.5 -335.5q0 -174 -33.5 -323.5t-97.5 -263t-165 -178t-228 -64.5q-95 0 -171 39.5t-122 106.5t-70 148t-24 169q0 113 36 210t96 162t138 101.5t162 36.5q69 0 132 -23t105.5 -57.5t69.5 -66
t41 -58.5h4q2 27 2 94q0 276 -115.5 448.5t-277.5 172.5q-151 0 -274 -97zM485 100h2q99 0 179 74.5t126.5 192.5t61.5 262q-13 37 -40 75.5t-66 75t-94 59.5t-115 23q-131 0 -226.5 -118.5t-95.5 -284.5q0 -158 73.5 -258.5t194.5 -100.5z" />
    <glyph glyph-name="uni2206" unicode="&#x2206;" horiz-adv-x="1323" 
d="M66 0v92l524 1352h147l520 -1350v-94h-1191zM195 104h923l-315 811q-16 46 -71 187.5t-70 191.5h-9q-10 -43 -62.5 -179t-62.5 -165z" />
    <glyph glyph-name="product" unicode="&#x220f;" horiz-adv-x="1419" 
d="M1364 1288h-227v-1483h-125v1483h-604v-1483h-125v1483h-230v117h1311v-117z" />
    <glyph glyph-name="summation" unicode="&#x2211;" horiz-adv-x="1130" 
d="M1081 -195h-1036v86l563 711l-536 713v90h979v-113h-799v-6l506 -668l-545 -686v-6h868v-121z" />
    <glyph glyph-name="minus" unicode="&#x2212;" horiz-adv-x="1228" 
d="M94 449v141h1039v-141h-1039z" />
    <glyph glyph-name="uni2215" unicode="&#x2215;" horiz-adv-x="342" 
d="M-311 -45l846 1520h116l-846 -1520h-116z" />
    <glyph glyph-name="uni2219" unicode="&#x2219;" horiz-adv-x="569" 
d="M188 637q0 45 30.5 71.5t68.5 26.5q37 0 66.5 -27t29.5 -71q0 -45 -29.5 -71.5t-66.5 -24.5q-38 -2 -68.5 24.5t-30.5 71.5z" />
    <glyph glyph-name="radical" unicode="&#x221a;" horiz-adv-x="1157" 
d="M1153 1665l-453 -1970h-116l-332 944l-154 -55l-28 80l262 100l274 -776q5 -23 17 -71.5t16 -68.5h2q3 18 13 66t14 72l389 1679h96z" />
    <glyph glyph-name="infinity" unicode="&#x221e;" horiz-adv-x="1579" 
d="M1475 586v-4q0 -138 -91.5 -227t-216.5 -89q-93 0 -175 57.5t-199 188.5q-53 -60 -85.5 -93t-84 -74t-105 -60t-112.5 -19q-124 0 -213 90.5t-89 218.5q0 137 90 226.5t226 89.5q45 0 89 -14.5t79 -35.5t75.5 -56.5t68.5 -65t67 -74.5q99 108 139 143q119 103 246 103
q131 0 211 -85t80 -220zM418 352h2q32 0 65 11.5t57.5 25t57.5 42t49.5 45t50 52t43.5 45.5q-90 109 -133 147q-101 91 -207 91q-94 0 -150 -69.5t-56 -168.5q0 -94 61.5 -157.5t159.5 -63.5zM1174 811h-3q-40 0 -79.5 -16t-76.5 -45t-63.5 -55t-60 -63t-47.5 -50
q118 -128 186.5 -179t145.5 -51q95 0 151.5 68.5t56.5 157.5q0 108 -59 170.5t-151 62.5z" />
    <glyph glyph-name="integral" unicode="&#x222b;" horiz-adv-x="710" 
d="M678 1683l-25 -90q-31 23 -75 23q-67 0 -103 -47q-40 -45 -57 -130.5t-17 -234.5q0 -154 13.5 -507t13.5 -515q0 -275 -90 -405q-30 -46 -79.5 -70t-106.5 -24q-35 0 -72 10t-57 22l24 92q54 -24 94 -24q62 0 97 47q73 94 73 354q0 163 -13 520.5t-13 512.5
q0 167 23.5 263.5t82.5 155.5q73 76 178 76q61 0 109 -29z" />
    <glyph glyph-name="approxequal" unicode="&#x2248;" horiz-adv-x="1159" 
d="M1001 860l56 -49q-98 -188 -258 -188q-40 0 -81 12t-71 27t-92 49q-59 33 -103.5 50t-91.5 17q-65 0 -111.5 -39.5t-92.5 -111.5l-60 47q48 90 120 139t159 49q35 0 73 -11t55.5 -18.5t59.5 -31.5t43 -25q7 -4 33 -17.5t34 -17.5t29 -13t33.5 -12t31.5 -6t38 -3
q61 0 106.5 37t89.5 116zM1001 520l56 -49q-97 -186 -258 -186q-41 0 -83.5 12.5t-68 25.5t-92.5 48q-117 69 -193 69q-67 0 -113 -40t-93 -113l-60 47q48 90 120 140t159 50q35 0 72 -10t57.5 -20t57 -30t44.5 -24q7 -4 32.5 -17.5t34 -17.5t29.5 -13.5t33.5 -13t31.5 -6.5
t38 -3q62 0 105.5 36t90.5 115z" />
    <glyph glyph-name="notequal" unicode="&#x2260;" horiz-adv-x="1159" 
d="M815 1016l-96 -207h332v-86h-367l-143 -303h510v-86h-545l-115 -244l-69 33l98 211h-314v86h353l139 303h-492v86h529l110 240z" />
    <glyph glyph-name="lessequal" unicode="&#x2264;" horiz-adv-x="1159" 
d="M1044 188l-927 459v90l927 459v-104l-829 -396v-4l829 -399v-105zM1051 16h-947v88h947v-88z" />
    <glyph glyph-name="greaterequal" unicode="&#x2265;" horiz-adv-x="1159" 
d="M119 1196l928 -459v-90l-928 -459v105l829 397v4l-829 398v104zM1049 16h-943v88h943v-88z" />
    <glyph glyph-name="lozenge" unicode="&#x25ca;" horiz-adv-x="1159" 
d="M1042 700l-413 -792h-105l-411 792l415 795h105zM924 698l-306 586q-20 41 -38 102h-5q-19 -59 -40 -102l-304 -579l308 -590q31 -71 36 -99h7q18 57 36 97z" />
    <glyph glyph-name="fi" unicode="&#xfb01;" 
d="M825 0v1044h129v-1044h-129zM954 1495v-172h-129v172h129zM250 0v934h-211v110h211v76q0 58 1 94.5t7 88t16.5 84t30.5 69t49 57t72.5 34.5t99.5 14q84 0 121 -21l-8 -113q-44 23 -102 23q-26 0 -47.5 -6t-37 -14.5t-27.5 -24.5t-20 -29t-13 -37t-8 -38.5t-4 -43
t-1.5 -41.5t0 -42.5t0.5 -38.5v-91h235v-110h-235v-934h-129z" />
    <glyph glyph-name="fl" unicode="&#xfb02;" 
d="M825 0v1536h129v-1536h-129zM250 0v934h-211v110h211v76q0 58 1 94.5t7 88t16.5 84t30.5 69t49 57t72.5 34.5t99.5 14q84 0 121 -21l-8 -113q-44 23 -102 23q-26 0 -47.5 -6t-37 -14.5t-27.5 -24.5t-20 -29t-13 -37t-8 -38.5t-4 -43t-1.5 -41.5t0 -42.5t0.5 -38.5v-91
h235v-110h-235v-934h-129z" />
    <glyph glyph-name="a.superior" horiz-adv-x="665" 
d="M496 811v98h-4q-23 -53 -81 -83.5t-126 -30.5q-236 0 -236 186q0 45 14.5 81t37 59t58.5 40t69.5 26t81 14t81 6t80.5 1h16v31q0 24 -4 42t-16.5 40t-44.5 34.5t-80 12.5q-113 0 -201 -49v94q116 41 213 41q238 0 238 -233v-277q0 -88 6 -133h-102zM487 1085v37h-24
q-58 0 -107.5 -5.5t-97.5 -19t-76 -40.5t-28 -66q0 -57 39 -83.5t102 -26.5q41 -2 73 6.5t51.5 20t33.5 33.5t20.5 36.5t10 41t3.5 36v30.5z" />
    <glyph glyph-name="o.superior" horiz-adv-x="739" 
d="M47 1122q0 143 81.5 238t242.5 94q82 -1 144.5 -27t100.5 -72t57 -104.5t19 -128.5q0 -65 -19 -122t-56.5 -103.5t-101 -73.5t-144.5 -28q-161 -1 -242.5 92.5t-81.5 234.5zM152 1122q0 -106 59 -173.5t160 -67.5t159 67t58 174q0 103 -59 174.5t-158 71.5t-159 -72
t-60 -174z" />
    <glyph glyph-name="one.superior" horiz-adv-x="739" 
d="M475 1444v-862h-117v749l-155 -119l-45 68l211 164h106z" />
    <glyph glyph-name="two.superior" horiz-adv-x="739" 
d="M92 582v84l217 194q215 207 215 340q0 67 -45.5 106.5t-113.5 39.5q-110 0 -224 -62l-16 102q119 58 240 58q125 0 200.5 -58.5t75.5 -179.5q0 -35 -9 -70.5t-19.5 -62.5t-35 -62t-38.5 -53.5t-48 -53.5t-46 -46t-48 -45l-151 -133h403v-98h-557z" />
    <glyph glyph-name="three.superior" horiz-adv-x="739" 
d="M203 975v98h57q32 0 63 2.5t72 11.5t70.5 24t50.5 43.5t21 66.5q0 125 -205 125q-110 0 -211 -48l-8 107q46 19 115.5 29t127.5 10q55 0 105.5 -12t94.5 -36.5t70.5 -67.5t26.5 -99q0 -76 -53 -129t-141 -72v-4q94 -4 146 -63.5t52 -149.5q0 -62 -31 -110.5t-81.5 -76.5
t-109 -42.5t-120.5 -14.5q-144 0 -245 35l10 107q107 -43 246 -43q86 0 150.5 43.5t64.5 113.5q1 31 -9.5 56t-26.5 40.5t-43.5 27t-49.5 16.5t-55.5 8t-51 3.5t-45.5 0.5h-57z" />
    </font>
</defs>
</svg>
